<?xml version="1.0" encoding="UTF-8" standalone="no"?>
<!-- Created with Inkscape (http://www.inkscape.org/) -->

<svg
   xmlns:dc="http://purl.org/dc/elements/1.1/"
   xmlns:cc="http://creativecommons.org/ns#"
   xmlns:rdf="http://www.w3.org/1999/02/22-rdf-syntax-ns#"
   xmlns:svg="http://www.w3.org/2000/svg"
   xmlns="http://www.w3.org/2000/svg"
   xmlns:sodipodi="http://sodipodi.sourceforge.net/DTD/sodipodi-0.dtd"
   xmlns:inkscape="http://www.inkscape.org/namespaces/inkscape"
   width="11in"
   height="8.5in"
   viewBox="0 0 279.4 215.9"
   id="svg2"
   version="1.1"
   inkscape:version="0.91+devel r"
   sodipodi:docname="logoclaro.svg"
   inkscape:export-filename="/home/paul/Descargas/logoclaro.png"
   inkscape:export-xdpi="96"
   inkscape:export-ydpi="96">
  <defs
     id="defs4">
    <filter
       inkscape:collect="always"
       style="color-interpolation-filters:sRGB"
       id="filter4207"
       x="-0.027182819"
       width="1.0543656"
       y="-0.20497164"
       height="1.4099433">
      <feGaussianBlur
         inkscape:collect="always"
         stdDeviation="2.8525389"
         id="feGaussianBlur4209" />
    </filter>
    <filter
       inkscape:collect="always"
       style="color-interpolation-filters:sRGB"
       id="filter4256"
       x="-0.01297947"
       width="1.0259589"
       y="-0.15901834"
       height="1.3180367">
      <feGaussianBlur
         inkscape:collect="always"
         stdDeviation="0.80695853"
         id="feGaussianBlur4258" />
    </filter>
  </defs>
  <sodipodi:namedview
     id="base"
     pagecolor="#ffffff"
     bordercolor="#666666"
     borderopacity="1.0"
     inkscape:pageopacity="0.0"
     inkscape:pageshadow="2"
     inkscape:zoom="0.7"
     inkscape:cx="369.09671"
     inkscape:cy="658.19798"
     inkscape:document-units="mm"
     inkscape:current-layer="layer1"
     showgrid="false"
     units="in"
     inkscape:window-width="1366"
     inkscape:window-height="744"
     inkscape:window-x="0"
     inkscape:window-y="24"
     inkscape:window-maximized="1" />
  <metadata
     id="metadata7">
    <rdf:RDF>
      <cc:Work
         rdf:about="">
        <dc:format>image/svg+xml</dc:format>
        <dc:type
           rdf:resource="http://purl.org/dc/dcmitype/StillImage" />
        <dc:title />
      </cc:Work>
    </rdf:RDF>
  </metadata>
  <g
     inkscape:label="Capa 1"
     inkscape:groupmode="layer"
     id="layer1"
     transform="translate(0,-81.1)">
    <g
       id="g3517"
       transform="translate(-21.166667,48.910119)">
      <path
         style="fill:#9c9ea1;stroke-width:0.613787"
         d="m 45.559823,139.27166 c -0.590794,-0.34399 -1.074152,-1.0262 -1.074152,-1.51582 0,-0.4896 -0.55625,-1.44642 -1.236104,-2.12631 -1.161253,-1.16121 -1.328317,-1.17571 -2.757583,-0.23923 -2.331895,1.52793 -4.599306,0.71665 -4.599306,-1.64562 0,-3.18617 -1.0279,-4.41854 -3.325832,-3.98746 -1.515498,0.28418 -2.250955,0.0885 -3.071665,-0.81853 -0.943444,-1.04251 -0.981286,-1.46276 -0.300853,-3.34392 0.924197,-2.55583 0.182687,-3.88781 -2.333562,-4.1908 -2.428023,-0.29252 -2.929468,-2.50164 -1.069548,-4.71204 1.943542,-2.30978 1.90309,-2.75247 -0.417279,-4.56846 -2.415698,-1.89054 -2.120972,-4.1656 0.690511,-5.33012 2.063991,-0.85496 2.408594,-2.5878 0.908972,-4.57053 -1.227332,-1.62268 -1.152626,-2.00994 0.722916,-3.748144 1.059761,-0.982155 2.346938,-1.505167 3.704325,-1.505167 1.866444,0 2.014949,-0.122153 1.444852,-1.187207 -0.349423,-0.652994 -0.635378,-1.888808 -0.635378,-2.74631 0,-2.123473 2.919427,-3.691747 5.234177,-2.811664 2.092265,0.795446 2.745042,0.345074 2.745042,-1.893992 0,-1.471965 0.408361,-2.009802 2.160264,-2.845229 2.101435,-1.002092 2.185964,-0.993465 3.103745,0.316801 1.275867,1.821534 3.214008,1.729394 3.942796,-0.187398 0.320788,-0.843945 1.004556,-1.534455 1.519267,-1.534455 0.514748,0 0.935868,-0.276205 0.935868,-0.613775 0,-0.337462 0.548711,-0.613811 1.219358,-0.613811 0.813353,0 1.518181,0.715267 2.116913,2.148266 1.058674,2.533756 3.26316,2.909749 5.39816,0.920681 0.724691,-0.675178 1.522022,-1.227586 1.771839,-1.227586 1.007311,0 2.383257,2.023865 2.383257,3.505472 0,2.457239 1.652332,3.31648 4.117218,2.141054 1.903344,-0.907632 2.078454,-0.894257 2.923777,0.223283 1.034207,1.36721 1.219539,3.704506 0.337099,4.249919 -0.378276,0.233795 -0.321513,0.826764 0.153326,1.599084 0.5523,0.898389 1.296782,1.182277 2.776359,1.058746 1.62221,-0.135564 2.177591,0.13194 2.810903,1.35264 0.679528,1.309902 0.626969,1.756502 -0.378095,3.212852 -1.557328,2.25661 -1.180175,3.64875 1.152228,4.25314 2.625897,0.68043 3.178522,3.21376 1.010936,4.63403 -0.831838,0.54502 -1.779632,1.69384 -2.106256,2.5529 -0.50612,1.33118 -0.361748,1.73095 0.976646,2.70596 0.863773,0.62922 1.570522,1.64164 1.570522,2.24984 0,1.19949 -2.771285,3.34471 -3.632918,2.8122 -0.291066,-0.17978 -0.963996,0.33638 -1.495273,1.14708 -0.890704,1.35939 -0.876857,1.58749 0.177612,2.9278 0.946271,1.20298 1.010175,1.6357 0.37081,2.51013 -0.424927,0.58111 -1.087382,1.05653 -1.472147,1.05653 -0.384764,0 -0.699572,0.28817 -0.699572,0.64038 0,0.36277 -0.997742,0.56231 -2.301701,0.46034 -2.258821,-0.17652 -2.301339,-0.13991 -2.281802,1.96823 0.03262,3.56724 -3.37346,5.43491 -6.121655,3.35631 -1.658022,-1.25408 -2.184369,-1.12928 -2.184369,0.51787 0,1.35641 -2.846062,4.10504 -4.250499,4.10504 -0.339637,0 -1.471059,-0.83438 -2.514327,-1.85423 l -1.896856,-1.85423 -1.854265,1.85423 c -1.984791,1.98479 -2.68034,2.17447 -4.368375,1.1913 z M 62.13044,129.14595 c 2.640541,-1.29192 3.834598,-2.39036 5.64765,-5.19554 3.042015,-4.70656 3.942506,-8.13939 3.587247,-13.675 C 70.903003,103.0713 67.018601,97.284171 60.318367,93.817229 57.126832,92.165804 48.353834,91.497695 44.88653,92.641984 c -3.251235,1.072992 -7.864315,5.546955 -9.93668,9.636956 -1.637397,3.23162 -1.819069,4.17329 -1.817546,9.42146 0.0019,6.51657 0.915605,9.00269 4.949636,13.46788 5.414906,5.99367 16.261102,7.78766 24.0485,3.97767 z"
         id="path3361"
         inkscape:connector-curvature="0" />
      <path
         style="fill:#7c8396;stroke-width:0.613787"
         d="m 46.007658,138.85108 c -0.53008,-0.38168 -1.167706,-1.50248 -2.647428,-4.6536 -0.134115,-0.28599 0.340362,-0.20734 1.054433,0.17507 0.714216,0.38223 1.298594,1.1456 1.298594,1.69637 0,0.55074 0.163476,0.83804 0.362944,0.63843 0.705553,-0.70556 -0.420903,-2.78256 -1.688977,-3.11419 -0.706931,-0.18486 -1.938576,0.0921 -2.736959,0.61501 -0.798382,0.52312 -1.882392,0.78584 -2.40892,0.5838 -0.549944,-0.21096 -0.79773,-0.10911 -0.582276,0.23923 0.559948,0.906 -1.283661,0.7331 -2.051777,-0.19247 -0.364792,-0.43954 -0.502133,-1.41535 -0.305201,-2.16842 0.229445,-0.8778 -0.0551,-1.82824 -0.792946,-2.64801 -1.128522,-1.25376 -1.127036,-1.2742 0.07648,-1.04697 0.849853,0.16058 1.344375,0.89064 1.607131,2.37304 l 0.379509,2.14127 0.08083,-1.91965 c 0.118528,-2.81526 -1.238352,-3.69052 -4.409081,-2.84422 -1.783366,0.47604 -2.788067,0.48782 -3.328731,0.0391 -0.914555,-0.75902 -1.033591,-2.33378 -0.176525,-2.33378 0.329126,0 1.027828,-0.83111 1.553123,-1.84691 0.744773,-1.44025 0.802514,-2.13195 0.262068,-3.14162 -0.577999,-1.08002 -1.091514,-1.24129 -3.096568,-0.97233 -1.939844,0.26025 -2.524549,0.0964 -3.030017,-0.84801 -0.579666,-1.08307 -0.359573,-1.42582 0.797838,-1.24306 0.253369,0.0399 0.460341,-0.29868 0.460341,-0.75286 0,-0.45403 0.552408,-1.32545 1.227549,-1.93647 1.65737,-1.49988 1.581722,-3.77483 -0.153325,-4.61569 -1.246326,-0.60395 -1.27623,-0.58449 -0.307015,0.19936 0.590794,0.47781 1.074152,1.33495 1.074152,1.90476 0,0.77206 -0.547262,0.50452 -2.148267,-1.05034 -2.285281,-2.21946 -2.733732,-3.49685 -1.227586,-3.49685 0.506374,0 0.920681,-0.38077 0.920681,-0.84619 0,-0.46541 0.828612,-1.18945 1.84136,-1.60894 1.679952,-0.69584 2.525963,-1.84136 1.359925,-1.84136 -0.264605,0 -0.97603,-0.83724 -1.580489,-1.8605 -1.079879,-1.8281 -1.074152,-1.88667 0.328038,-3.365235 0.79077,-0.833796 2.137211,-1.509445 3.019832,-1.515317 1.856186,-0.01087 3.651005,-1.742478 3.563214,-3.434754 -0.04748,-0.912199 -0.167462,-0.831766 -0.530768,0.355223 l -0.469584,1.534455 -0.624721,-1.534455 c -0.671952,-1.650411 -0.425362,-2.694622 0.501082,-2.12206 0.314264,0.194285 0.571402,-0.0435 0.571402,-0.52863 0,-1.242049 1.818634,-2.668922 2.34846,-1.842521 1.467688,2.289196 5.630759,0.449176 5.630759,-2.488701 0,-0.9429 0.49231,-1.831393 1.235016,-2.22888 1.025037,-0.548603 1.469247,-0.388643 2.612667,0.940689 1.206272,1.402334 1.588572,1.521442 3.072499,0.957254 0.932171,-0.354499 1.959273,-1.339844 2.282454,-2.189842 0.805777,-2.119414 2.80166,-2.009404 3.953453,0.217846 1.275976,2.467496 3.30923,2.862845 5.245341,1.019961 1.318458,-1.254952 1.705108,-1.35514 2.620786,-0.67902 0.590758,0.4362 1.074115,1.479396 1.074115,2.31823 0,0.838798 0.558462,2.030499 1.240998,2.648189 1.147479,1.038484 1.390735,1.051678 3.22829,0.175437 1.88145,-0.897192 2.039053,-0.878416 2.959516,0.353048 0.737342,0.986506 0.831911,1.717106 0.391434,3.024182 -0.792039,2.350309 0.667965,4.000393 3.20955,3.627372 1.503428,-0.220746 1.953945,0.0145 2.55739,1.339808 0.636031,1.395881 0.554837,1.796781 -0.616385,3.043461 -1.119388,1.19152 -1.243607,1.71261 -0.730273,3.06286 0.391506,1.02975 1.080422,1.62703 1.876593,1.62703 0.798056,0 1.485485,0.59848 1.880327,1.637 0.642482,1.68988 0.553894,1.83426 -2.033798,3.31547 -1.534383,0.87827 -1.326106,3.18983 0.436634,4.84586 1.837773,1.72649 1.263508,3.36497 -1.363622,3.89038 -0.976356,0.19537 -2.089437,1.00466 -2.540389,1.84723 -0.686088,1.28196 -0.649189,1.73371 0.254093,3.11241 1.428106,2.17955 0.339275,3.61095 -2.395871,3.14952 -2.735509,-0.46153 -4.909112,1.43587 -4.095724,3.57525 0.444936,1.17025 0.357398,1.72737 -0.366242,2.32784 -0.782905,0.64973 -1.265029,0.60928 -2.725105,-0.22872 -2.530531,-1.45232 -5.463985,-0.4242 -5.463985,1.91501 0,1.29193 -0.426921,1.80787 -1.981348,2.39461 -1.808811,0.68275 -2.114919,0.61428 -3.515332,-0.7861 -1.115292,-1.11533 -1.278115,-1.53402 -0.596558,-1.53402 0.515581,0 1.324584,0.34544 1.797792,0.76725 0.731977,0.6527 0.739082,0.60689 0.04748,-0.30702 -1.107245,-1.46326 -3.861675,-1.37551 -4.816536,0.15333 -0.421629,0.67514 -1.316682,1.22755 -1.988996,1.22755 -0.672315,0 -1.222367,0.2762 -1.222367,0.61381 0,0.71922 -0.662455,0.78091 -1.546961,0.1439 z M 61.9786,129.47109 c 1.687927,-0.81183 4.260214,-2.66664 5.716194,-4.12179 2.743918,-2.74236 5.667876,-8.13356 5.571712,-10.27309 -0.04495,-0.99604 -0.139915,-0.93819 -0.504272,0.30702 -0.303027,1.03482 -0.547298,-0.26425 -0.750754,-3.98963 -0.237782,-4.35203 -0.639365,-6.17519 -1.89323,-8.59299 -2.073235,-3.997823 -6.071127,-7.81524 -10.28788,-9.82352 -2.99348,-1.425677 -3.132525,-1.568382 -1.227586,-1.259737 1.527315,0.247569 1.793442,0.19211 0.920681,-0.191023 -4.776955,-2.097992 -12.53579,-0.926661 -17.830682,2.69183 -3.456285,2.362017 -4.856734,4.04679 -7.423475,8.93067 -1.506908,2.86731 -1.751395,4.02301 -1.744726,8.24774 0.0072,4.11258 0.284541,5.47917 1.707137,8.38657 2.116152,4.32524 5.938281,8.22396 9.947083,10.1464 2.718835,1.30382 3.734121,1.44583 8.899899,1.24477 4.576507,-0.17797 6.491233,-0.54451 8.899899,-1.70304 z M 73.766827,109.7056 c -0.146439,-0.75956 -0.266055,-0.1381 -0.266055,1.38102 0,1.51912 0.119616,2.14058 0.266055,1.38102 0.146439,-0.75956 0.146439,-2.00248 0,-2.76204 z m -1.336002,-6.33004 c -0.569372,-1.49085 -1.281051,-2.86259 -1.581577,-3.04832 -0.30049,-0.18559 -0.0072,0.84721 0.648645,2.29536 0.657272,1.44818 1.22291,3.18544 1.256983,3.86062 0.03733,0.73933 0.191023,0.90448 0.38654,0.41525 0.178699,-0.44675 -0.141364,-2.0321 -0.710591,-3.52291 z m -42.934593,-1.35692 c -1.056898,-1.01231 -1.069983,-0.99922 -0.293603,0.29361 0.446929,0.74419 0.944713,1.22099 1.106194,1.0595 0.161663,-0.16166 -0.204072,-0.7704 -0.812591,-1.35311 z m 39.434159,-4.358838 c -1.485776,-1.836685 -6.556442,-5.600601 -7.544977,-5.600601 -0.312451,0 0.660135,0.791495 2.160953,1.758862 1.500818,0.967367 3.53998,2.624592 4.531488,3.682722 2.257081,2.408703 2.746274,2.499935 0.852536,0.159125 z m -5.724204,37.364508 c -0.208785,-0.33746 0.03625,-0.61381 0.541352,-0.61381 0.506375,0 1.091369,0.27621 1.300008,0.61381 0.208785,0.33747 -0.03625,0.61378 -0.541352,0.61378 -0.506375,0 -1.091369,-0.27621 -1.300008,-0.61378 z M 29.874073,122.45833 c -0.781998,-1.71627 -0.09678,-2.08269 1.1299,-0.60442 0.515654,0.62135 0.577963,1.1544 0.181236,1.55109 -0.39669,0.39673 -0.847279,0.0714 -1.311136,-0.94667 z M 40.851412,88.018465 c 0.029,-0.71505 0.174712,-0.860474 0.370846,-0.370846 0.177249,0.443087 0.155501,0.972478 -0.04857,1.176441 -0.204072,0.204072 -0.349061,-0.1584 -0.322238,-0.805595 z"
         id="path3359"
         inkscape:connector-curvature="0" />
      <path
         style="fill:#616b87;stroke-width:0.613787"
         d="m 45.061495,137.07268 c -0.337099,-0.88628 -0.7588,-1.84785 -0.937354,-2.13681 -0.178699,-0.28889 -0.05908,-0.52537 0.26533,-0.52537 0.324413,0 0.894438,0.87342 1.266588,1.9409 0.803385,2.3046 1.312224,2.14178 0.848657,-0.27149 -0.489736,-2.54942 -2.379487,-3.31242 -4.875184,-1.96841 -2.494573,1.3434 -3.895421,0.50322 -3.895421,-2.33632 0,-2.69868 -1.536159,-4.20193 -3.522219,-3.44679 -1.20968,0.45991 -1.821969,0.35559 -2.727933,-0.46414 -1.083213,-0.98035 -1.139142,-0.98158 -0.769167,-0.0181 0.226908,0.59123 0.105842,1.03972 -0.280553,1.03972 -1.028408,0 -0.820928,-1.16064 0.626099,-3.50196 1.734467,-2.8064 0.884288,-5.09103 -1.894464,-5.09103 -2.507839,0 -3.238403,-2.48943 -1.327519,-4.52352 1.959454,-2.0857 1.711885,-4.2597 -0.583726,-5.12619 -1.634933,-0.61711 -1.78699,-0.59228 -1.140738,0.18631 0.611491,0.7368 0.56437,0.82886 -0.261705,0.51177 -1.136461,-0.43609 -1.309686,-1.22363 -0.393718,-1.78974 0.337462,-0.20879 0.613775,-0.88842 0.613775,-1.51064 0,-0.70219 0.690257,-1.37193 1.819794,-1.76568 2.480762,-0.86479 3.129407,-3.40235 1.329694,-5.20203 -0.719472,-0.71947 -1.308127,-0.98686 -1.308127,-0.59416 0,0.39267 0.276204,0.88465 0.613811,1.09329 0.337462,0.20878 0.613775,0.69845 0.613775,1.08843 0,0.40111 -0.459905,0.24902 -1.058819,-0.34978 -0.98926,-0.98923 -0.992124,-1.1693 -0.04386,-2.740116 0.720523,-1.193623 1.606225,-1.736752 3.053614,-1.87257 2.844794,-0.26678 4.234478,-2.162476 3.334096,-4.547872 -0.580391,-1.537609 -0.511159,-1.929188 0.46759,-2.644854 0.977045,-0.714433 1.281921,-0.707003 2.03851,0.04966 1.135445,1.135445 1.722977,1.118808 3.585579,-0.101492 1.022173,-0.669741 1.512888,-1.558596 1.512888,-2.740438 0,-1.120983 0.440876,-1.985118 1.227586,-2.40613 0.804617,-0.430654 1.22755,-0.442978 1.22755,-0.03625 0,0.341811 0.653248,1.049213 1.45163,1.57237 1.863617,1.221061 4.408103,0.35921 5.406099,-1.831212 0.990275,-2.173422 2.556156,-1.922917 3.759928,0.601451 1.245746,2.61234 3.233546,2.8569 5.304316,0.652632 1.1751,-1.250821 1.594481,-1.37736 2.562174,-0.773046 0.652414,0.407456 1.157049,1.419806 1.157049,2.321203 0,0.879213 0.558461,2.103972 1.240997,2.721662 1.154186,1.044537 1.382688,1.05552 3.266857,0.15695 1.9144,-0.912923 2.067653,-0.899077 2.786037,0.251194 0.432974,0.693301 0.595869,1.965508 0.378458,2.95542 -0.583653,2.657215 0.769675,4.380482 3.097184,3.943811 1.596982,-0.299764 1.990518,-0.112729 2.605308,1.23654 0.622257,1.365727 0.545231,1.768357 -0.547551,2.861147 -1.74063,1.74063 -1.114785,4.10177 1.31139,4.94753 1.000895,0.34906 1.819793,0.86098 1.819793,1.13795 0,0.27693 0.152601,0.90096 0.338912,1.38667 0.220746,0.57568 -0.313538,1.15335 -1.534455,1.65915 -1.525792,0.632 -1.873367,1.13334 -1.873367,2.70212 0,1.28109 0.424093,2.191 1.266407,2.71702 1.831864,1.144 1.358873,3.43889 -0.759236,3.68371 -0.955187,0.11055 -2.084906,0.86707 -2.702958,1.81036 -0.996546,1.52094 -0.998576,1.73103 -0.03262,3.41348 1.240346,2.16114 0.499886,3.45498 -1.732981,3.02813 -1.832299,-0.35014 -5.245015,1.07006 -5.245015,2.18292 0,0.44614 0.270404,1.31643 0.600871,1.93398 0.442252,0.82633 0.344349,1.33564 -0.370629,1.92908 -0.809474,0.6718 -1.267458,0.63646 -2.745476,-0.21169 -1.405089,-0.80643 -2.157582,-0.8844 -3.618963,-0.37494 -1.698112,0.59195 -2.153051,1.41933 -1.890839,3.4386 0.187399,1.44242 -2.946213,0.84144 -4.000248,-0.76725 -1.279021,-1.95202 -3.482419,-1.98591 -4.956124,-0.0761 -0.618922,0.80204 -2.031768,1.62551 -3.139666,1.82991 -1.76825,0.32622 -2.089183,0.17471 -2.62702,-1.2398 z m 15.805076,-7.06622 c 4.292582,-1.59042 8.889387,-6.01389 11.050377,-10.63371 2.419033,-5.17151 2.458035,-11.93431 0.09787,-16.96996 -2.073923,-4.424955 -5.847517,-8.19235 -10.252248,-10.235464 -2.836602,-1.315775 -4.359024,-1.606442 -8.376924,-1.59941 -7.600725,0.0145 -13.095194,2.981954 -17.457189,9.432009 -3.089499,4.568465 -3.897233,7.305495 -3.617441,12.257595 0.513551,9.08809 6.925438,16.98122 15.550547,19.14287 2.694114,0.67521 9.344146,-0.0377 13.005047,-1.39393 z m 11.62225,-20.47804 c -0.210597,-0.54856 -0.382735,-1.48305 -0.382735,-2.07671 0,-0.59362 -0.838617,-2.75758 -1.863617,-4.80878 -1.72479,-3.451573 -4.164666,-6.186066 -7.962473,-8.923894 -0.899439,-0.648428 -0.425941,-0.522396 1.150017,0.305926 4.625912,2.431684 8.194782,7.535228 9.261249,13.243628 0.55857,2.98989 0.467553,4.00572 -0.202623,2.25973 z m -18.182534,27.95103 c -0.361385,-0.67518 -0.437504,-1.22759 -0.169274,-1.22759 0.268229,0 0.832708,0.55241 1.254372,1.22759 0.424637,0.68 0.50014,1.22759 0.169275,1.22759 -0.328763,0 -0.89306,-0.55241 -1.254373,-1.22759 z M 37.198884,135.0859 c -0.463131,-0.29324 -0.716572,-0.90988 -0.56321,-1.37 0.194285,-0.58264 0.502967,-0.4179 1.017098,0.5428 0.816144,1.52499 0.772683,1.60419 -0.453888,0.8272 z m -1.244586,-5.15324 c -0.776416,-1.29283 -0.763331,-1.30592 0.293603,-0.2936 0.60841,0.58271 0.974073,1.19163 0.812591,1.35311 -0.1613,0.1613 -0.659229,-0.31535 -1.106158,-1.05951 z m -5.807681,-7.491 c -0.194286,-0.50638 -0.08591,-0.92068 0.241406,-0.92068 0.326951,0 0.594528,0.4143 0.594528,0.92068 0,0.50637 -0.108379,0.92068 -0.241407,0.92068 -0.132665,0 -0.400206,-0.41431 -0.594527,-0.92068 z m -4.68833,-3.06891 c 0,-0.50638 0.108742,-0.92068 0.241407,-0.92068 0.132665,0 0.400206,0.4143 0.594527,0.92068 0.194286,0.50637 0.08591,0.92068 -0.241407,0.92068 -0.32695,0 -0.594527,-0.41431 -0.594527,-0.92068 z m 2.250556,-6.24019 c -0.225095,-0.22509 -0.409195,-0.6946 -0.409195,-1.04345 0,-0.38458 0.285991,-0.34833 0.726322,0.0921 0.399482,0.39948 0.583618,0.86903 0.409196,1.04345 -0.17435,0.17435 -0.501264,0.13303 -0.726323,-0.0921 z m 5.524083,-18.413607 c -0.225095,-0.225096 -0.400786,-0.846519 -0.390528,-1.381021 0.0145,-0.798092 0.135202,-0.771596 0.670031,0.148251 0.660932,1.136569 0.469329,1.981529 -0.279467,1.232697 z"
         id="path3357"
         inkscape:connector-curvature="0" />
      <path
         style="fill:#4d5874;stroke-width:0.613787"
         d="m 46.625311,136.21257 c -0.566798,-2.58055 -2.769037,-3.56274 -4.882796,-2.17777 -2.334723,1.52978 -4.090613,0.41028 -3.895711,-2.48377 0.186673,-2.7698 -1.251908,-4.00786 -3.805709,-3.27545 -2.554091,0.73249 -3.536319,-0.5917 -2.521215,-3.39894 0.932171,-2.57783 0.06996,-4.58321 -1.9708,-4.58321 -2.833376,0 -3.77961,-2.66316 -1.635657,-4.60341 1.76593,-1.59814 1.60753,-4.23324 -0.307015,-5.10553 -2.21971,-1.01134 -2.066275,-3.32453 0.279104,-4.20983 2.446691,-0.92355 3.101642,-3.44748 1.374279,-5.29605 -1.04722,-1.120732 -1.129392,-1.522569 -0.489229,-2.391778 0.520293,-0.706423 1.234799,-0.923037 2.206443,-0.668944 1.098401,0.287441 1.759986,-0.029 2.807459,-1.342888 1.153678,-1.446846 1.271083,-2.003676 0.742272,-3.520624 -0.827235,-2.373072 -0.03262,-3.126146 2.348859,-2.227105 2.559274,0.96599 5.154723,-0.672604 5.154723,-3.254424 0,-2.341319 1.506871,-2.89351 3.299697,-1.209245 1.952821,1.834583 4.921871,1.222548 5.935018,-1.223454 0.404157,-0.975667 0.977516,-1.773941 1.274128,-1.773941 0.746258,0 2.994459,2.315512 2.994459,3.084099 0,0.345798 0.742452,0.911256 1.649903,1.256293 1.462758,0.556142 1.813523,0.418185 3.092761,-1.216385 1.37272,-1.754041 1.501362,-1.793551 2.646594,-0.812954 0.662092,0.566871 1.203772,1.766148 1.203772,2.665044 0,1.736933 2.87854,4.266158 3.606493,3.168844 0.210597,-0.317526 0.924016,-0.873305 1.585093,-1.234799 1.629858,-0.891247 2.77114,0.69515 2.353173,3.270917 -0.171812,1.059471 0.0072,2.526325 0.400967,3.259644 0.585647,1.094305 1.071396,1.266225 2.709265,0.958957 1.727617,-0.32405 2.092917,-0.160937 2.71985,1.215045 0.62135,1.363728 0.545485,1.768108 -0.534357,2.847908 -1.832988,1.83299 -1.118591,4.64212 1.316609,5.17695 0.990746,0.21748 1.80138,0.62733 1.80138,0.91049 0,0.28309 0.158038,0.92673 0.351236,1.43025 0.316076,0.82346 -1.716416,2.08015 -2.887964,1.78568 -0.213497,-0.0537 -0.568176,0.78925 -0.787943,1.87322 -0.330575,1.63008 -0.135927,2.18307 1.12468,3.19839 2.080448,1.67556 1.724971,3.54125 -0.772067,4.05194 -1.066068,0.21784 -1.942346,0.224 -1.947348,0.0145 -0.0036,-0.21059 -0.373927,0.30774 -0.819949,1.15165 -0.697905,1.32064 -0.654517,1.85057 0.311364,3.80278 1.250603,2.5277 0.741909,3.36592 -1.840092,3.03215 -0.790372,-0.10222 -2.268535,0.15876 -3.2848,0.5796 -1.703404,0.70555 -1.819141,0.94427 -1.481498,3.05568 0.43475,2.71883 -0.725018,3.54889 -2.935158,2.10078 -1.992549,-1.30559 -5.1905,-0.58061 -5.658162,1.28268 -0.196098,0.78167 -0.176162,1.71315 0.04422,2.06994 0.916838,1.48349 -2.744281,0.59963 -3.72669,-0.89966 -0.788813,-1.20392 -1.465839,-1.51796 -3.043429,-1.41169 -1.115908,0.075 -1.910231,0.32877 -1.765206,0.56332 0.14499,0.23452 -0.166374,0.59177 -0.692358,0.79356 -0.525803,0.2019 -0.784138,0.64502 -0.574012,0.98499 0.217121,0.35159 -0.274392,0.61812 -1.139904,0.61812 -1.199023,0 -1.60956,-0.39897 -1.934988,-1.88065 z m 10.840396,-5.09227 c 6.521898,-1.53507 12.126087,-6.05289 14.859892,-11.97932 1.912297,-4.14553 1.854229,-12.74258 -0.113091,-16.73094 -2.261177,-4.584335 -5.31664,-7.664192 -9.786508,-9.864691 -3.609973,-1.777203 -4.699022,-2.020604 -9.040502,-2.020604 -4.331584,0 -5.433863,0.245032 -9.000232,2.000741 -2.23526,1.10043 -5.038297,3.079096 -6.229019,4.397046 -1.190687,1.317987 -2.287601,2.27361 -2.437556,2.123655 -0.150064,-0.150064 -0.919339,1.185793 -1.709675,2.968393 -2.089582,4.71287 -2.34585,11.88755 -0.591628,16.56123 2.711622,7.22426 10.763045,13.3905 17.457552,13.36999 1.718374,-0.004 4.684198,-0.37676 6.590659,-0.8255 z m 12.531585,-29.67436 c -0.333112,-0.87476 -0.26243,-0.94526 0.343625,-0.34363 0.419453,0.41634 0.608047,0.91162 0.419054,1.10058 -0.188848,0.18885 -0.532182,-0.15151 -0.762679,-0.75699 z M 68.34507,98.964304 c -0.763476,-0.973492 -0.741764,-0.995204 0.23162,-0.23162 1.02239,0.801826 1.347528,1.305876 0.842386,1.305876 -0.12759,0 -0.610839,-0.483353 -1.074151,-1.074147 z"
         id="path3355"
         inkscape:connector-curvature="0" />
      <path
         style="fill:#3a4562;stroke-width:0.613787"
         d="m 46.548431,136.1059 c -0.747057,-2.60491 -3.310245,-3.65065 -5.062039,-2.0653 -0.977589,0.88472 -1.438437,0.95131 -2.532125,0.36599 -1.097568,-0.58739 -1.270068,-1.07245 -0.963235,-2.70811 0.533741,-2.84497 -1.262456,-4.45112 -3.935656,-3.51924 -1.706521,0.59492 -1.957678,0.51862 -2.546261,-0.77323 -0.468278,-1.02768 -0.457296,-1.79899 0.03878,-2.72587 1.162087,-2.17135 0.232707,-4.21552 -2.117203,-4.65636 -2.829643,-0.53084 -3.432,-2.4941 -1.306388,-4.25807 1.93854,-1.60866 1.65302,-4.19214 -0.575498,-5.2075 -2.202818,-1.00369 -1.931979,-3.23735 0.531385,-4.3819 2.329974,-1.08256 2.899419,-3.21781 1.322844,-4.95993 -0.864533,-0.95529 -0.932787,-1.435316 -0.363669,-2.557966 0.686379,-1.353944 0.697652,-1.355285 0.554584,-0.06706 -0.08047,0.72317 0.350873,1.864566 0.957906,2.536436 1.612894,1.78475 0.801137,4.27798 -1.796124,5.51655 -2.55739,1.2195 -2.626296,2.28173 -0.228358,3.52171 2.220072,1.14802 2.515089,3.80339 0.613775,5.52408 -1.692675,1.53185 -1.609197,3.37321 0.153326,3.38521 1.860898,0.0145 2.725939,0.63973 3.427251,2.48424 0.413436,1.08745 0.353411,1.98758 -0.20226,3.02552 -1.202829,2.24751 -0.541788,3.17305 1.93448,2.70851 2.850703,-0.5348 4.507637,0.96939 4.507637,4.09206 0,2.71887 1.021883,3.33399 2.822901,1.69923 1.795436,-1.62964 4.302876,-0.62541 5.48142,2.19528 0.48372,1.1577 1.368044,2.23225 1.965145,2.38786 0.719871,0.18777 0.546863,0.30702 -0.513515,0.35414 -1.301639,0.058 -1.705143,-0.29868 -2.169108,-1.91614 z m 9.37481,0.49263 c -0.61816,-0.94344 -1.719425,-1.58629 -2.986085,-1.74313 -2.002444,-0.24793 -2.001864,-0.24865 0.280916,-0.34652 1.834655,-0.0787 2.490622,0.21168 3.313181,1.46707 0.56408,0.86091 1.390228,1.42539 1.835851,1.25437 0.445624,-0.17108 0.973457,-0.0468 1.172998,0.27621 0.853732,1.38138 -2.701545,0.48908 -3.616788,-0.90774 z m 9.136232,-2.53212 c -0.779099,-0.58888 -1.881124,-0.78892 -3.068911,-0.55701 -1.396969,0.27258 -1.626596,0.20371 -0.932642,-0.27983 1.285908,-0.89614 3.236772,-0.81495 4.613842,0.19211 0.641141,0.46882 1.591581,0.71896 2.112128,0.55589 0.833324,-0.26098 0.836405,-0.21749 0.02537,0.36577 -1.169953,0.84159 -1.285908,0.82991 -2.750116,-0.27693 z m -3.067135,-4.47455 c 15.65175,-7.40459 15.901493,-29.744608 0.417532,-37.348269 -3.046401,-1.495997 -4.21639,-1.718846 -9.024263,-1.718846 -6.055758,0 -9.288253,1.120838 -13.748152,4.767096 -1.496795,1.223707 -1.351878,1.001729 0.44885,-0.687611 7.260182,-6.811078 19.873214,-6.724302 27.56318,0.189573 11.415677,10.263667 8.755272,28.763107 -5.071065,35.262247 -1.50408,0.707 -3.082938,1.28525 -3.508626,1.28496 -0.425652,-2.5e-4 0.889508,-0.7874 2.922544,-1.74922 z m 8.624674,-1.917 c 0.369686,-0.36969 1.294897,-0.38984 2.424471,-0.0529 1.805222,0.53867 1.798226,0.54567 -0.59779,0.59783 -1.573131,0.0326 -2.214563,-0.15731 -1.826681,-0.54505 z m 6.092476,-7.99524 c 0.675178,-0.28998 1.641892,-0.54266 2.148267,-0.56122 0.81839,-0.029 0.81839,0.0326 0,0.56122 -0.506375,0.32731 -1.473089,0.57981 -2.148267,0.56125 l -1.22755,-0.0326 1.22755,-0.52751 z m 0.920681,-8.24292 c 0,-0.16891 0.552408,-0.60254 1.227586,-0.96389 0.675177,-0.36138 1.227586,-0.51888 1.227586,-0.35015 0,0.16891 -0.552409,0.60254 -1.227586,0.96389 -0.675178,0.36138 -1.227586,0.51888 -1.227586,0.35015 z M 34.387655,96.090005 c 0.74673,-1.13965 0.822777,-1.784271 0.321151,-2.721698 -0.859966,-1.60695 -0.830171,-2.33929 0.109829,-2.698536 0.539396,-0.206247 0.759598,0.457948 0.74151,2.236057 -0.029,2.730362 -0.68906,4.677456 -1.588536,4.677456 -0.309189,0 -0.121791,-0.671988 0.416155,-1.493279 z m 6.240438,-5.573234 c 0.787073,-0.551285 1.403784,-1.734033 1.5176,-2.910474 0.139914,-1.445541 0.523918,-2.021763 1.419298,-2.129454 0.675178,-0.08119 0.882331,0.0072 0.46034,0.199722 -0.421954,0.191023 -0.767209,1.137149 -0.767209,2.102632 0,1.66886 -1.820845,3.666374 -3.342107,3.666374 -0.337462,0 -0.01812,-0.417895 0.712078,-0.928655 z m 28.409082,0.314989 c 0.506374,-0.327313 1.196885,-0.594999 1.534455,-0.594999 0.337462,0 0.19936,0.267867 -0.307014,0.594999 -0.506374,0.327313 -1.196885,0.594962 -1.534455,0.594962 -0.337462,0 -0.19936,-0.267867 0.307014,-0.594962 z m -8.450578,-4.296533 c 0.421628,-0.675142 1.0192,-1.22755 1.327882,-1.22755 0.308827,0 0.06126,0.552408 -0.549653,1.22755 -0.611021,0.675178 -1.208593,1.227586 -1.327919,1.227586 -0.119253,0 0.127953,-0.552408 0.54969,-1.227586 z m -9.246351,-1.258904 c 0.359211,-1.029966 0.772429,-1.753063 0.918615,-1.606877 0.431306,0.431306 -0.493906,3.479592 -1.056137,3.479592 -0.283453,0 -0.221471,-0.842713 0.137377,-1.872715 z"
         id="path3353"
         inkscape:connector-curvature="0" />
      <path
         style="fill:#2f354a;stroke-width:0.613787"
         d="m 47.350039,137.68407 c -0.225096,-0.2251 -0.404991,-0.70842 -0.399808,-1.07416 0.0072,-0.44997 0.155139,-0.43986 0.460341,0.0326 0.247931,0.38295 1.00336,0.83426 1.678502,1.00292 1.187388,0.29687 1.18572,0.30919 -0.05111,0.37792 -0.703306,0.0391 -1.462867,-0.1131 -1.68789,-0.33819 z m 8.547141,-1.1253 c -0.628927,-0.95986 -1.632178,-1.56577 -2.679181,-1.61804 -1.542031,-0.0772 -1.559864,-0.10512 -0.226545,-0.35813 0.960553,-0.18232 1.992657,0.23307 3.068947,1.23459 0.8919,0.8301 2.035973,1.66001 2.542347,1.84426 0.625265,0.22763 0.500176,0.35051 -0.389767,0.38349 -0.757387,0.029 -1.734721,-0.59913 -2.315838,-1.48603 z m -9.521685,-1.67035 c -0.029,-0.64465 -0.826184,-1.28116 -2.043258,-1.63257 -1.333138,-0.38491 -1.575633,-0.59435 -0.731108,-0.63132 1.706993,-0.0747 3.588733,1.38348 3.165728,2.45329 -0.255544,0.64654 -0.355224,0.59833 -0.391362,-0.18958 z m -7.675974,-0.79798 c -0.65053,-0.49213 -1.064836,-1.01199 -0.920681,-1.1552 0.144264,-0.14318 0.91412,0.26823 1.711089,0.91434 1.678792,1.36101 0.974072,1.57577 -0.790408,0.24104 z m 26.475617,-0.0446 c -0.957363,-0.5191 -2.311923,-0.76141 -3.068947,-0.54901 -1.06654,0.29941 -1.159079,0.24286 -0.43446,-0.26424 1.351334,-0.94609 2.57033,-0.78602 4.296497,0.56419 1.830197,1.43159 1.549933,1.51963 -0.79309,0.24902 z m -26.778862,-3.427 c -0.02537,-0.56626 -0.776235,-1.60202 -1.665707,-2.3017 -0.889471,-0.69968 -1.35195,-1.27214 -1.027682,-1.27214 1.023623,0 3.404705,2.94509 3.066047,3.7923 -0.222195,0.55563 -0.339274,0.48684 -0.372658,-0.21857 z m -7.099643,-3.55064 c -0.210234,-0.66242 -0.09062,-1.74907 0.265693,-2.41479 0.903427,-1.68804 0.808966,-2.88362 -0.316801,-4.00931 -0.530479,-0.53048 -0.662673,-0.96454 -0.293603,-0.96454 1.359889,0 2.096832,2.8859 1.255569,4.9168 -0.839668,2.0272 -0.49695,2.74928 1.537174,3.23854 0.948917,0.22836 0.853804,0.31137 -0.418982,0.3665 -1.135663,0.0493 -1.765169,-0.30267 -2.028796,-1.1332 z m 36.845851,-1.89482 c 1.702208,-1.84006 3.465637,-4.25206 3.918764,-5.36003 0.453127,-1.10797 0.945147,-1.8932 1.093399,-1.74498 0.804508,0.80454 -3.520371,6.96013 -6.464011,9.20021 -0.903717,0.68768 -0.250469,-0.25518 1.451848,-2.0952 z m 3.810167,2.6927 c 0.421991,-0.17037 1.112501,-0.17037 1.534455,0 0.421991,0.17036 0.07685,0.30955 -0.767209,0.30955 -0.843981,0 -1.189237,-0.13919 -0.767246,-0.30955 z m 4.296497,-7.97922 c 0.421991,-0.17036 1.112501,-0.17036 1.534492,0 0.421954,0.17036 0.07684,0.30955 -0.767246,0.30955 -0.843945,0 -1.1892,-0.13919 -0.767246,-0.30955 z m -48.9495,-0.80179 c 0,-0.32695 0.414306,-0.43555 0.92068,-0.24141 0.506375,0.19429 0.920681,0.46183 0.920681,0.59449 0,0.13267 -0.414306,0.24141 -0.920681,0.24141 -0.506374,0 -0.92068,-0.26751 -0.92068,-0.59449 z m 0.613775,-2.78133 c 0.792872,-0.84394 1.579655,-1.53445 1.748459,-1.53445 0.168912,0 -0.341812,0.69051 -1.134648,1.53445 -0.792873,0.84395 -1.579656,1.53446 -1.748459,1.53446 -0.168913,0 0.341811,-0.69051 1.134648,-1.53446 z m 45.727154,-5.52408 c 0,-3.51943 0.187761,-5.92592 0.41717,-5.34774 0.229445,0.57818 0.417206,2.98467 0.417206,5.34774 0,2.36307 -0.187761,4.76956 -0.417206,5.34774 -0.229445,0.57818 -0.41717,-1.82831 -0.41717,-5.34774 z m -44.499568,1.0192 c 0,-0.28345 -0.690511,-0.82988 -1.534456,-1.21443 -1.490777,-0.6792 -2.10187,-2.75751 -1.009341,-3.43269 0.288891,-0.1787 0.405063,0.30339 0.258443,1.07071 -0.199722,1.04414 0.131578,1.57683 1.316247,2.11655 1.349014,0.61465 2.227974,1.97512 1.276085,1.97512 -0.168912,0 -0.307014,-0.23199 -0.307014,-0.51526 z m 0.666333,-5.92951 c 0.0638,-1.16263 1.086874,-3.12038 1.122505,-2.14823 0.01812,0.50638 -0.234157,1.33499 -0.561252,1.84136 -0.327313,0.50638 -0.579811,0.64448 -0.561253,0.30702 z m 41.734229,-4.94391 C 69.70195,97.457796 65.46595,93.53856 61.809326,91.921063 60.24725,91.230081 56.884301,90.444385 54.336046,90.175104 l -4.633161,-0.489664 4.636967,0.166375 c 5.629055,0.201897 10.1061,2.060077 13.904668,5.771036 2.326929,2.273247 5.501392,7.276929 4.960112,7.818209 -0.118167,0.11817 -0.866455,-1.01391 -1.663061,-2.51552 z m -42.092787,0.34145 c -0.919883,-1.01648 -0.98549,-1.463336 -0.383025,-2.608605 0.409703,-0.778845 0.587786,-0.899186 0.408036,-0.275842 -0.175437,0.608483 0.123966,1.782347 0.665391,2.608607 1.190034,1.81617 0.832817,1.95884 -0.690402,0.27584 z m 4.876127,-4.760351 c 0.977734,-1.177529 1.038085,-1.626379 0.405426,-3.014866 -0.630231,-1.383232 -0.580138,-1.779632 0.329487,-2.606106 0.983824,-0.894002 1.010393,-0.891465 0.320789,0.029 -0.589707,0.788704 -0.591737,1.356626 -0.01087,2.634596 0.658106,1.444417 0.575716,1.782894 -0.726322,2.984201 l -1.468594,1.354995 1.148712,-1.383522 z m 6.478038,-5.926029 c 0,-0.116716 0.414307,-0.556323 0.920681,-0.976574 0.530696,-0.440404 0.92068,-0.500067 0.92068,-0.140639 0,0.342899 -0.414306,0.782252 -0.92068,0.976574 -0.506374,0.194285 -0.920681,0.257718 -0.920681,0.140639 z m 7.250359,-0.168187 c 0.443087,-0.177249 0.972478,-0.155501 1.176441,0.04857 0.204072,0.204072 -0.158763,0.349061 -0.805595,0.322238 -0.71505,-0.029 -0.860474,-0.174712 -0.370846,-0.370846 z m 12.697743,-3.877225 c 0.61102,-0.675142 1.249044,-1.22755 1.417811,-1.22755 0.168913,0 -0.193198,0.552408 -0.804036,1.22755 -0.611021,0.675178 -1.249045,1.227586 -1.417848,1.227586 -0.168913,0 0.193198,-0.552408 0.804073,-1.227586 z m -9.781143,-0.179786 c 0.230533,-0.60533 0.573685,-0.945981 0.762679,-0.757025 0.188848,0.188849 3.98e-4,0.68424 -0.419091,1.100612 -0.606163,0.601669 -0.676664,0.531168 -0.343624,-0.343624 z"
         id="path3351"
         inkscape:connector-curvature="0" />
      <path
         style="fill:#262b3a;stroke-width:0.613787"
         d="m 57.260113,137.67395 c 0.443087,-0.17725 0.972478,-0.1555 1.176441,0.0486 0.204072,0.20408 -0.1584,0.34907 -0.805595,0.32224 -0.71505,-0.029 -0.860474,-0.17471 -0.370846,-0.37084 z m -1.80457,-1.88243 c -0.763476,-0.97349 -0.741764,-0.9952 0.23162,-0.23162 0.590758,0.46332 1.074115,0.94667 1.074115,1.07412 0,0.50518 -0.504018,0.18015 -1.30588,-0.84239 z m -18.41361,-7.36544 c -0.763439,-0.97349 -0.741764,-0.99521 0.23162,-0.23162 1.022391,0.80183 1.347529,1.30588 0.842387,1.30588 -0.127591,0 -0.610839,-0.48336 -1.074152,-1.07415 z m -5.458076,-1.08894 c -0.427029,-0.51453 -0.657562,-1.0544 -0.512283,-1.19968 0.145352,-0.14535 0.601306,0.27585 1.013365,0.93555 0.891103,1.42687 0.593911,1.58353 -0.501082,0.26424 z m 37.453318,-2.97895 c 0,-0.12759 0.483357,-0.61083 1.074115,-1.07415 0.973493,-0.76344 0.995205,-0.74172 0.23162,0.23162 -0.801826,1.02239 -1.305844,1.34757 -1.305844,0.84239 z M 26.168987,108.63145 c 0,-0.84395 0.139189,-1.1892 0.309552,-0.76721 0.170362,0.42195 0.170362,1.11246 0,1.53446 -0.170363,0.42199 -0.309552,0.0768 -0.309552,-0.76725 z m 3.507503,-7.21197 c -0.76344,-0.97353 -0.741764,-0.99521 0.23162,-0.23162 0.590757,0.46331 1.074115,0.94667 1.074115,1.07415 0,0.50514 -0.504018,0.18015 -1.30588,-0.84239 z m 41.904373,-0.61381 c -0.669777,-1.565161 -0.654626,-1.601264 0.208422,-0.49648 0.511884,0.65531 0.930684,1.41487 0.930684,1.68792 0,0.9329 -0.416372,0.49739 -1.139034,-1.19144 z m -3.771274,-4.756842 c -1.490922,-1.519122 -2.57265,-2.762041 -2.403846,-2.762041 0.168912,0 1.526735,1.242919 3.017621,2.762041 1.490922,1.519123 2.572649,2.762042 2.403846,2.762042 -0.168912,0 -1.526699,-1.242919 -3.017621,-2.762042 z m -5.524083,-3.989627 c -0.553206,-0.357398 -0.62889,-0.598732 -0.189573,-0.604387 0.402055,-0.0036 0.901723,0.26678 1.110362,0.604387 0.470961,0.762062 0.258443,0.762062 -0.92068,0 z"
         id="path3349"
         inkscape:connector-curvature="0" />
    </g>
    <g
       id="g4211"
       transform="translate(2.6726953,-7.4835468)">
      <flowRoot
         transform="translate(5.2916669,-59.795865)"
         style="font-style:normal;font-variant:normal;font-weight:normal;font-stretch:normal;font-size:35.27777481px;line-height:125%;font-family:'Chaparral Pro';-inkscape-font-specification:'Chaparral Pro';letter-spacing:26.45833206px;word-spacing:0px;fill:#000000;fill-opacity:1;stroke:#000000;stroke-width:0.60000002;stroke-linecap:butt;stroke-linejoin:round;stroke-miterlimit:4;stroke-dasharray:none;stroke-opacity:1;filter:url(#filter4207)"
         id="flowRoot3365-1"
         xml:space="preserve"><flowRegion
           style="font-style:normal;font-variant:normal;font-weight:normal;font-stretch:normal;font-size:35.27777481px;font-family:'Chaparral Pro';-inkscape-font-specification:'Chaparral Pro';letter-spacing:26.45833206px;fill:#000000;stroke:#000000;stroke-width:0.60000002;stroke-linejoin:round;stroke-miterlimit:4;stroke-dasharray:none;stroke-opacity:1"
           id="flowRegion3367-9"><rect
             style="font-style:normal;font-variant:normal;font-weight:normal;font-stretch:normal;font-size:35.27777481px;font-family:'Chaparral Pro';-inkscape-font-specification:'Chaparral Pro';letter-spacing:26.45833206px;fill:#000000;stroke:#000000;stroke-width:0.15875;stroke-linejoin:round;stroke-miterlimit:4;stroke-dasharray:none;stroke-opacity:1"
             y="211.36105"
             x="8.1232252"
             height="97.279709"
             width="363.44208"
             id="rect3369-4" /></flowRegion><flowPara
           style="font-style:normal;font-variant:normal;font-weight:normal;font-stretch:normal;font-size:35.27777481px;font-family:'Phetsarath OT';-inkscape-font-specification:'Phetsarath OT';fill:#000000;stroke:#000000;stroke-width:0.60000002;stroke-linejoin:round;stroke-miterlimit:4;stroke-dasharray:none;stroke-opacity:1"
           id="flowPara3371-5">RugueL</flowPara></flowRoot>      <g
         id="g4221">
        <flowRoot
           xml:space="preserve"
           id="flowRoot3365"
           style="font-style:normal;font-variant:normal;font-weight:normal;font-stretch:normal;font-size:133.33332825px;line-height:125%;font-family:'Chaparral Pro';-inkscape-font-specification:'Chaparral Pro';letter-spacing:100px;word-spacing:0px;fill:#ffffff;fill-opacity:1;stroke:#000000;stroke-width:2.26771665;stroke-linecap:butt;stroke-linejoin:round;stroke-miterlimit:4;stroke-dasharray:none;stroke-opacity:1"
           transform="matrix(0.26458333,0,0,0.26458333,1.3607141,80.192858)"><flowRegion
             id="flowRegion3367"
             style="font-style:normal;font-variant:normal;font-weight:normal;font-stretch:normal;font-size:133.33332825px;font-family:'Chaparral Pro';-inkscape-font-specification:'Chaparral Pro';letter-spacing:100px;fill:#ffffff;stroke:#000000;stroke-width:2.26771665;stroke-linejoin:round;stroke-miterlimit:4;stroke-dasharray:none;stroke-opacity:1"><rect
               id="rect3369"
               width="1373.6394"
               height="367.67136"
               x="54.932041"
               y="262.61435"
               style="font-style:normal;font-variant:normal;font-weight:normal;font-stretch:normal;font-size:133.33332825px;font-family:'Chaparral Pro';-inkscape-font-specification:'Chaparral Pro';letter-spacing:100px;fill:#ffffff;stroke:#000000;stroke-width:2.26771665;stroke-linejoin:round;stroke-miterlimit:4;stroke-dasharray:none;stroke-opacity:1" /></flowRegion><flowPara
             id="flowPara3371"
             style="font-style:normal;font-variant:normal;font-weight:normal;font-stretch:normal;font-size:133.33332825px;font-family:'Phetsarath OT';-inkscape-font-specification:'Phetsarath OT';fill:#ffffff;stroke:#000000;stroke-width:2.26771665;stroke-linejoin:round;stroke-miterlimit:4;stroke-dasharray:none;stroke-opacity:1">RugueL</flowPara></flowRoot>      </g>
    </g>
    <flowRoot
       xml:space="preserve"
       id="flowRoot3373-9"
       style="font-style:normal;font-variant:normal;font-weight:normal;font-stretch:normal;font-size:16.93333244px;line-height:125%;font-family:Aegean;-inkscape-font-specification:Aegean;letter-spacing:0px;word-spacing:0px;fill:#374548;fill-opacity:1;stroke:none;stroke-width:0.26458332px;stroke-linecap:butt;stroke-linejoin:miter;stroke-opacity:1;filter:url(#filter4256)"
       transform="translate(121.46455,107.58753)"><flowRegion
         id="flowRegion3375-7"
         style="font-size:16.93333244px;fill:#374548;stroke-width:0.26458332px"><rect
           id="rect3377-4"
           width="162.424"
           height="21.35428"
           x="-0.60790938"
           y="79.723396"
           style="font-size:16.93333244px;fill:#374548;stroke-width:0.07000434px" /></flowRegion><flowPara
         id="flowPara3379-0"
         style="font-style:normal;font-variant:normal;font-weight:normal;font-stretch:normal;font-size:12.69999981px;font-family:'Phetsarath OT';-inkscape-font-specification:'Phetsarath OT';fill:#374548;stroke-width:0.26458332px">Capacitación y Consultoria</flowPara></flowRoot>    <flowRoot
       xml:space="preserve"
       id="flowRoot3373"
       style="font-style:normal;font-variant:normal;font-weight:normal;font-stretch:normal;font-size:16.93333244px;line-height:125%;font-family:Aegean;-inkscape-font-specification:Aegean;letter-spacing:0px;word-spacing:0px;fill:#ffffff;fill-opacity:1;stroke:#000000;stroke-width:0.30000001;stroke-linecap:butt;stroke-linejoin:miter;stroke-miterlimit:4;stroke-dasharray:none;stroke-opacity:1"
       transform="translate(93.133348,-11.188095)"><flowRegion
         id="flowRegion3375"
         style="font-size:16.93333244px;fill:#ffffff;stroke:#000000;stroke-width:0.30000001;stroke-miterlimit:4;stroke-dasharray:none;stroke-opacity:1"><rect
           id="rect3377"
           width="162.424"
           height="21.35428"
           x="29.361134"
           y="197.02667"
           style="font-size:16.93333244px;fill:#ffffff;stroke:#000000;stroke-width:0.30000001;stroke-miterlimit:4;stroke-dasharray:none;stroke-opacity:1" /></flowRegion><flowPara
         id="flowPara3379"
         style="font-style:normal;font-variant:normal;font-weight:normal;font-stretch:normal;font-size:12.69999981px;font-family:'Phetsarath OT';-inkscape-font-specification:'Phetsarath OT';fill:#ffffff;stroke:#000000;stroke-width:0.30000001;stroke-miterlimit:4;stroke-dasharray:none;stroke-opacity:1">Capacitación y Consultoria</flowPara></flowRoot>  </g>
</svg>
