<?xml version="1.0" encoding="UTF-8" standalone="no"?>
<!-- Created with Inkscape (http://www.inkscape.org/) -->

<svg
   xmlns:dc="http://purl.org/dc/elements/1.1/"
   xmlns:cc="http://creativecommons.org/ns#"
   xmlns:rdf="http://www.w3.org/1999/02/22-rdf-syntax-ns#"
   xmlns:svg="http://www.w3.org/2000/svg"
   xmlns="http://www.w3.org/2000/svg"
   xmlns:sodipodi="http://sodipodi.sourceforge.net/DTD/sodipodi-0.dtd"
   xmlns:inkscape="http://www.inkscape.org/namespaces/inkscape"
   width="200mm"
   height="200mm"
   viewBox="0 0 708.66142 708.66141"
   id="svg2"
   version="1.1"
   inkscape:version="0.91 r13725"
   sodipodi:docname="julialogo.svg"
   inkscape:export-filename="/home/paul/Repositorios/jhossepaul.github.io/src/img/julialogo"
   inkscape:export-xdpi="90"
   inkscape:export-ydpi="90">
  <defs
     id="defs4" />
  <sodipodi:namedview
     id="base"
     pagecolor="#ffffff"
     bordercolor="#666666"
     borderopacity="1.0"
     inkscape:pageopacity="0.0"
     inkscape:pageshadow="2"
     inkscape:zoom="0.49497475"
     inkscape:cx="420.77147"
     inkscape:cy="610.44271"
     inkscape:document-units="cm"
     inkscape:current-layer="layer1"
     showgrid="false"
     inkscape:window-width="1366"
     inkscape:window-height="744"
     inkscape:window-x="0"
     inkscape:window-y="24"
     inkscape:window-maximized="1" />
  <metadata
     id="metadata7">
    <rdf:RDF>
      <cc:Work
         rdf:about="">
        <dc:format>image/svg+xml</dc:format>
        <dc:type
           rdf:resource="http://purl.org/dc/dcmitype/StillImage" />
        <dc:title></dc:title>
      </cc:Work>
    </rdf:RDF>
  </metadata>
  <g
     inkscape:label="Capa 1"
     inkscape:groupmode="layer"
     id="layer1"
     transform="translate(0,-343.70079)">
    <path
       style="fill:#000080"
       d="m 171.77507,1042.6359 c -1.05375,-1.6083 -3.02795,-2.9131 -4.4075,-2.9131 -4.06035,0 -5.51206,-3.5813 -3.30164,-8.1453 1.02923,-2.125 2.07273,-3.259 2.31911,-2.5201 0.89518,2.6857 2.58413,1.2552 2.58413,-2.1888 0,-4.0851 1.86299,-5.1874 6.06643,-3.5893 2.24006,0.8517 3.62409,0.674 5.61563,-0.7209 2.44589,-1.7131 2.76041,-1.6904 4.21966,0.3053 0.86732,1.1861 1.5769,3.4545 1.5769,5.0411 0,1.5865 0.28115,2.6033 0.62494,2.2596 1.23497,-1.2351 9.28838,2.3863 9.68568,4.3553 0.22344,1.107 -1.00015,3.3167 -2.71893,4.9103 -2.74102,2.5418 -3.81165,2.8068 -8.71265,2.1566 -4.95582,-0.6574 -5.65711,-0.4754 -6.20253,1.6106 -0.862,3.2963 -5.03021,2.978 -7.34923,-0.5613 z m -35.72779,-7.4693 c -4.0514,-4.2925 -4.55805,-11.6203 -0.87011,-12.5847 2.52885,-0.6613 3.16909,-3.3597 0.97097,-4.0924 -0.74771,-0.2491 -1.35941,-2.1357 -1.35941,-4.1922 0,-2.8502 -0.43869,-3.6174 -1.845,-3.2267 -9.54789,2.6523 -9.60289,2.6207 -11.20394,-6.4336 -0.57264,-3.2387 -0.31881,-4.3701 1.10316,-4.9157 1.01581,-0.3898 1.84705,-1.4933 1.84705,-2.4522 0,-2.502 3.6074,-4.05831 6.70014,-2.8906 1.76799,0.6677 2.62179,1.9509 2.62179,3.9407 0,1.6229 0.52436,2.9507 1.16524,2.9507 0.64088,0 1.16524,0.7866 1.16524,1.7478 0,2.5353 1.95472,2.1453 2.65424,-0.5295 0.73969,-2.8287 6.25529,-4.3669 9.15823,-2.554 3.16042,1.9738 5.12157,1.7397 3.3463,-0.3993 -0.79199,-0.9543 -1.84994,-1.4817 -2.35109,-1.172 -1.65678,1.0239 -2.24295,-2.794 -0.98365,-6.40641 0.92232,-2.64594 0.87337,-3.99295 -0.19184,-5.27647 -2.04393,-2.46278 0.64508,-5.53277 3.9717,-4.53439 4.10706,1.23259 9.76332,7.44796 10.33737,11.35906 0.61581,4.19531 -1.16785,7.80841 -3.42674,6.94171 -0.84718,-0.3251 -1.53216,0.1205 -1.52237,0.9901 0.0317,2.7779 1.64859,4.1877 4.64316,4.0478 2.20511,-0.103 3.00558,0.5167 3.29381,2.5498 0.20947,1.4773 -0.24805,3.4437 -1.01655,4.3697 -1.37722,1.6594 -0.22858,4.2914 2.84477,6.5185 2.94424,2.1335 -4.06492,7.5973 -7.87209,6.1364 -1.1411,-0.4379 -1.51304,0.2214 -1.28689,2.2814 0.38285,3.488 -1.26508,4.2854 -6.5536,3.1708 -2.53995,-0.5354 -3.87401,-1.4492 -3.69531,-2.5314 0.29495,-1.7861 -4.1133,-5.2032 -5.24834,-4.0681 -0.36486,0.3648 -0.0382,0.6633 0.72497,0.6633 2.76815,0 3.88305,5.9179 1.90158,10.0936 -2.27334,4.7907 -4.83771,4.9323 -9.02279,0.4983 z m 12.53017,-11.7571 c 0.39609,-0.6409 0.16481,-1.1653 -0.51392,-1.1653 -0.67864,0 -1.23394,0.5244 -1.23394,1.1653 0,0.6408 0.23118,1.1652 0.51382,1.1652 0.28264,0 0.83795,-0.5244 1.23404,-1.1652 z m -7.57407,-2.9131 c 0,-0.9613 -0.52436,-1.7479 -1.16524,-1.7479 -0.64089,0 -1.16524,0.7866 -1.16524,1.7479 0,0.9613 0.52435,1.7478 1.16524,1.7478 0.64088,0 1.16524,-0.7865 1.16524,-1.7478 z m -2.33048,-12.9031 c 0,-1.0852 -0.79283,-1.6795 -1.94269,-1.4565 -2.92327,0.5669 -3.32467,3.2898 -0.48493,3.2898 1.43129,0 2.42762,-0.7524 2.42762,-1.8333 z m 3.49572,0.668 c 0,-0.6409 -0.52436,-1.1652 -1.16524,-1.1652 -0.64088,0 -1.16524,0.5243 -1.16524,1.1652 0,0.6409 0.52436,1.1653 1.16524,1.1653 0.64088,0 1.16524,-0.5244 1.16524,-1.1653 z m 28.32254,3.9111 c -0.76514,-0.3112 -1.12823,-1.2509 -0.807,-2.0881 0.32133,-0.8372 -0.23249,-1.8356 -1.23068,-2.2186 -2.27604,-0.8735 -2.32629,-4.5573 -0.12034,-8.823 1.57494,-3.0458 5.74268,-4.6964 11.99713,-4.7514 2.21201,-0.02 1.98026,12.677 -0.24703,13.5316 -0.93685,0.3596 -2.0209,1.654 -2.40897,2.8766 -0.67398,2.1235 -3.93852,2.7928 -7.18311,1.4729 z m -62.63377,-38.11637 c -1.50913,-1.50909 -3.51698,-3.04047 -4.46185,-3.40305 -1.91342,-0.73424 -3.683467,-9.81772 -2.50946,-12.87734 0.93965,-2.44851 4.68044,-2.55008 5.6007,-0.15206 0.53406,1.39189 1.20309,1.52352 2.96112,0.58262 3.77491,-2.02026 4.73777,-1.44857 7.18823,4.26804 2.32703,5.42867 2.32778,5.50154 0.083,7.28276 -1.24728,0.98958 -2.62114,2.97903 -3.05303,4.42102 -0.9995,3.33724 -2.37812,3.30829 -5.8084,-0.12199 z m -40.873777,0.68677 c -3.20124,-2.29879 -5.34491,-7.52547 -4.56373,-11.12708 0.44279,-2.04155 1.24382,-3.99285 1.78011,-4.33623 1.11705,-0.71522 0.0196,-5.98433 -1.10903,-5.3256 -0.40774,0.23799 -1.921249,-0.0131 -3.363165,-0.55817 -4.932141,-1.86405 -2.730394,-9.22267 2.759475,-9.22267 3.84483,0 6.27115,-1.20192 6.27115,-3.10654 0,-0.93058 -0.52436,-1.36789 -1.16525,-0.9718 -2.44831,1.51309 -1.02354,-1.99052 1.91799,-4.71661 3.71992,-3.44749 5.14086,-3.5456 8.73139,-0.60287 2.42789,1.98987 2.57201,2.54785 1.22742,4.75228 -2.13762,3.50457 0.0317,5.93435 4.50025,5.04064 2.81653,-0.56331 3.5813,-0.17711 4.75633,2.40185 1.24932,2.74201 1.06074,3.42744 -1.75122,6.36243 -2.72843,2.84791 -2.98945,3.71527 -1.94483,6.46278 1.7721,4.66111 1.59591,5.01978 -2.87871,5.85921 -4.45187,0.83517 -6.98455,-0.15855 -6.98455,-2.74041 0,-0.90791 -0.64181,-1.86468 -1.42635,-2.12618 -1.08013,-0.36003 -1.14231,0.33915 -0.25616,2.88101 0.87961,2.52337 0.72366,4.42482 -0.62858,7.66109 -1.74954,4.18727 -3.43234,5.16521 -5.87254,3.41287 z m 71.909277,-3.43565 c -1.48116,-0.28287 -2.98525,-1.2758 -3.34238,-2.20652 -0.37837,-0.98595 -1.49784,-1.42291 -2.68229,-1.04698 -3.02897,0.96136 -8.63005,-6.77384 -7.6712,-10.59409 0.39954,-1.59205 1.26331,-2.56287 1.91938,-2.15738 0.65618,0.4055 2.14424,-0.35959 3.30696,-1.70021 2.4897,-2.87066 5.066,-3.12146 7.08429,-0.68961 0.79778,0.96133 2.41699,1.74787 3.59827,1.74787 1.69724,0 2.30969,1.22169 2.92047,5.8262 0.42508,3.20442 1.22975,5.82621 1.78804,5.82621 1.79167,0 1.08227,4.38588 -0.82807,5.11891 -1.01376,0.38902 -2.19354,0.63589 -2.62179,0.54861 -0.42825,-0.0872 -1.99052,-0.39013 -3.47168,-0.67301 z m 36.77642,-10.45871 c -1.12162,-0.29308 -2.03917,-1.01879 -2.03917,-1.61268 0,-0.5939 -0.72544,-1.07981 -1.61204,-1.07981 -2.36395,0 -3.12164,-4.42185 -1.10344,-6.44004 0.95596,-0.95593 2.2202,-1.44012 2.80935,-1.07596 0.58924,0.36414 1.07137,-0.37469 1.07137,-1.64186 0,-1.26717 0.35125,-3.21939 0.78062,-4.33827 0.49369,-1.28654 0.32804,-1.7546 -0.45063,-1.27338 -0.67714,0.41853 -1.8792,-0.0199 -2.67119,-0.97407 -0.7919,-0.95427 -2.16223,-1.73504 -3.04511,-1.73504 -2.00421,0 -2.11141,-3.97952 -0.14859,-5.51523 2.43629,-1.90624 6.61568,-2.50298 10.24341,-1.46256 3.19304,0.91575 3.35216,0.81911 2.19904,-1.33558 -0.81987,-1.53201 -0.85259,-2.79328 -0.0961,-3.70484 0.63081,-0.76014 1.16384,-1.90642 1.18454,-2.54731 0.0205,-0.64088 0.87691,-1.33962 1.90288,-1.55277 4.04171,-0.83964 8.86525,6.75645 6.27348,9.87935 -1.69557,2.04303 -0.82099,3.0392 1.78897,2.03767 1.08992,-0.41823 1.7212,-1.43911 1.40286,-2.26863 -0.63669,-1.65922 4.85626,-4.01727 9.358,-4.01727 2.9682,0 3.32131,1.45924 1.97821,8.17486 -0.61152,3.05746 -1.65949,4.15815 -5.33345,5.60131 -4.26516,1.67538 -4.5257,2.0451 -3.87746,5.50101 0.94534,5.03907 -1.41041,6.88551 -7.53519,5.9061 -4.18704,-0.66953 -4.78728,-0.45755 -5.73066,2.02364 -0.83478,2.19561 -4.09568,4.82206 -5.11457,4.11943 -0.10776,-0.0743 -1.11369,-0.37498 -2.23521,-0.66807 z m -65.25352,-10.95097 c -2.50471,-4.40069 -2.53603,-5.66183 -0.22242,-8.96496 1.49561,-2.13526 2.23223,-2.37152 4.16653,-1.33631 2.12186,1.13556 2.22757,1.02923 1.09011,-1.09625 -0.6929,-1.29458 -1.78599,-2.67902 -2.4292,-3.07652 -1.80594,-1.11619 -5.80943,0.55103 -5.80943,2.41932 0,0.91813 -0.52436,1.66934 -1.16524,1.66934 -0.64089,0 -1.16524,0.72538 -1.16524,1.61196 0,2.90354 -10.910577,4.33262 -11.971407,1.56804 -0.94776,-2.46989 3.75515,-13.49123 6.07044,-14.22607 1.175587,-0.37312 3.517347,-0.0496 5.203967,0.71882 2.64258,1.20402 3.30042,1.08817 4.75782,-0.8379 2.29776,-3.03673 2.24975,-3.19436 -1.68,-5.51571 -3.64907,-2.15557 -3.69056,-4.67819 -0.12259,-7.46085 2.48709,-1.93971 8.32682,-1.78608 11.07343,0.29132 1.24401,0.94094 1.63731,1.7108 0.87393,1.7108 -0.76337,0 -1.38794,0.56084 -1.38794,1.24629 0,0.68545 1.17978,1.07872 2.62179,0.87393 1.66229,-0.23609 2.62394,-1.18011 2.62767,-2.57959 0,-1.21397 0.89733,-2.7695 1.98678,-3.45672 1.55015,-0.97775 2.57882,-0.68779 4.73014,1.33329 3.36605,3.16224 4.34281,3.19416 9.24446,0.30213 2.12596,-1.25438 4.43491,-1.90982 5.13098,-1.45655 0.69607,0.45326 1.59153,3.26519 1.98995,6.2487 0.55811,4.17966 0.33186,5.57523 -0.98607,6.08096 -0.94077,0.36099 -1.7185,1.85261 -1.72829,3.31473 -0.0103,1.57261 -0.36747,2.1125 -0.87393,1.32189 -0.47085,-0.73506 -2.15402,-1.5216 -3.74042,-1.74786 -2.14246,-0.30558 -2.99924,0.18808 -3.33082,1.91908 -0.24554,1.28176 -0.0718,1.96873 0.38676,1.5266 1.20375,-1.16152 3.8921,1.68698 3.22726,3.41954 -0.30874,0.80447 0.0196,1.46269 0.7286,1.46269 0.70949,0 1.28997,-0.51089 1.28997,-1.13532 0,-0.62443 1.66294,-1.99528 3.69549,-3.04633 3.42115,-1.76916 3.93479,-1.76961 6.92014,-0.006 1.77349,1.04768 3.65,1.83207 4.16988,1.7431 2.54498,-0.43551 3.8549,0.30268 3.82125,2.1534 -0.0513,2.8083 -2.74801,6.11752 -4.98574,6.11752 -1.01908,0 -2.27213,0.70701 -2.78465,1.57113 -1.12656,1.89945 -8.68515,3.25416 -10.81437,1.93823 -1.00891,-0.62357 -1.28093,-2.16704 -0.80299,-4.55666 0.81045,-4.05253 -0.32487,-4.52224 -5.27939,-2.18409 -2.55104,1.2039 -2.93603,2.00449 -2.43833,5.07116 0.43142,2.65843 0.083,3.83659 -1.29156,4.36393 -2.39517,0.91914 -7.60669,-1.0371 -9.66432,-3.62771 -1.27496,-1.6052 -1.5206,-1.6472 -1.26126,-0.21568 0.40439,2.23292 -4.13614,8.12937 -6.2524,8.1195 -0.86909,-0.004 -2.49782,-1.61963 -3.61934,-3.59016 z m 11.36111,-8.0549 c 0.39608,-0.64088 -0.12827,-1.16524 -1.16525,-1.16524 -1.03697,0 -1.56133,0.52436 -1.16524,1.16524 0.39609,0.64088 0.92045,1.16524 1.16524,1.16524 0.2448,0 0.76916,-0.52436 1.16525,-1.16524 z m -13.40028,-8.73931 c 0,-0.96132 -0.85081,-1.74786 -1.89058,-1.74786 -1.54837,0 -1.62798,0.31635 -0.4399,1.74786 0.79777,0.96133 1.64849,1.74786 1.89048,1.74786 0.242,0 0.44,-0.78653 0.44,-1.74786 z m 26.80055,-13.40027 c 0,-0.64089 -0.52436,-1.16525 -1.16524,-1.16525 -0.64088,0 -1.16524,0.52436 -1.16524,1.16525 0,0.64088 0.52436,1.16524 1.16524,1.16524 0.64088,0 1.16524,-0.52436 1.16524,-1.16524 z m -43.696547,4.66096 c -0.39609,-0.64088 -1.70703,-1.16524 -2.9131,-1.16524 -1.20617,0 -2.45745,-0.42794 -2.78073,-0.95098 -0.9322,-1.50829 2.37047,-9.98263 4.11488,-10.55838 0.86843,-0.28661 2.10331,-1.14932 2.74419,-1.91712 1.94782,-2.33363 4.99432,-2.84337 6.4574,-1.08046 0.76132,0.91734 1.589387,4.29451 1.840147,7.5048 0.39972,5.11676 0.18289,5.8369 -1.756997,5.8369 -1.21707,0 -2.51469,0.78654 -2.88365,1.74786 -0.76001,1.98054 -3.73604,2.34011 -4.82214,0.58262 z m 66.591677,-8.95474 c -0.41557,-0.41558 -0.75554,-2.18581 -0.75554,-3.93385 0,-2.72759 -0.45445,-3.15648 -3.20442,-3.02469 -1.76249,0.0845 -3.50858,0.57111 -3.88025,1.08144 -0.37167,0.51033 -1.59088,0.57671 -2.70933,0.14752 -1.6909,-0.64887 -1.90838,-1.69119 -1.29024,-6.18559 0.61972,-4.50577 0.3299,-5.88211 -1.74209,-8.27101 l -2.48541,-2.86582 2.54134,-2.05787 c 3.24516,-2.62777 7.66692,-2.64153 9.12934,-0.0284 2.06369,3.68762 2.9325,0.35363 0.97666,-3.74785 -1.15573,-2.42356 -1.46997,-4.29575 -0.79152,-4.7151 0.61897,-0.3825 1.12543,-2.73102 1.12543,-5.21891 0,-5.22012 1.01721,-6.20021 5.31537,-5.12144 2.0361,0.51102 3.65149,2.11498 4.73013,4.69662 0.90097,2.15631 2.21387,3.92055 2.9174,3.92055 1.49924,0 0.31489,7.92994 -1.5151,10.14482 -1.50018,1.81568 -0.28842,3.7083 3.23089,5.04635 3.45023,1.31181 3.67554,5.0562 0.46945,7.80141 -1.41656,1.21283 -2.33048,3.43739 -2.33048,5.67212 0,2.02219 -0.65552,4.19296 -1.45655,4.82395 -1.99611,1.57219 -7.35072,2.7601 -8.27508,1.83578 z m -38.04327,-4.47358 c 0,-0.85675 -1.17987,-1.7253 -2.62179,-1.93008 -1.87734,-0.26663 -2.72657,-1.2824 -2.99057,-3.57722 -0.20284,-1.76268 -1.38263,-3.74747 -2.62179,-4.41065 -3.09507,-1.65644 -2.82231,-3.97853 0.74184,-6.31381 2.69348,-1.76488 3.26482,-1.78543 5.67789,-0.20432 1.47566,0.96689 3.70323,1.49119 4.95013,1.16512 2.99756,-0.78388 9.68195,5.07654 9.68195,8.48851 0,1.64579 -0.94459,2.87489 -2.61732,3.40581 -1.43959,0.45689 -3.14373,1.47399 -3.78703,2.26025 -1.77639,2.17091 -6.41331,2.97809 -6.41331,1.11639 z M 81.850233,894.24082 c -1.58734,-2.60818 -2.52317,-3.12687 -4.35251,-2.41238 -1.28176,0.5006 -3.77249,0.94705 -5.53489,0.99209 -2.97025,0.076 -3.20441,-0.25547 -3.20441,-4.53366 0,-4.94998 3.34172,-9.36733 7.08643,-9.36733 2.90434,0 3.77548,-3.48072 1.50037,-5.99473 -1.83465,-2.02718 -1.82514,-2.30724 0.1525,-4.49244 2.65862,-2.93782 9.90456,-3.27284 9.90456,-0.45795 0,1.22877 0.63361,1.62936 1.84313,1.16524 1.01376,-0.38903 2.25908,-0.70729 2.7674,-0.70729 0.50842,0 1.23898,-1.57308 1.62351,-3.49573 0.62951,-3.1477 1.13699,-3.49395 5.09788,-3.47788 4.843397,0.0197 6.021687,0.60358 8.193227,4.0605 4.20746,6.69787 2.9049,9.47553 -4.22619,9.01192 -4.730597,-0.30755 -4.758937,-0.28518 -3.577287,2.82274 0.65505,1.72301 0.934897,3.80023 0.62187,4.61605 -0.31303,0.81583 0.705197,2.69174 2.262797,4.16871 1.5576,1.47697 2.84105,3.31621 2.85214,4.08719 0.0252,1.75373 -7.263457,3.85196 -10.468807,3.01373 -1.55107,-0.4056 -3.14121,0.24298 -4.53456,1.84957 -2.93613,3.38535 -5.60257,3.10283 -8.00716,-0.84835 z m 0.89108,-7.16459 c 0,-0.64089 -0.55531,-1.16524 -1.23404,-1.16524 -0.67873,0 -0.90991,0.52435 -0.51382,1.16524 0.39609,0.64088 0.9514,1.16524 1.23394,1.16524 0.28264,0 0.51392,-0.52436 0.51392,-1.16524 z m 188.445437,-16.3267 c -2.50955,-2.93089 -2.6753,-8.14337 -0.25896,-8.14337 0.96128,0 1.74786,-0.55648 1.74786,-1.23664 0,-0.8012 -1.80584,-0.96585 -5.12855,-0.46756 -4.53931,0.68071 -5.21777,0.48809 -5.90479,-1.67647 -0.42685,-1.34505 -1.28708,-2.44554 -1.91156,-2.44554 -2.02481,0 -5.4894,3.99655 -6.31337,7.28276 -0.58933,2.35024 -1.52805,3.20441 -3.52154,3.20441 -1.49487,0 -3.04697,-0.5323 -3.44902,-1.18289 -0.40215,-0.65059 -2.57407,-1.95293 -4.82653,-2.89407 -3.66426,-1.53104 -4.0185,-2.06167 -3.36428,-5.04027 0.50254,-2.28792 0.16835,-3.79619 -1.06848,-4.82267 -3.21029,-2.6643 -2.23223,-6.96504 1.98743,-8.73936 3.9663,-1.66778 6.70014,-0.70488 6.70014,2.35988 0,0.93247 1.71486,1.67678 4.36966,1.89649 4.00321,0.33133 4.4006,0.68368 4.7388,4.20251 0.31965,3.3263 0.7012,3.73545 2.84804,3.05407 5.4743,-1.73748 9.1464,-9.51261 3.86683,-8.18753 -1.55127,0.38934 -3.6487,0.39009 -4.66097,9.3e-4 -2.00058,-0.76721 -2.57453,-5.11739 -0.67519,-5.11739 0.64089,0 1.16525,-0.72623 1.16525,-1.61385 0,-2.22157 5.29942,-5.50658 7.51301,-4.65716 0.99483,0.38178 1.80892,1.1624 1.80892,1.73472 0,2.33758 2.33943,0.82793 3.0395,-1.96143 0.71742,-2.85836 1.02514,-2.96464 6.43102,-2.22115 3.80885,0.52386 5.67761,0.36135 5.67761,-0.49371 0,-1.96283 3.15641,-1.5089 3.95362,0.56858 0.38901,1.01373 0.70735,3.06721 0.70735,4.56329 0,1.90168 1.05179,3.18571 3.49572,4.26749 2.39378,1.0596 3.49573,2.37597 3.49573,4.17602 0,1.44575 -0.54655,2.62865 -1.21446,2.62865 -2.52103,0 -4.33862,2.7995 -3.10262,4.77868 1.70293,2.72678 0.34146,5.28383 -3.29997,6.19776 -2.1184,0.53168 -3.79477,0.20044 -5.13815,-1.01529 -2.52391,-2.28416 -3.55818,-2.28575 -3.55818,-0.006 0,1.06689 0.82974,1.65961 2.03917,1.45655 2.45391,-0.41203 6.54064,7.10358 5.43264,9.99094 -1.126,2.93436 -11.00529,2.61373 -13.62168,-0.44209 z m 25.30271,-12.17046 c -1.13308,-1.7294 -1.48955,-3.45852 -0.90078,-4.36966 0.53592,-0.8293 0.97442,-3.29355 0.97442,-5.47611 0,-3.37998 0.51821,-4.13675 3.49573,-5.10433 1.92264,-0.62481 4.39379,-1.91772 5.49145,-2.87315 2.42976,-2.11491 5.58244,-1.10768 6.40743,2.04712 0.47579,1.81921 1.59172,2.3246 5.13294,2.3246 3.92686,0 4.5202,0.34662 4.48804,2.62179 -0.0513,3.63953 -2.62879,6.67973 -6.5522,7.72904 -1.82346,0.48765 -3.31525,1.57829 -3.31525,2.42366 0,2.69437 -3.77632,4.28813 -6.35085,2.68032 -1.43548,-0.89648 -2.54181,-1.00127 -2.9859,-0.28281 -1.24551,2.01539 -3.95642,1.22286 -5.88503,-1.72047 z m -131.1922,-18.89355 c -1.05822,-0.28089 -2.56381,-2.05532 -3.34582,-3.94317 -0.78193,-1.88786 -2.11375,-3.43247 -2.95944,-3.43247 -2.52363,0 -2.88793,-1.76249 -1.68046,-8.12951 1.31681,-6.94358 0.21384,-8.91088 -5.35191,-9.54586 -2.70783,-0.30893 -3.45583,-1.02587 -3.75142,-3.59561 -0.3603,-3.13184 2.2889,-7.2998 3.72616,-5.86249 0.39674,0.39673 0.72142,-0.41478 0.72142,-1.80335 0,-1.38858 -0.73046,-2.52469 -1.62323,-2.52469 -3.40744,0 -4.28482,-8.92716 -0.99856,-10.16022 1.12152,-0.42084 2.64183,-1.56991 3.37855,-2.5535 2.14684,-2.86641 7.21722,0.32631 6.49748,4.09138 -0.42704,2.23412 -0.14589,2.6781 1.3362,2.10939 1.14669,-0.44001 2.15607,0.007 2.5942,1.14846 0.84503,2.20233 3.94607,2.52171 4.00219,0.41221 0.0587,-2.19311 4.17706,-6.70014 6.12292,-6.70014 0.9403,0 2.22449,0.65545 2.85363,1.45655 1.72661,2.19842 2.71538,8.84471 1.43371,9.63683 -0.61991,0.38312 -1.12702,1.71435 -1.12702,2.95829 0,1.48488 -0.80047,2.26171 -2.33048,2.26171 -1.29473,0 -2.33048,0.77684 -2.33048,1.74786 0,2.22159 1.15302,2.20937 4.37338,-0.0462 2.35323,-1.64823 2.72294,-1.60569 4.54547,0.52292 1.09122,1.2744 2.41484,2.05082 2.94134,1.7254 0.5266,-0.32544 0.95746,0.68983 0.95746,2.25615 0,5.23007 -9.60364,8.82689 -13.40867,5.02189 -1.22937,-1.2294 -1.27654,-1.92269 -0.20806,-3.05876 1.0764,-1.14445 1.01385,-1.35716 -0.28292,-0.96271 -0.9156,0.27846 -2.22645,1.52381 -2.9131,2.76744 -0.68675,1.24361 -1.69166,2.58504 -2.23317,2.98094 -0.5416,0.39591 0.37605,1.06135 2.03918,1.47877 1.66312,0.41741 3.02384,1.56642 3.02384,2.55336 0,0.98693 0.52436,1.47036 1.16525,1.07427 1.54902,-0.95736 1.50996,4.43268 -0.0438,5.98603 -0.83459,0.83455 -0.81986,2.23089 0.0475,4.51234 2.14125,5.63188 -0.20172,7.46675 -7.17192,5.61658 z m -0.98905,-20.70715 c 0,-0.28261 -0.52436,-0.83792 -1.16525,-1.234 -0.64088,-0.39609 -1.16524,-0.16486 -1.16524,0.51385 0,0.6787 0.52436,1.23401 1.16524,1.23401 0.64089,0 1.16525,-0.23123 1.16525,-0.51386 z m 102.14692,14.28031 c -0.41324,-1.58053 -1.24914,-2.1799 -2.41559,-1.73227 -2.42921,0.93217 -5.66326,-2.54151 -4.94025,-5.30626 0.4303,-1.64573 -0.48036,-2.87662 -3.40531,-4.60234 -2.19596,-1.29568 -3.99267,-2.79089 -3.99267,-3.3227 0,-4.1389 11.04947,-6.41569 13.98289,-2.88123 0.79778,0.96133 2.63503,1.74786 4.08273,1.74786 1.63013,0 3.79617,1.52618 5.69001,4.00917 2.64585,3.46882 2.87703,4.4062 1.7158,6.95492 -0.7382,1.62015 -1.79391,2.66657 -2.34596,2.32536 -0.55214,-0.34121 -1.76809,0.0685 -2.70233,0.91047 -4.81664,4.34124 -5.01287,4.40693 -5.66932,1.89702 z m 25.22114,1.81858 c -0.76515,-0.3231 -1.09207,-1.36676 -0.72656,-2.31923 0.51765,-1.34909 0.0233,-1.57079 -2.23801,-1.00328 -3.09879,0.77774 -5.18597,-1.86492 -3.55603,-4.50226 0.45929,-0.74325 0.85426,-2.89073 0.87766,-4.77219 0.0354,-2.8669 0.6558,-3.57987 3.82963,-4.403 2.0828,-0.54021 3.78704,-1.49156 3.78704,-2.11411 0,-0.62257 1.03865,-1.13193 2.3082,-1.13193 1.57513,0 2.52606,1.01779 2.99383,3.20442 0.37698,1.76242 1.16888,4.39874 1.7597,5.85847 0.70642,1.74504 0.61674,3.54099 -0.26176,5.24358 -0.73475,1.42424 -1.70134,3.37607 -2.14786,4.33739 -0.84149,1.81186 -4.20401,2.62491 -6.62584,1.60214 z m 177.9358,-13.82434 c -0.79199,-0.95426 -1.92787,-1.43348 -2.52419,-1.06492 -1.69035,1.04469 -4.47788,-1.87099 -4.47788,-4.68374 0,-1.39557 -0.54161,-3.07893 -1.20347,-3.74083 -0.66195,-0.66188 -0.89527,-2.00664 -0.51857,-2.98831 0.82228,-2.14286 6.383,-4.94682 6.383,-3.21861 0,0.6583 1.26415,0.84516 2.91497,0.43085 4.24446,-1.06531 7.37122,3.22385 7.29049,10.00098 -0.0345,2.88846 -0.6406,5.63699 -1.34701,6.10784 -2.08607,1.39039 -4.97372,1.01677 -6.51734,-0.84326 z m 35.36797,-3.50855 c -0.37969,-0.98945 -2.11562,-1.74787 -4.00079,-1.74787 -4.19235,0 -6.43894,-3.51296 -4.52897,-7.08182 0.79917,-1.4932 1.98185,-2.15752 3.08649,-1.73365 1.48014,0.56798 1.65875,-0.0171 1.02943,-3.37148 -0.68684,-3.66116 -0.47002,-4.13184 2.2133,-4.8053 1.67394,-0.42013 3.69121,-0.15192 4.61333,0.61336 1.28102,1.06319 1.87464,0.93833 2.71995,-0.57221 1.61941,-2.89376 5.35872,-1.55061 6.68094,2.39977 0.89714,2.68074 1.96926,3.56674 4.66097,3.85195 4.62293,0.48986 5.7396,1.76893 4.14527,4.74808 -1.98576,3.71041 -6.62836,6.31189 -9.83007,5.50832 -2.14199,-0.53763 -2.92923,-0.16214 -3.39514,1.6194 -0.73196,2.79909 -6.37266,3.23499 -7.39471,0.57145 z m -25.3303,-9.07154 c -1.79643,-1.31454 -1.95183,-2.03897 -0.87076,-4.05896 1.68634,-3.15105 -0.32851,-4.62435 -2.8609,-2.09194 -1.0022,1.00219 -3.09563,1.82216 -4.65202,1.82216 -2.24174,0 -2.82986,-0.60547 -2.82986,-2.9131 0,-2.94256 -1.5865,-3.89444 -2.9131,-1.74787 -0.39609,0.64089 -1.68671,1.16525 -2.86789,1.16525 -2.6218,0 -4.99096,-6.03399 -3.96854,-10.10739 0.56305,-2.24348 1.35551,-2.76494 3.77455,-2.48366 2.59774,0.30205 3.11902,-0.14285 3.43895,-2.93506 0.28591,-2.49565 -0.18746,-3.43871 -1.95863,-3.90186 -4.32407,-1.13077 -3.93311,-7.37259 0.46181,-7.37259 0.82946,0 1.70479,-0.59001 1.94521,-1.31113 0.71508,-2.14528 8.1056,0.0448 8.7738,2.60002 0.68907,2.63517 3.27927,2.91671 4.22237,0.45898 1.14492,-2.98358 5.08837,-2.02149 6.7075,1.63643 1.30199,2.94129 1.97858,3.30634 5.16882,2.78864 4.16607,-0.67606 5.99046,1.78949 4.03202,5.44891 -1.24877,2.33343 0.57348,9.3525 2.42808,9.3525 0.57824,0 1.05133,0.85613 1.05133,1.90249 0,2.71489 -4.66395,6.41029 -7.11049,5.63382 -1.63936,-0.52033 -2.13062,0.12551 -2.42491,3.18835 -0.31872,3.3156 -0.84728,3.88771 -3.86488,4.18349 -1.92265,0.18846 -4.47974,-0.3774 -5.68246,-1.25748 z m 14.42177,-18.31164 c 0,-0.64088 -0.52436,-1.16524 -1.16524,-1.16524 -0.64088,0 -1.16524,0.52436 -1.16524,1.16524 0,0.64089 0.52436,1.16524 1.16524,1.16524 0.64088,0 1.16524,-0.52435 1.16524,-1.16524 z m -269.48872,12.81766 c -3.20544,-2.52134 -6.67348,-3.08668 -6.67348,-1.08784 0,2.37027 -6.37359,0.58564 -7.55916,-2.11658 -0.63323,-1.4434 -2.20435,-2.63824 -3.49572,-2.6584 -3.17263,-0.0495 -6.65744,-5.11396 -6.20729,-9.02104 0.31313,-2.71763 0.91551,-3.18725 4.16308,-3.24557 4.73517,-0.085 5.84336,-1.19589 6.3158,-6.33109 0.47495,-5.16141 2.99019,-5.75074 7.68472,-1.80056 3.06402,2.57822 3.98559,2.8126 6.82086,1.73464 2.71296,-1.03147 3.53525,-0.89477 4.76938,0.79295 2.09519,2.86538 1.86951,4.78115 -1.04546,8.87484 l -2.53659,3.56235 3.0987,-0.77772 c 2.37672,-0.59652 3.44036,-0.23074 4.56477,1.5698 0.80634,1.29115 2.38865,2.34753 3.51623,2.34753 1.48181,0 2.05026,0.92963 2.05026,3.35305 0,3.98768 -2.5763,6.48113 -5.82005,5.63287 -1.28512,-0.33607 -2.33663,-0.13578 -2.33663,0.4451 0,1.86861 -4.25742,1.12637 -7.30942,-1.27433 z m -125.045967,-4.3875 c -1.70806,-1.15529 -3.97785,-8.02189 -3.97785,-12.03369 0,-2.02625 0.99008,-3.98642 2.62179,-5.19055 1.75597,-1.29584 2.140777,-2.11935 1.16524,-2.49367 -0.80113,-0.30738 -1.45655,-1.24055 -1.45655,-2.07372 0,-0.83317 -1.04872,-1.7891 -2.33048,-2.1243 -1.57336,-0.41142 -2.33049,-1.58939 -2.33049,-3.62566 0,-2.4328 1.01423,-3.49297 5.24359,-5.48099 5.269687,-2.47706 6.746187,-5.20038 3.495717,-6.4477 -2.343437,-0.89927 -2.145627,-2.76382 0.64937,-6.12002 3.15193,-3.78472 9.57884,-4.46487 12.69973,-1.34398 2.46202,2.46205 2.08075,5.87737 -0.65617,5.87737 -0.89276,0 -1.62313,0.78653 -1.62313,1.74786 0,0.96132 -0.78659,1.74786 -1.74787,1.74786 -0.96137,0 -1.74786,0.54281 -1.74786,1.20624 0,0.78412 0.89015,0.72983 2.54368,-0.15513 2.16502,-1.15866 2.85801,-0.97323 4.65472,1.24563 1.16104,1.43384 1.82066,3.07671 1.46587,3.65084 -0.35489,0.57413 -0.0895,1.04387 0.58887,1.04387 0.67873,0 1.23403,-0.55969 1.23403,-1.24377 0,-0.72321 0.99876,-0.92676 2.38632,-0.48635 1.31253,0.41657 3.14112,0.13107 4.06353,-0.63446 2.36991,-1.96683 5.20928,-0.5271 5.16575,2.61933 -0.0662,4.8034 -8.55288,12.14816 -11.71991,10.14333 -2.42174,-1.53307 -3.39141,-1.30536 -3.39141,0.79638 0,1.18573 0.64107,1.62652 1.74786,1.2018 0.96128,-0.36888 1.74786,-0.10673 1.74786,0.58262 0,0.68935 0.76944,0.95809 1.70983,0.59721 1.3735,-0.52707 1.66005,0.42252 1.45655,4.82762 -0.21375,4.62636 -0.64479,5.53953 -2.75696,5.84062 -3.22995,0.46038 -10.62942,-3.48901 -10.01128,-5.34338 0.26073,-0.78229 -0.22504,-1.44092 -1.07958,-1.46363 -0.85445,-0.0227 -0.24274,-0.79066 1.35951,-1.70656 2.08056,-1.18935 2.35752,-1.67709 0.9692,-1.70657 -4.42297,-0.0939 -5.4715,1.11278 -4.34029,4.99517 0.88782,3.04709 0.68936,4.0239 -1.1204,5.51575 -1.20961,0.9971 -2.56446,2.96345 -3.0108,4.36965 -0.85939,2.70768 -1.61754,3.05184 -3.667987,1.66498 z m 338.648497,-2.82367 c -1.36314,-1.46308 -2.37588,-4.13715 -2.37588,-6.27292 0,-2.74275 -0.61347,-3.88316 -2.33048,-4.33216 -1.69305,-0.44274 -2.33048,-1.5894 -2.33048,-4.19205 0,-2.8745 0.5911,-3.73099 2.99085,-4.33328 2.72517,-0.68397 2.92587,-1.1357 2.25861,-5.0847 -0.63063,-3.73299 -0.33876,-4.59181 2.10442,-6.19267 2.84711,-1.86548 6.97505,-1.5944 9.83809,0.64606 0.85109,0.66607 1.3376,3.14996 1.16524,5.94922 -0.28506,4.62866 -0.16723,4.80574 3.19975,4.80574 2.65675,0 3.57907,0.58378 3.84325,2.43245 0.1911,1.33784 -0.46433,3.10621 -1.45655,3.92971 -0.99223,0.8235 -1.80408,3.00614 -1.80408,4.8503 0,2.77346 -0.48921,3.35305 -2.82995,3.35305 -3.13599,0 -6.49198,2.75365 -6.49198,5.32683 0,2.48314 -3.08229,2.01097 -5.78081,-0.88558 z m 63.23439,-8.68687 c -0.76514,-0.31125 -1.07733,-1.38348 -0.69392,-2.38273 0.40429,-1.05366 -0.11271,-2.27002 -1.23068,-2.89572 -2.09063,-1.16998 -2.69078,-6.7893 -0.72516,-6.7893 0.66158,0 1.63609,-1.17127 2.16567,-2.60281 0.80607,-2.17906 1.92396,-2.63755 6.86644,-2.81617 7.00022,-0.25301 7.93054,1.04338 5.85809,8.16274 -2.31323,7.94621 -6.94829,11.47692 -12.24044,9.32399 z M 173.33883,777.2911 c -1.12162,-1.40362 -2.03918,-3.46316 -2.03918,-4.57675 0,-1.1136 -0.47467,-2.31805 -1.05477,-2.67658 -0.84177,-0.52024 -0.94786,-6.01597 -0.21916,-11.35088 0.28385,-2.07785 5.03785,-2.20903 6.67627,-0.18422 1.23833,1.53047 1.90829,1.7303 2.33887,0.69763 0.92045,-2.20751 5.07645,0.45481 5.07645,3.25191 0,1.2679 0.63231,3.31779 1.40509,4.55531 1.19918,1.92012 0.94292,2.67846 -1.74786,5.17213 -1.73416,1.60717 -3.15296,3.99589 -3.15296,5.30825 0,3.27204 -4.61062,3.14745 -7.28275,-0.1968 z m 105.16303,-5.55157 c 0,-0.62867 -1.31551,-1.4732 -2.92326,-1.87672 -5.35228,-1.34333 -5.43441,-9.79789 -0.0952,-9.79789 1.58445,0 3.23611,-0.57476 3.67023,-1.27725 0.43421,-0.70248 2.30037,-1.05547 4.14714,-0.78443 2.72033,0.39926 3.35776,0.0616 3.35776,-1.77854 0,-1.73336 -0.35936,-1.97312 -1.51724,-1.01219 -2.78166,2.30857 -6.52265,0.25151 -7.32545,-4.02807 -0.83786,-4.46583 1.01059,-7.68235 3.79962,-6.61207 1.51341,0.58072 1.55835,0.33052 0.30231,-1.68074 -1.44677,-2.31665 -1.52199,-2.31998 -3.83085,-0.16894 -2.38315,2.22025 -3.87671,2.75028 -5.99391,2.12707 -0.64088,-0.18864 -3.00054,-0.38183 -5.24358,-0.4293 -3.31125,-0.07 -4.14845,-0.57984 -4.45104,-2.71002 -0.3932,-2.76906 0.55335,-3.97117 6.34665,-8.06028 2.34614,-1.65596 4.94659,-2.41622 7.54256,-2.20511 5.64005,0.45867 5.70129,0.48605 5.0248,2.24881 -0.35861,0.93449 0.34174,1.84411 1.69165,2.1971 1.71328,0.44805 2.48225,-0.10988 3.0012,-2.17734 0.49499,-1.9723 1.51742,-2.77974 3.51977,-2.77974 1.5522,0 3.18111,0.58085 3.6199,1.29076 0.49378,0.79894 2.51207,1.01665 5.29672,0.57135 l 4.49904,-0.71942 0.74715,4.67224 c 0.4509,2.81989 1.38105,4.67225 2.34605,4.67225 2.03703,0 2.1653,6.59335 0.14244,7.32161 -0.94627,0.34064 -0.33391,1.51036 1.74786,3.33861 4.08506,3.58768 4.02904,4.90724 -0.34015,8.01837 -3.54429,2.52379 -8.90151,2.45198 -10.50395,-0.14081 -0.36934,-0.59759 -2.36833,-0.74717 -4.44228,-0.33238 -3.56731,0.71346 -3.7517,1.0019 -3.41844,5.34562 0.33838,4.41119 0.16919,4.65596 -4.30869,6.23344 -5.57079,1.96248 -6.40883,2.0323 -6.40883,0.53401 z m 4.07834,-33.8142 c 0.39609,-0.64088 0.16482,-1.16524 -0.51391,-1.16524 -0.67864,0 -1.23395,0.52436 -1.23395,1.16524 0,0.64088 0.23119,1.16524 0.51383,1.16524 0.28264,0 0.83795,-0.52436 1.23403,-1.16524 z m 196.96709,34.02752 c -0.34323,-0.34317 -0.62391,-1.58525 -0.62391,-2.76021 0,-1.17495 -0.65552,-2.00519 -1.45656,-1.84496 -0.81921,0.16384 -1.61791,-1.11084 -1.82532,-2.91311 -0.20276,-1.76243 0.12566,-3.20441 0.72981,-3.20441 0.60415,0 1.03222,-2.75289 0.9513,-6.11752 -0.13433,-5.5834 0.0914,-6.15134 2.5887,-6.50482 3.01332,-0.42657 8.334,3.77065 8.334,6.57432 0,0.93634 1.22993,2.84232 2.73319,4.23552 2.50573,2.32222 3.08593,5.85976 2.04933,12.4953 -0.14319,0.9164 -12.56727,0.95317 -13.48054,0.0399 z m -280.28128,-2.68411 c -3.18708,-1.29905 -8.15725,-5.5784 -8.15725,-7.02349 0,-1.72988 5.94002,-6.8413 7.9503,-6.8413 1.11005,0 3.11483,0.76803 4.45495,1.70672 1.34021,0.93871 2.73394,1.40947 3.0973,1.04618 0.87207,-0.87212 2.30634,6.89766 1.78264,9.65709 -0.47878,2.52254 -4.81338,3.21339 -9.12794,1.4548 z m -58.11339,-8.92491 c -1.37265,-2.56487 -0.41846,-7.92685 1.72764,-9.70794 0.89033,-0.73892 1.61884,-3.11455 1.61884,-5.27916 0,-2.16463 0.54934,-3.93567 1.2208,-3.93567 0.67155,0 2.47125,-1.34916 3.99948,-2.99812 1.98352,-2.14023 3.71806,-2.89044 6.06187,-2.6218 2.75416,0.31568 3.28337,0.91741 3.28337,3.73375 0,2.41614 0.73503,3.63067 2.62179,4.3321 3.41686,1.27027 3.61728,6.40296 0.29131,7.45862 -1.66256,0.52767 -2.33048,1.76305 -2.33048,4.31029 0,3.46677 -0.12985,3.55321 -4.46353,2.97194 -3.24999,-0.43592 -5.23007,-0.009 -7.28276,1.56853 -3.54913,2.7283 -5.35386,2.77309 -6.74833,0.16746 z m 81.38894,0.26921 c -1.1754,-1.41637 -1.18705,-2.42359 -0.0569,-4.90491 1.19125,-2.61456 1.12441,-3.3407 -0.41128,-4.46361 -2.94909,-2.15646 -2.1695,-5.1668 1.68633,-6.51092 1.93617,-0.67495 4.05206,-2.22075 4.70189,-3.43511 1.42616,-2.66464 5.25841,-2.89846 6.65325,-0.40594 0.81847,1.46245 1.91034,1.59934 5.79498,0.72651 4.8584,-1.0916 7.29534,-0.1513 7.29534,2.81495 0,2.95102 -3.58232,8.08708 -6.05543,8.68196 -1.52516,0.36684 -2.87619,1.81113 -3.27014,3.49572 -0.49639,2.12327 -1.56925,2.96979 -4.12085,3.25159 -1.89729,0.20952 -3.94774,0.86498 -4.55656,1.45655 -1.71589,1.66718 -6.02038,1.27004 -7.66104,-0.70679 z m -41.37399,-5.79171 c -0.30026,-0.96132 -0.80775,-2.57607 -1.12758,-3.58832 -0.96668,-3.05898 0.61152,-7.39684 2.43629,-6.69661 0.90255,0.34635 1.64103,0.0493 1.64103,-0.66019 0,-1.81472 -2.9475,-1.60665 -4.54733,0.32098 -0.73532,0.886 -3.39654,1.63933 -5.91384,1.67407 -3.49926,0.0482 -4.7415,-0.45564 -5.27621,-2.14041 -0.76598,-2.41339 2.0759,-7.56289 4.73741,-8.58421 0.92296,-0.35414 1.73882,-1.84015 1.81321,-3.30226 0.1003,-1.97362 0.27238,-2.13311 0.66801,-0.61919 0.29308,1.12154 1.54315,2.03918 2.77793,2.03918 1.27133,0 2.24509,0.80023 2.24509,1.84496 0,1.01473 0.65543,1.62248 1.45656,1.35055 0.93657,-0.31791 1.31989,-2.19241 1.07379,-5.25078 -0.31629,-3.93068 0.0634,-4.99505 2.18655,-6.13139 1.78804,-0.95691 3.34592,-1.0212 5.12315,-0.21142 2.06481,0.94078 2.55467,0.79638 2.55803,-0.75405 0.0149,-7.14882 0.44727,-8.32608 3.04137,-8.28772 3.20824,0.0474 6.82496,3.01202 8.64143,7.08325 1.17112,2.62487 1.01069,3.39176 -1.16561,5.57327 -2.16493,2.17003 -2.27521,2.68595 -0.77568,3.62984 0.96128,0.60516 2.73095,0.79397 3.93246,0.41957 2.86686,-0.89328 4.16047,1.38865 3.40977,6.01473 -0.53647,3.30613 -0.19147,3.91632 3.01742,5.33673 4.56812,2.02202 4.61361,4.83194 0.12985,8.0246 -4.49028,3.19738 -9.75987,2.78294 -10.27081,-0.80779 -0.43747,-3.07409 -3.71441,-2.35993 -3.71441,0.80951 0,2.91506 -3.3325,3.8707 -6.4271,1.84305 -2.34409,-1.5359 -2.8445,-1.48058 -5.03068,0.55618 -2.898,2.69986 -5.88493,2.93102 -6.6401,0.51387 z m 18.41128,-25.81702 c -0.78882,-0.31918 -2.3619,-0.3386 -3.49572,-0.0433 -1.13374,0.29543 -0.48819,0.55658 1.43445,0.58033 1.92265,0.0238 2.85019,-0.21797 2.06127,-0.53716 z m 412.18204,14.16461 c -0.79786,-0.96133 -2.85465,-1.74786 -4.57063,-1.74786 -3.96844,0 -5.91654,-1.95408 -5.91654,-5.93459 0,-1.72591 -0.78659,-3.43983 -1.74786,-3.80873 -2.89409,-1.11055 -2.16968,-7.19095 1.11304,-9.34185 2.71473,-1.77874 3.02198,-1.72534 6.01087,1.0447 2.83713,2.62937 3.34322,2.74435 5.09621,1.15794 2.9502,-2.6699 4.6605,-2.12952 5.42946,1.71547 0.38248,1.91225 1.10092,3.22617 1.59666,2.9198 1.55443,-0.9607 2.29506,2.81459 1.14548,5.83843 -0.60499,1.59107 -0.79376,3.69063 -0.41958,4.66568 1.57578,4.1064 -4.82829,6.99592 -7.73711,3.49101 z m 35.24855,0.54631 c -1.44201,-0.57961 -2.62179,-1.55862 -2.62179,-2.17558 0,-0.61697 -1.17988,-1.28931 -2.62179,-1.4941 -1.6856,-0.23939 -2.75491,-1.30928 -2.99449,-2.99608 -0.37782,-2.661 2.40702,-6.60593 3.72961,-5.28327 0.39675,0.39673 0.72143,-0.1426 0.72143,-1.19853 0,-1.12747 1.32259,-2.24355 3.20441,-2.7041 1.76241,-0.43133 3.5896,-1.35896 4.06045,-2.06137 0.52631,-0.78509 0.86293,-0.49149 0.87393,0.76203 0.0112,1.26699 0.9142,2.03917 2.38492,2.03917 1.3019,0 2.70933,0.91762 3.1277,2.03917 0.41827,1.12154 1.71271,2.72437 2.87646,3.56179 1.16375,0.83746 2.11599,2.19818 2.11599,3.02383 0,2.59392 -3.9841,5.31695 -6.72904,4.59913 -1.73136,-0.45277 -2.799,-0.0599 -3.28607,1.2094 -0.81091,2.11327 -1.15303,2.16121 -4.84172,0.67851 z M 536.0202,741.50429 c 0,-1.54681 -3.41005,-4.74747 -5.03552,-4.72636 -0.90758,0.0118 -0.84177,0.35472 0.1939,1.01114 1.15769,0.7337 0.77577,1.19194 -1.46168,1.7535 -5.78398,1.45169 -11.30256,-5.03139 -9.39604,-11.03826 0.85612,-2.6974 3.78219,-2.86979 7.26803,-0.4282 2.02556,1.4188 2.44216,1.4586 1.95406,0.18669 -0.34118,-0.88907 0.13097,-2.24 1.04918,-3.00205 1.29296,-1.07305 1.4312,-2.44604 0.61302,-6.08754 -1.61773,-7.19984 0.12482,-8.46303 6.96646,-5.04998 2.02109,1.00826 3.6748,2.63744 3.6748,3.62039 0,1.25179 0.61087,1.5304 2.03917,0.93005 6.57364,-2.76315 10.27594,-1.4352 9.00396,3.22959 -0.30576,1.12154 -0.85351,3.08789 -1.21716,4.36966 -0.45967,1.62046 -0.1046,2.33048 1.16524,2.33048 2.48588,0 6.56972,4.25575 5.85967,6.10623 -0.95484,2.48827 -7.41886,4.70373 -11.6979,4.00934 -3.39048,-0.5502 -3.98774,-0.30905 -3.98774,1.61011 0,1.73119 -0.81464,2.25722 -3.49572,2.25722 -1.92265,0 -3.49573,-0.48692 -3.49573,-1.08201 z m -226.05682,-2.99634 c -1.60226,-0.91591 -2.29031,-1.68386 -1.52899,-1.70656 0.76123,-0.0227 1.30507,-1.09002 1.20859,-2.37178 -0.12314,-1.63457 -1.01096,-2.33048 -2.97295,-2.33048 -2.54106,0 -2.72508,-0.34709 -2.00859,-3.78704 0.43384,-2.08287 0.8867,-5.62229 1.0062,-7.86538 0.18644,-3.49894 0.66438,-4.12994 3.3641,-4.44149 1.73081,-0.19973 4.22144,0.21198 5.5349,0.91492 2.11906,1.13405 2.38818,0.94105 2.38818,-1.71259 0,-1.64486 0.7865,-3.29249 1.74787,-3.66138 0.96127,-0.36891 1.74786,-1.6798 1.74786,-2.9131 0,-2.86482 2.62766,-3.88104 5.73513,-2.21799 1.61596,0.86484 2.42156,2.44524 2.42156,4.75069 0,1.90011 0.52436,3.45473 1.16524,3.45473 2.21909,0 1.15238,4.26676 -1.74786,6.99145 -2.86239,2.68907 -4.03407,8.15669 -1.74786,8.15669 1.85916,0 1.3541,2.14158 -1.07883,4.5745 -1.39382,1.39378 -3.15976,2.00452 -4.66097,1.61196 -1.65753,-0.43347 -2.41689,-0.0793 -2.41689,1.12704 0,1.57226 -2.38138,3.24288 -4.46502,3.13238 -0.42825,-0.0227 -2.08951,-0.79066 -3.69167,-1.70657 z m -97.03012,-5.05881 c -2.84981,-1.70615 -3.16759,-2.47886 -2.71147,-6.5936 0.28404,-2.56353 0.55689,-5.05424 0.6063,-5.5349 0.0494,-0.48066 1.13849,-0.87393 2.42025,-0.87393 1.28177,0 2.33049,-0.72233 2.33049,-1.60519 0,-0.88284 0.79637,-2.26611 1.76967,-3.07391 1.44518,-1.19941 2.17192,-1.10473 3.96322,0.51637 2.3413,2.1188 3.77697,10.53061 2.30158,13.48466 -0.48007,0.96133 -1.15694,2.66549 -1.50409,3.78704 -0.78602,2.53971 -4.83435,2.49271 -9.17595,-0.10651 z m 415.43232,-1.00712 c -1.44201,-0.27774 -2.62179,-0.99287 -2.62179,-1.58918 0,-0.59632 -0.91765,-1.09222 -2.03917,-1.10204 -1.74274,-0.0153 -1.78506,-0.18208 -0.29132,-1.1474 0.96128,-0.62126 1.29426,-1.13759 0.73989,-1.1474 -0.55438,-0.009 -0.16705,-1.30127 0.86078,-2.86989 2.92168,-4.4591 1.46383,-6.48471 -3.65074,-5.07251 -3.56182,0.98347 -4.45831,0.83971 -5.74614,-0.92138 -1.80808,-2.47274 -1.95797,-3.97172 -0.39711,-3.97172 0.62075,0 0.84727,-0.73349 0.5032,-1.62999 -0.34398,-0.8965 -0.0653,-1.97616 0.61916,-2.39926 0.6846,-0.42309 1.28615,-1.91811 1.33667,-3.32227 0.0503,-1.40416 0.34668,-1.92703 0.65794,-1.16193 0.31126,0.7651 1.32521,1.0997 2.2533,0.74357 0.92809,-0.35615 2.46733,-3.1e-4 3.4205,0.79075 1.49076,1.23724 1.73304,0.69562 1.73304,-3.87472 l 0,-5.313 3.88668,0.63072 c 3.49759,0.56758 4.03668,0.26864 5.38491,-2.98637 2.22887,-5.38086 6.09971,-4.92114 8.78965,1.04388 1.15592,2.56354 2.21834,4.66097 2.36087,4.66097 0.14253,0 2.51655,-0.79646 5.27556,-1.76988 4.01002,-1.41483 5.21059,-1.47327 5.98431,-0.29131 1.16785,1.784 0.15763,6.64374 -1.88191,9.05264 -3.17179,3.74628 -3.45285,4.98553 -0.80971,3.57098 2.01923,-1.08064 2.47115,-0.99534 2.47115,0.46637 0,0.98387 0.65543,1.65777 1.45656,1.49754 2.76451,-0.5529 1.53802,5.22253 -1.60785,7.57129 -3.21094,2.39727 -8.19771,1.97524 -7.6905,-0.65084 0.14924,-0.77246 -1.02131,-1.38555 -2.64538,-1.38555 -2.52177,0 -2.86435,0.45444 -2.54983,3.38245 0.44391,4.13221 -1.34646,5.41349 -5.78547,4.14041 -2.04569,-0.58672 -3.09823,-0.53734 -2.68825,0.1261 0.37064,0.59969 0.0625,1.09035 -0.68479,1.09035 -0.74725,0 -1.07352,0.74315 -0.72497,1.65143 0.48744,1.2702 -2.1076,3.6555 -3.1015,2.85085 -0.10776,-0.0873 -1.37582,-0.38593 -2.81774,-0.66366 z m 6.11752,-10.83007 c 0.39609,-0.64088 0.16481,-1.16524 -0.51392,-1.16524 -0.67864,0 -1.23394,0.52436 -1.23394,1.16524 0,0.64089 0.23118,1.16524 0.51382,1.16524 0.28264,0 0.83795,-0.52435 1.23404,-1.16524 z m 16.896,-9.3907 c 0,-0.60306 -0.52436,-1.09647 -1.16524,-1.09647 -0.64089,0 -1.16525,0.81749 -1.16525,1.81663 0,0.99915 0.52436,1.49256 1.16525,1.09647 0.64088,-0.39608 1.16524,-1.21357 1.16524,-1.81663 z m -367.79492,15.79953 c -0.36887,-0.96132 -1.40118,-1.74786 -2.29394,-1.74786 -1.7515,0 -1.88108,-0.50977 -1.92489,-7.57407 -0.0205,-3.31701 0.49742,-4.76473 1.79652,-5.02082 3.12686,-0.61639 11.32289,2.11671 11.32289,3.77583 0,0.86805 0.78649,1.88009 1.74786,2.249 2.13304,0.81856 2.20827,4.11848 0.15539,6.82082 -1.13056,1.48822 -1.85525,1.66164 -2.83787,0.67908 -0.98253,-0.98256 -1.50987,-0.82342 -2.06499,0.62317 -0.92791,2.41796 -4.99637,2.55231 -5.90097,0.19485 z M 66.136623,727.34482 c -1.12161,-0.65324 -2.03917,-1.91336 -2.03917,-2.80027 0,-0.88691 -1.42141,-1.77849 -3.158643,-1.98127 -2.647708,-0.30906 -3.315159,-1.12271 -4.126073,-5.02967 -1.341426,-6.463 -0.300633,-9.90455 2.995509,-9.90455 1.461772,0 3.322337,0.65544 4.134557,1.45655 1.18249,1.16632 1.75131,1.10233 2.85484,-0.32119 2.15644,-2.78176 4.57325,-2.04374 5.82155,1.77774 0.62801,1.92265 1.85152,3.91505 2.71883,4.42755 2.27203,1.34251 1.94027,3.92523 -0.74603,5.80676 -1.27767,0.89492 -2.01634,1.93385 -1.6415,2.30873 0.37493,0.37488 0.33624,1.76984 -0.0858,3.09991 -0.82714,2.60626 -3.46403,3.06078 -6.72801,1.15971 z m 104.572957,-1.09531 c -0.40271,-1.26889 -1.41927,-2.30707 -2.25889,-2.30707 -0.83972,0 -2.12317,-0.71871 -2.85214,-1.59709 -1.01395,-1.22169 -0.84205,-2.18218 0.73121,-4.08615 1.52535,-1.84597 3.90654,-2.67713 9.21659,-3.21702 6.47921,-0.65877 7.28425,-0.49533 8.46963,1.7195 1.04909,1.96038 0.84419,3.31629 -1.02998,6.81301 -2.02976,3.78707 -2.94965,4.40638 -6.94195,4.67372 -3.71842,0.249 -4.7429,-0.13487 -5.33447,-1.9989 z m 303.01011,-1.01602 c -0.38491,-1.21257 -1.78664,-2.4889 -3.11511,-2.8363 -2.0759,-0.54286 -2.35696,-1.36542 -2.00002,-5.8533 0.44372,-5.57941 -1.22435,-7.74959 -5.95662,-7.74959 -3.0768,0 -4.13102,-4.40846 -2.02501,-8.46781 0.89864,-1.73213 1.97551,-2.80769 2.39304,-2.39014 0.41762,0.41755 0.75927,-0.0536 0.75927,-1.04697 0,-0.9934 -1.04872,-2.08041 -2.33049,-2.41561 -3.62231,-0.94726 -3.02431,-6.00113 1.05376,-8.90496 5.7067,-4.0635 9.93997,-2.41303 8.31786,3.24298 -0.82126,2.86359 -0.62364,3.08827 2.73692,3.11088 2.27893,0.0153 4.59003,-0.97449 6.23218,-2.66913 3.70276,-3.82117 7.2657,-1.88631 6.90522,3.74986 -0.14104,2.20408 -0.63548,4.38648 -1.09878,4.84978 -1.49365,1.49363 -0.89565,3.0542 0.90553,2.36304 1.06466,-0.40855 1.74787,-0.002 1.74787,1.04057 0,0.94122 0.4632,1.7113 1.02932,1.7113 0.56612,0 1.29724,1.0247 1.62482,2.27709 1.00956,3.86075 -8.14737,8.08132 -10.22821,4.71436 -0.86387,-1.39767 -2.91311,-1.55223 -2.91311,-0.21972 0,0.52003 1.08405,2.10921 2.40916,3.53148 1.32502,1.42228 2.29581,3.74967 2.15719,5.172 -0.13852,1.42232 0.1347,3.47855 0.60723,4.5694 1.29072,2.97971 -0.20592,4.42546 -4.58126,4.42546 -2.83284,0 -4.12654,-0.61589 -4.63076,-2.20467 z m -333.96694,-3.14175 c -0.84476,-1.01789 -1.48424,-3.67488 -1.42104,-5.90444 0.10907,-3.84824 0.009,-3.95646 -2.00552,-2.13477 -1.60337,1.45105 -2.66635,1.62679 -4.35949,0.72068 -1.23143,-0.65906 -3.3133,-0.91736 -4.62638,-0.57399 -1.313,0.34338 -2.66048,0.18237 -2.9943,-0.35778 -1.01115,-1.63608 0.52091,-7.37763 1.9687,-7.37763 0.74417,0 2.30317,-1.10968 3.46449,-2.46596 1.6622,-1.94134 2.9682,-2.32694 6.13859,-1.81247 3.49302,0.56686 4.17072,0.27577 5.11009,-2.19498 0.8634,-2.2709 1.90839,-2.84852 5.15363,-2.84852 3.13963,0 3.91717,0.39978 3.3999,1.74787 -0.36887,0.96132 -0.0904,1.74786 0.61916,1.74786 0.70949,0 1.28997,-0.81976 1.28997,-1.82169 0,-1.35165 0.97172,-1.72747 3.76597,-1.45656 2.93491,0.28457 4.02194,1.09727 4.92571,3.68288 0.94011,2.68921 0.77847,3.59654 -0.85287,4.78942 -1.10698,0.80944 -2.02071,2.46261 -2.0305,3.67371 -0.0149,1.84825 -0.1993,1.92121 -1.14734,0.45417 -0.76478,-1.18329 -1.13532,-1.2737 -1.14744,-0.2799 -0.009,0.80737 1.03091,2.3659 2.31268,3.46338 1.28176,1.09748 2.33048,2.67839 2.33048,3.51315 0,2.08667 -5.36822,3.9499 -8.85723,3.07421 -2.07842,-0.52166 -3.45872,-0.0405 -5.00812,1.74597 -2.55635,2.94756 -3.97356,3.09222 -6.02914,0.61539 z m -120.17656,-3.6842 c -0.972743,-1.12155 -2.09846,-3.78787 -2.50182,-5.92519 -0.609281,-3.22947 -0.19343,-4.42571 2.461922,-7.08062 3.160974,-3.16059 3.636392,-6.86277 1.08731,-8.46772 -0.888939,-0.5597 -0.856872,-1.66527 0.109813,-3.78703 1.082929,-2.37668 2.197925,-2.99654 5.390127,-2.99654 2.966238,0 4.214351,-0.59729 4.745608,-2.27088 0.870575,-2.7431 4.315868,-4.0078 7.884303,-2.89418 3.547834,1.10722 4.365554,2.69354 3.101779,6.01758 -1.600016,4.20822 -1.327256,4.97368 1.771913,4.97368 4.601119,0 5.214781,4.45325 1.101759,7.99468 -2.343999,2.01829 -3.353658,3.96829 -3.353658,6.4771 0,2.88752 -0.538994,3.66573 -2.756215,3.97942 -1.515933,0.21449 -3.324946,-0.17878 -4.020083,-0.87393 -2.170425,-2.17041 -4.364528,-1.40833 -8.103088,2.81446 -4.15059,4.68814 -4.526264,4.79887 -6.91967,2.03917 z m 11.894505,-8.448 c 0,-0.64088 -0.524359,-1.16524 -1.165242,-1.16524 -0.640883,0 -1.165241,0.52436 -1.165241,1.16524 0,0.64088 0.524358,1.16524 1.165241,1.16524 0.640883,0 1.165242,-0.52436 1.165242,-1.16524 z m 206.595895,2.21258 c -0.77839,-0.77836 -0.9349,-2.49736 -0.39796,-4.36966 0.82126,-2.8636 0.62364,-3.08827 -2.73692,-3.11087 -2.27893,-0.0153 -4.59002,0.97448 -6.23217,2.66912 -3.70277,3.82117 -7.2657,1.88631 -6.90513,-3.74986 0.14095,-2.20408 0.63538,-4.38647 1.09868,-4.84977 1.49366,-1.49364 0.89565,-3.05421 -0.90544,-2.36305 -1.06475,0.40855 -1.74786,0.002 -1.74786,-1.04057 0,-0.94122 -0.46321,-1.7113 -1.02942,-1.7113 -0.56612,0 -1.29724,-1.02469 -1.62481,-2.27709 -1.00957,-3.86075 8.14737,-8.08133 10.2283,-4.71436 0.86377,1.39766 2.9131,1.55223 2.9131,0.21972 0,-0.52003 -1.08414,-2.10921 -2.40925,-3.53148 -1.32502,-1.42228 -2.2958,-3.74968 -2.15719,-5.172 0.13853,-1.42232 -0.1347,-3.47855 -0.60723,-4.5694 -1.29062,-2.97971 0.20592,-4.42546 4.58126,-4.42546 2.83285,0 4.12654,0.61589 4.63077,2.20468 0.3849,1.21256 1.78664,2.48889 3.11511,2.83629 2.0759,0.54286 2.35695,1.36541 2.00002,5.8533 -0.44373,5.57941 1.22434,7.74959 5.95662,7.74959 3.07679,0 4.13101,4.40846 2.025,8.46781 -0.89863,1.73213 -1.9755,2.80769 -2.39303,2.39015 -0.41762,-0.41756 -0.75918,0.0536 -0.75918,1.04696 0,0.99339 1.04872,2.08041 2.33048,2.41561 3.62232,0.94726 3.02422,6.00113 -1.05384,8.90496 -3.7944,2.70182 -6.02719,3.01945 -7.91991,1.12668 z M 87.402283,711.14033 c -0.96137,-0.55696 -2.67745,-1.30076 -3.81351,-1.65291 -3.32784,-1.03152 -3.69046,-4.08986 -1.11369,-9.39361 2.00524,-4.12743 2.96073,-4.94935 5.70698,-4.90908 1.81423,0.0266 4.204,-0.36013 5.31061,-0.85938 1.50819,-0.68044 2.35528,-0.15451 3.38265,2.10027 0.93461,2.0514 2.61498,3.24147 5.283477,3.74209 4.48413,0.84123 5.48325,1.93801 4.52272,4.96446 -0.86964,2.74015 -5.45053,4.82737 -10.594837,4.82737 -2.21293,0 -4.02344,0.52436 -4.02344,1.16524 0,1.4013 -2.25619,1.40882 -4.66096,0.0155 z m 102.832547,0.37798 c -0.80113,-0.32325 -1.45656,-1.29411 -1.45656,-2.15744 0,-0.86335 -1.17987,-1.73729 -2.62179,-1.94208 -2.23736,-0.31775 -2.6739,-1.18396 -2.97696,-5.90725 -0.19539,-3.04419 -0.85081,-5.5349 -1.45655,-5.5349 -1.85441,0 -1.22182,-4.36543 0.74175,-5.11891 3.23881,-1.24285 7.14843,-0.76152 8.66585,1.06688 0.85426,1.02938 2.38679,1.48394 3.65056,1.08285 1.55192,-0.49257 3.49964,0.68401 6.77444,4.09247 3.72979,3.88192 4.41775,5.27044 3.64916,7.36515 -0.64238,1.75067 -2.08709,2.69601 -4.48954,2.93763 -2.3439,0.23571 -3.74285,1.1228 -4.13493,2.62179 -0.56546,2.16247 -3.16927,2.77543 -6.34543,1.49381 z m 478.62289,-0.0777 c -2.71567,-1.03373 -3.38517,-2.78558 -2.22794,-5.8294 1.60001,-4.20822 1.32725,-4.97368 -1.77192,-4.97368 -4.60111,0 -5.21478,-4.45324 -1.10176,-7.99467 2.344,-2.01829 3.35376,-3.96829 3.35376,-6.4771 0,-2.88753 0.5389,-3.66573 2.75612,-3.97943 1.51593,-0.21448 3.32494,0.17878 4.02008,0.87394 2.1804,2.18033 4.28203,1.40613 8.40754,-3.09713 3.97404,-4.33784 4.00694,-4.34868 6.20421,-2.03917 1.21493,1.27702 2.53231,4.07054 2.92746,6.20785 0.59549,3.22023 0.17115,4.43333 -2.47655,7.08062 -3.16098,3.16059 -3.6364,6.86277 -1.08731,8.46772 0.88894,0.55971 0.85687,1.66527 -0.10982,3.78703 -1.0902,2.3928 -2.19205,2.99655 -5.46861,2.99655 -2.25684,0 -4.10333,0.48691 -4.10333,1.082 0,3.34854 -5.12837,5.49125 -9.32193,3.89487 z m 10.48717,-24.78598 c 0,-0.64088 -0.52436,-1.16524 -1.16524,-1.16524 -0.64088,0 -1.16524,0.52436 -1.16524,1.16524 0,0.64089 0.52436,1.16525 1.16524,1.16525 0.64088,0 1.16524,-0.52436 1.16524,-1.16525 z m -161.99046,18.03493 c -0.85426,-1.02937 -2.38678,-1.48394 -3.65056,-1.08285 -1.55191,0.49258 -3.49954,-0.68401 -6.77443,-4.09246 -3.72971,-3.88192 -4.41766,-5.27045 -3.64916,-7.36515 0.65244,-1.77799 2.08671,-2.695 4.60848,-2.9465 2.15644,-0.21506 3.66137,-1.02494 3.66137,-1.97041 0,-0.88289 0.5541,-1.94775 1.23143,-2.36635 1.92246,-1.18816 6.92526,0.48242 6.92526,2.31257 0,0.90454 1.17979,1.81218 2.6218,2.01697 2.23735,0.31775 2.67381,1.18396 2.97686,5.90725 0.19539,3.04419 0.85081,5.5349 1.45655,5.5349 1.85441,0 1.22183,4.36543 -0.74174,5.11892 -3.23881,1.24284 -7.14834,0.76151 -8.66586,-1.06689 z m -452.631107,-5.1213 -2.05856,-4.565 -5.356939,1.61222 c -4.174826,1.25642 -5.562116,1.29953 -6.28671,0.19532 -1.135318,-1.73008 -0.09229,-6.61406 1.920038,-8.99092 3.171787,-3.74628 3.452844,-4.98554 0.809703,-3.57097 -2.019223,1.08062 -2.471057,0.99533 -2.471057,-0.46638 0,-0.98388 -0.655518,-1.65778 -1.456552,-1.49755 -2.764605,0.5529 -1.538119,-5.22253 1.607754,-7.57128 3.210939,-2.39728 8.197706,-1.97524 7.690499,0.65085 -0.149244,0.77244 1.021311,1.38553 2.645474,1.38553 2.52167,0 2.86425,-0.45444 2.54973,-3.38245 -0.44382,-4.13221 1.34646,-5.41349 5.78547,-4.14041 2.04579,0.58671 3.09833,0.53734 2.68826,-0.1261 -0.37064,-0.59969 -0.0625,-1.09035 0.68479,-1.09035 0.74724,0 1.07351,-0.74314 0.72496,-1.65142 -0.34854,-0.90829 0.0214,-1.903 0.82313,-2.21047 2.05838,-0.78986 7.718,0.43274 7.718,1.66726 0,0.56617 0.91756,1.03742 2.03917,1.04723 1.74264,0.0153 1.78497,0.18208 0.29131,1.1474 -0.96137,0.62126 -1.29435,1.1376 -0.73997,1.1474 0.55437,0.009 0.16705,1.30127 -0.86079,2.86989 -2.92168,4.45911 -1.46382,6.48472 3.65075,5.07251 3.56182,-0.98346 4.4584,-0.83971 5.74613,0.92139 1.80808,2.47273 1.95798,3.97171 0.39712,3.97171 -0.62075,0 -0.84718,0.7335 -0.5032,1.62999 0.34398,0.89651 0.0653,1.97616 -0.61917,2.39926 -0.6846,0.42309 -1.28614,1.91812 -1.33667,3.32228 -0.0503,1.40417 -0.34668,1.92703 -0.65794,1.16194 -0.31126,-0.76512 -1.3252,-1.09971 -2.2533,-0.74359 -0.92809,0.35615 -2.46732,3.1e-4 -3.42049,-0.79075 -1.49077,-1.23719 -1.73295,-0.69557 -1.73295,3.87476 l 0,5.31301 -3.88678,-0.63072 c -3.49759,-0.56759 -4.03667,-0.26865 -5.3849,2.98636 -2.21322,5.34311 -6.09944,4.92193 -8.74631,-0.94791 z m -5.286836,-15.8955 c 0,-0.99915 -0.524358,-1.49256 -1.165241,-1.09647 -0.640883,0.39609 -1.165241,1.21358 -1.165241,1.81663 0,0.60306 0.524358,1.09647 1.165241,1.09647 0.640883,0 1.165241,-0.81748 1.165241,-1.81663 z m 16.313376,-8.67054 c 0,-0.64088 -0.23127,-1.16524 -0.51392,-1.16524 -0.28254,0 -0.83785,0.52436 -1.23394,1.16524 -0.39609,0.64088 -0.1649,1.16524 0.51383,1.16524 0.67873,0 1.23403,-0.52436 1.23403,-1.16524 z m 535.859827,25.18633 c -0.93462,-2.05139 -2.6149,-3.24147 -5.28348,-3.74209 -4.48413,-0.84122 -5.48326,-1.93801 -4.52273,-4.96445 0.86396,-2.72219 5.44196,-4.82738 10.49771,-4.82738 2.15952,0 4.14649,-0.65545 4.41543,-1.45655 0.37996,-1.13167 1.11639,-1.15525 3.30154,-0.10569 1.54689,0.743 3.74201,1.64872 4.87808,2.01275 3.32923,1.06674 3.68962,4.1132 1.11369,9.41519 -2.00524,4.12745 -2.96074,4.94937 -5.70698,4.9091 -1.81423,-0.0266 -4.20391,0.36011 -5.31061,0.85938 -1.5082,0.68042 -2.35528,0.15449 -3.38265,-2.10028 z m -62.73091,-2.97014 c -1.71151,-3.19811 -1.49421,-5.86544 0.5417,-6.64666 0.96128,-0.36891 1.75588,-1.79443 1.76566,-3.16786 0.0149,-2.03936 0.22494,-2.17671 1.14744,-0.74926 0.76468,1.18329 1.13532,1.27371 1.14734,0.2799 0.009,-0.80737 -1.03081,-2.36589 -2.31258,-3.46337 -1.28177,-1.09748 -2.33048,-2.6784 -2.33048,-3.51316 0,-2.08667 5.36812,-3.9499 8.85714,-3.0742 2.10796,0.52905 3.46859,0.0291 5.1278,-1.88402 1.33453,-1.53866 2.99514,-2.32151 4.05887,-1.91335 2.40431,0.92262 4.10733,5.67164 3.25382,9.0735 -0.67631,2.69549 -0.64406,2.70698 1.72726,0.6148 1.85394,-1.63571 2.9378,-1.85308 4.65556,-0.93376 1.23142,0.65906 3.31329,0.91735 4.62638,0.57398 1.31308,-0.34338 2.66048,-0.18237 2.99429,0.35777 1.01115,1.63609 -0.52091,7.37764 -1.96869,7.37764 -0.74417,0 -2.30317,1.10968 -3.4645,2.46597 -1.66219,1.94133 -2.9682,2.32694 -6.13849,1.81246 -3.49312,-0.56686 -4.17082,-0.27577 -5.11019,2.19499 -0.8634,2.27089 -1.90839,2.84851 -5.15363,2.84851 -3.13953,0 -3.91717,-0.39977 -3.3999,-1.74786 0.36897,-0.96133 0.0904,-1.74786 -0.61916,-1.74786 -0.70949,0 -1.28987,0.78653 -1.28987,1.74786 0,2.68952 -6.62668,2.27636 -8.11577,-0.50602 z m -166.96175,-7.14573 c -1.20943,-0.71367 -2.03917,-2.60232 -2.03917,-4.64119 0,-1.8908 -0.52436,-3.43782 -1.16524,-3.43782 -2.21918,0 -1.15247,-4.26677 1.74786,-6.99145 2.86239,-2.68908 4.03397,-8.15669 1.74786,-8.15669 -1.85926,0 -1.3542,-2.14157 1.07874,-4.57449 1.39381,-1.39379 3.15976,-2.00454 4.66096,-1.61196 1.67767,0.43873 2.41699,0.08 2.41699,-1.17319 0,-2.70122 4.1299,-3.4881 7.81625,-1.48926 1.78944,0.97028 2.63065,1.78513 1.86933,1.8108 -0.76123,0.0256 -1.30507,1.09537 -1.20859,2.37714 0.12314,1.63456 1.01097,2.33048 2.97295,2.33048 2.54107,0 2.72518,0.34707 2.0086,3.78703 -0.43384,2.08287 -0.88661,5.62229 -1.00621,7.86538 -0.18644,3.49894 -0.66437,4.12994 -3.3641,4.44149 -1.7308,0.19973 -4.22144,-0.21198 -5.5349,-0.91492 -2.10964,-1.12901 -2.38809,-0.94029 -2.38809,1.61812 0,1.59291 -0.72813,3.31552 -1.61801,3.82803 -0.88987,0.51251 -1.81358,1.97453 -2.05259,3.24894 -0.50441,2.68948 -3.02702,3.40414 -5.94264,1.68356 z m 254.28829,-2.90276 c -0.6268,-1.64861 -1.1396,-3.43161 -1.1396,-3.9622 0,-0.53059 -0.78659,-1.26653 -1.74786,-1.63544 -2.41904,-0.92824 -2.1887,-3.94453 0.42582,-5.57732 1.19554,-0.74663 1.97523,-2.19305 1.73267,-3.2143 -0.24256,-1.02122 0.0336,-2.5832 0.61431,-3.47105 1.46327,-2.23821 7.2122,-0.66005 7.95599,2.18399 0.34445,1.3175 1.80715,2.35591 3.61822,2.56874 2.51142,0.29514 3.20823,1.16766 4.0074,5.01823 1.34152,6.46299 0.30063,9.90455 -2.99551,9.90455 -1.46177,0 -3.32233,-0.65546 -4.13455,-1.45655 -1.1824,-1.16623 -1.75225,-1.10818 -2.85904,0.29131 -2.22235,2.81001 -4.25406,2.56895 -5.47785,-0.64996 z M 169.8431,682.38918 c -1.7625,-0.92831 -3.20441,-2.50186 -3.20441,-3.49678 0,-1.27251 -0.60472,-1.55477 -2.03917,-0.95182 -6.57374,2.76315 -10.27603,1.4352 -9.00406,-3.22959 0.30576,-1.12155 0.85352,-3.08789 1.21717,-4.36966 0.45966,-1.62046 0.10478,-2.33048 -1.16524,-2.33048 -2.48588,0 -6.56973,-4.25575 -5.85958,-6.10623 0.95484,-2.48826 7.41876,-4.70374 11.69781,-4.00935 3.39057,0.55021 3.98783,0.30906 3.98783,-1.61009 0,-1.7312 0.81464,-2.25723 3.49572,-2.25723 1.92265,0 3.49573,0.48691 3.49573,1.08201 0,1.54682 3.40996,4.74747 5.03542,4.72636 0.90759,-0.0118 0.84177,-0.35472 -0.19389,-1.01114 -1.15769,-0.7337 -0.77577,-1.19195 1.46168,-1.7535 5.78397,-1.45169 11.30256,5.03139 9.39604,11.03826 -0.85613,2.6974 -3.7821,2.86978 -7.26803,0.4282 -2.02557,-1.4188 -2.44216,-1.4586 -1.95407,-0.18669 0.34119,0.88907 -0.13097,2.24 -1.04918,3.00205 -1.29295,1.07305 -1.4312,2.44604 -0.61301,6.08753 0.58103,2.58609 0.75321,5.19276 0.38248,5.79259 -0.92688,1.49972 -3.99864,1.16799 -7.81924,-0.84444 z m 249.94428,-0.50901 c -2.0829,-0.61506 -3.78704,-1.83374 -3.78704,-2.70817 0,-0.87444 -0.78658,-1.8917 -1.74786,-2.26061 -2.13314,-0.81856 -2.20837,-4.11848 -0.15549,-6.82082 1.13056,-1.48822 1.85525,-1.66164 2.83787,-0.67908 0.98254,0.98256 1.50988,0.82342 2.065,-0.62317 0.9279,-2.41797 4.99637,-2.55231 5.90097,-0.19485 0.36896,0.96132 1.40118,1.74786 2.29394,1.74786 1.75038,0 1.87827,0.50198 1.9302,7.57407 0.0298,4.09311 -0.30604,4.68669 -2.75818,4.87202 -1.53588,0.11605 -4.49662,-0.29219 -6.57941,-0.90725 z m 67.04966,-1.89725 c -2.08037,-2.36247 -3.31432,-10.53124 -1.98436,-13.13731 0.49062,-0.96133 1.17596,-2.6655 1.52311,-3.78704 0.34706,-1.12155 1.65381,-2.03917 2.90369,-2.03917 1.24998,0 3.89638,0.91762 5.88102,2.03917 3.27358,1.84995 3.56098,2.47168 3.09731,6.70014 -0.28115,2.56353 -0.55149,5.05423 -0.6009,5.5349 -0.0494,0.48066 -1.01413,0.87393 -2.14385,0.87393 -1.12982,0 -2.57183,1.14589 -3.20442,2.54642 -1.52796,3.3825 -3.25717,3.78355 -5.4716,1.26896 z m 37.63198,-0.13035 c -1.04909,-1.96038 -0.8441,-3.31629 1.02998,-6.81301 2.02976,-3.78707 2.94965,-4.40638 6.94205,-4.67372 3.71833,-0.249 4.74281,0.13487 5.33438,1.9989 0.4028,1.26889 1.41926,2.30708 2.25889,2.30708 0.83972,0 2.12316,0.7187 2.85214,1.59708 1.01394,1.22169 0.84205,2.18218 -0.73122,4.08615 -1.52534,1.84597 -3.90654,2.67713 -9.2165,3.21702 -6.4793,0.65877 -7.28434,0.49533 -8.46972,-1.7195 z m -16.9976,-1.10201 c -1.28205,-1.10022 -2.94201,-3.37006 -3.68888,-5.04408 -1.17111,-2.62487 -1.01068,-3.39176 1.16562,-5.57327 2.16492,-2.17004 2.2752,-2.68595 0.77577,-3.62984 -0.96137,-0.60516 -2.73096,-0.79397 -3.93255,-0.41957 -2.86687,0.89328 -4.16047,-1.38865 -3.40978,-6.01473 0.53648,-3.30613 0.19147,-3.91632 -3.01741,-5.33673 -4.56812,-2.02202 -4.61352,-4.83195 -0.12986,-8.0246 4.49028,-3.19738 9.75988,-2.78293 10.27081,0.80779 0.43748,3.07409 3.71451,2.35993 3.71451,-0.80951 0,-2.91506 3.3325,-3.8707 6.42701,-1.84305 2.35024,1.53989 2.84701,1.47823 5.11503,-0.63476 3.32914,-3.10155 6.14045,-2.38977 7.27195,1.84109 1.20775,4.51604 0.11689,8.83042 -2.02491,8.00855 -0.90255,-0.34634 -1.64094,-0.0493 -1.64094,0.66019 0,1.81471 2.9475,1.60664 4.54724,-0.32098 0.73531,-0.886 3.39654,-1.63933 5.91383,-1.67407 3.49927,-0.0483 4.74151,0.45565 5.27621,2.14041 0.76599,2.41339 -2.0759,7.56289 -4.7374,8.58421 -0.92287,0.35414 -1.73882,1.84015 -1.81312,3.30227 -0.1004,1.97361 -0.27248,2.1331 -0.6681,0.61918 -0.29308,-1.12155 -1.54315,-2.03918 -2.77794,-2.03918 -1.27132,0 -2.245,-0.80023 -2.245,-1.84495 0,-1.01474 -0.65552,-1.62249 -1.45655,-1.35056 -0.93657,0.31791 -1.31998,2.19241 -1.07389,5.25078 0.3163,3.93068 -0.0634,4.99505 -2.18655,6.13139 -1.78804,0.95691 -3.34583,1.0212 -5.12314,0.21142 -2.06481,-0.94078 -2.55468,-0.79638 -2.55794,0.75405 -0.0149,7.14882 -0.44736,8.32608 -3.04138,8.28772 -1.44201,-0.0213 -3.67069,-0.93895 -4.95264,-2.03917 z m 5.55736,-11.50404 c -0.78882,-0.31918 -2.3619,-0.3386 -3.49573,-0.0433 -1.13373,0.29543 -0.48819,0.55659 1.43446,0.58034 1.92265,0.0238 2.85018,-0.21797 2.06127,-0.53717 z m -411.19355,5.98714 c -2.837117,-2.62937 -3.343207,-2.74435 -5.096197,-1.15794 -2.95021,2.6699 -4.66041,2.12952 -5.42947,-1.71547 -0.38248,-1.91225 -1.10092,-3.22617 -1.59666,-2.9198 -1.55443,0.9607 -2.29506,-2.81459 -1.14538,-5.83843 0.6049,-1.59107 0.79367,-3.69063 0.41948,-4.66568 -1.57568,-4.10639 4.8283,-6.99592 7.73721,-3.49101 0.79777,0.96133 2.85456,1.74786 4.570537,1.74786 3.96844,0 5.91663,1.95408 5.91663,5.93459 0,1.72591 0.78649,3.43983 1.74786,3.80873 2.89399,1.11055 2.16959,7.19095 -1.11313,9.34185 -2.71473,1.77873 -3.02198,1.72534 -6.01088,-1.0447 z m -44.71142,-3.18364 c -0.01212,-1.26699 -0.914202,-2.03917 -2.384923,-2.03917 -1.301901,0 -2.709326,-0.91763 -3.127695,-2.03917 -0.418275,-1.12155 -1.712718,-2.72436 -2.876468,-3.5618 -1.16375,-0.83745 -2.115892,-2.19817 -2.115892,-3.02382 0,-2.51757 4.127751,-5.48955 6.408735,-4.61425 1.332663,0.51138 2.602869,0.0917 3.520334,-1.16303 1.14436,-1.56494 2.055392,-1.72735 4.492518,-0.80079 1.681304,0.63925 3.057034,1.66315 3.057034,2.27532 0,0.61217 1.17978,1.2806 2.62179,1.48539 1.6855,0.23939 2.75482,1.30928 2.99439,2.99608 0.37791,2.66099 -2.40701,6.60593 -3.72961,5.28327 -0.39674,-0.39673 -0.72133,0.1426 -0.72133,1.19853 0,1.12746 -1.32259,2.24355 -3.20441,2.7041 -1.7625,0.43133 -3.589692,1.35896 -4.060542,2.06137 -0.526223,0.78509 -0.862932,0.49149 -0.873931,-0.76203 z m 358.21626,-5.66041 c -0.49369,-0.79894 -2.51208,-1.01664 -5.29672,-0.57135 l -4.49905,0.71942 -0.74715,-4.67224 c -0.4509,-2.81988 -1.38104,-4.67225 -2.34605,-4.67225 -2.03703,0 -2.1653,-6.59335 -0.14234,-7.32161 0.94617,-0.34064 0.33381,-1.51036 -1.74787,-3.33861 -4.08505,-3.58767 -4.02912,-4.90723 0.34007,-8.01837 3.54429,-2.52378 8.90151,-2.45198 10.50395,0.14081 0.36933,0.59759 2.36833,0.74717 4.44227,0.33238 3.56862,-0.71373 3.75189,-1.00076 3.41854,-5.35483 -0.34249,-4.47274 -0.21375,-4.64808 4.62946,-6.30472 4.43155,-1.51585 5.18075,-1.50509 6.78338,0.0975 0.99083,0.99088 2.54069,1.8016 3.44399,1.8016 1.86317,0 3.44604,4.92828 2.43172,7.57146 -0.36943,0.9628 -1.96814,1.75051 -3.55259,1.75051 -1.58454,0 -3.2362,0.57476 -3.67033,1.27725 -0.43412,0.70248 -2.30037,1.05547 -4.14714,0.78443 -2.72032,-0.39926 -3.35766,-0.0616 -3.35766,1.77854 0,1.73337 0.35927,1.97312 1.51714,1.01219 2.78167,-2.30857 6.52265,-0.25151 7.32546,4.02807 0.83785,4.46583 -1.0106,7.68235 -3.79962,6.61207 -1.51333,-0.58072 -1.55835,-0.33052 -0.30231,1.68074 1.44676,2.31665 1.52199,2.31998 3.83084,0.16894 2.38316,-2.22025 3.87671,-2.75028 5.99401,-2.12706 0.64088,0.18863 3.00045,0.38182 5.24358,0.42929 3.31115,0.07 4.14835,0.57984 4.45094,2.71002 0.3932,2.76906 -0.55335,3.97117 -6.34665,8.06028 -2.34605,1.65596 -4.94659,2.41622 -7.54256,2.20511 -5.64005,-0.45867 -5.70129,-0.48605 -5.0248,-2.2488 0.35862,-0.9345 -0.34174,-1.84412 -1.69156,-2.19711 -1.71337,-0.44805 -2.48233,0.10988 -3.00128,2.17734 -0.495,1.97229 -1.51743,2.77974 -3.51978,2.77974 -1.55219,0 -3.18111,-0.58085 -3.61989,-1.29076 z m 12.31268,-5.70069 c 0,-0.64088 -0.23127,-1.16524 -0.51391,-1.16524 -0.28255,0 -0.83786,0.52436 -1.23395,1.16524 -0.39609,0.64088 -0.1649,1.16524 0.51383,1.16524 0.67873,0 1.23403,-0.52436 1.23403,-1.16524 z m 121.7612,1.15481 c -0.39963,-0.64662 -0.39534,-2.21928 0.009,-3.49481 0.56137,-1.76863 0.0261,-2.58914 -2.25525,-3.45646 -3.7545,-1.42752 -4.19384,-6.48244 -0.66065,-7.60382 1.66248,-0.52766 2.33049,-1.76304 2.33049,-4.31029 0,-3.46677 0.12976,-3.55321 4.46343,-2.97194 3.25,0.43592 5.23007,0.009 7.28276,-1.56853 1.55061,-1.19196 3.45629,-2.17886 4.23486,-2.19311 3.65923,-0.067 4.25667,8.85311 0.78584,11.73359 -0.89034,0.73892 -1.61876,3.07921 -1.61876,5.20064 0,2.83445 -0.61832,4.05337 -2.33178,4.59722 -1.28242,0.40702 -2.87395,1.75325 -3.53674,2.99161 -1.29333,2.41664 -7.40768,3.17249 -8.70352,1.0759 z m -76.04421,-4.12203 c -0.81846,-1.46245 -1.91034,-1.59934 -5.79498,-0.72651 -4.8584,1.09161 -7.29525,0.1513 -7.29525,-2.81495 0,-2.95102 3.58223,-8.08708 6.05544,-8.68196 1.52506,-0.36684 2.87618,-1.81113 3.27004,-3.49572 0.49648,-2.12327 1.56925,-2.96979 4.12085,-3.25158 1.89729,-0.20953 3.94774,-0.86499 4.55665,-1.45656 1.7158,-1.66718 6.02029,-1.27004 7.66095,0.70679 1.1755,1.41637 1.18706,2.42359 0.0569,4.90491 -1.19125,2.61456 -1.12442,3.3407 0.41128,4.46361 2.94909,2.15646 2.16949,5.1668 -1.68634,6.51092 -1.93616,0.67495 -4.05206,2.22075 -4.70189,3.4351 -1.42607,2.66466 -5.25841,2.89847 -6.65325,0.40595 z M 222.82318,645.55785 c -1.42094,-1.51244 -2.58339,-3.44251 -2.58339,-4.28903 0,-0.84652 -1.23003,-2.67904 -2.73328,-4.07223 -2.51851,-2.33406 -3.06244,-5.66313 -2.04934,-12.54261 0.0671,-0.45406 3.11362,-0.71624 6.77043,-0.58262 5.88978,0.21521 6.72121,0.55009 7.28276,2.93351 0.34864,1.47981 1.15834,2.64331 1.79922,2.58556 0.64089,-0.0578 1.33108,1.2222 1.53393,2.84433 0.20275,1.62213 -0.12566,2.94933 -0.72982,2.94933 -0.60415,0 -1.03221,2.75289 -0.9513,6.11752 0.13769,5.72469 -0.0429,6.13962 -2.80432,6.46182 -1.91379,0.22325 -3.85983,-0.62256 -5.53489,-2.40558 z m 370.34493,-0.80067 c -2.46201,-2.46205 -2.08074,-5.87736 0.65617,-5.87736 0.89277,0 1.62323,-0.78654 1.62323,-1.74787 0,-0.96132 0.78649,-1.74786 1.74786,-1.74786 0.96128,0 1.74787,-0.54281 1.74787,-1.20624 0,-0.78412 -0.89025,-0.72983 -2.54377,0.15513 -2.16502,1.15866 -2.85801,0.97323 -4.65472,-1.24563 -1.16105,-1.43384 -1.82067,-3.07671 -1.46588,-3.65084 0.35489,-0.57413 0.0895,-1.04387 -0.58886,-1.04387 -0.67864,0 -1.23395,0.55969 -1.23395,1.24377 0,0.72321 -0.99884,0.92676 -2.38641,0.48635 -1.31253,-0.41657 -3.14112,-0.13107 -4.06352,0.63446 -2.36992,1.96684 -5.20929,0.5271 -5.16566,-2.61933 0.0662,-4.8034 8.55278,-12.14816 11.71981,-10.14333 2.42175,1.53307 3.39151,1.30535 3.39151,-0.79638 0,-1.18574 -0.64107,-1.62653 -1.74786,-1.2018 -0.96138,0.36888 -1.74787,0.10673 -1.74787,-0.58262 0,-0.68935 -0.76943,-0.95809 -1.70992,-0.59721 -1.37349,0.52707 -1.65995,-0.42252 -1.45655,-4.82762 0.21375,-4.62636 0.6448,-5.53953 2.75705,-5.84062 3.22987,-0.46038 10.62934,3.48901 10.0112,5.34338 -0.26074,0.78229 0.22503,1.44092 1.07957,1.46363 0.85454,0.0227 0.24274,0.79066 -1.35942,1.70656 -2.08056,1.18935 -2.3576,1.67709 -0.96929,1.70657 4.42298,0.0939 5.4716,-1.11279 4.34029,-4.99517 -0.88782,-3.04709 -0.68936,-4.0239 1.1204,-5.51575 1.20962,-0.9971 2.56447,-2.96345 3.0108,-4.36966 1.36016,-4.2855 4.23701,-2.84384 6.28979,3.15203 2.10526,6.14915 1.68932,10.22653 -1.26564,12.40724 -1.75597,1.29584 -2.14078,2.11935 -1.16524,2.49367 0.80103,0.30738 1.45655,1.24055 1.45655,2.07372 0,0.83317 1.04872,1.7891 2.33048,2.1243 1.57326,0.41142 2.33049,1.58939 2.33049,3.62565 0,2.43281 -1.01432,3.49297 -5.24359,5.481 -5.26978,2.47706 -6.74628,5.20038 -3.49573,6.44771 2.34345,0.89926 2.14554,2.76381 -0.64945,6.12001 -3.15194,3.78472 -9.57885,4.46486 -12.69974,1.34397 z m -88.35018,-5.36082 c -1.42439,-0.99766 -2.62664,-1.39093 -2.67167,-0.87393 -0.20527,2.35581 -2.0938,-4.12829 -2.16669,-7.43922 -0.10012,-4.54176 1.21697,-5.47395 6.36827,-4.50756 3.89405,0.73053 11.0285,5.70772 11.0285,7.69382 0,1.80786 -5.87962,6.94083 -7.9504,6.94083 -1.11005,0 -3.18362,-0.81628 -4.60801,-1.81393 z m 26.79113,-1.39048 c -1.0736,-1.47332 -1.66387,-1.63757 -2.12717,-0.59193 -0.97153,2.19289 -5.1141,-0.44125 -5.1141,-3.25191 0,-1.2679 -0.6324,-3.31779 -1.40519,-4.55531 -1.19917,-1.92012 -0.94291,-2.67846 1.74786,-5.17213 1.73416,-1.60718 3.15305,-3.99588 3.15305,-5.30825 0,-1.65879 0.7575,-2.38612 2.48504,-2.38612 2.89763,0 6.83689,4.0914 6.83689,7.10097 0,1.14588 0.48642,2.38406 1.08097,2.75151 1.62127,1.00199 0.60388,11.24206 -1.23245,12.40537 -2.39573,1.51766 -3.78032,1.26442 -5.4249,-0.9922 z m -267.67272,-5.79545 c -4.13381,-1.01611 -5.26307,-2.78186 -4.95693,-7.75136 0.28506,-4.62866 0.16714,-4.80574 -3.19976,-4.80574 -2.65675,0 -3.57915,-0.58378 -3.84334,-2.43245 -0.1911,-1.33784 0.46433,-3.10621 1.45656,-3.92971 0.99232,-0.8235 1.80416,-3.00614 1.80416,-4.8503 0,-2.77346 0.48912,-3.35305 2.82986,-3.35305 3.13599,0 6.49207,-2.75365 6.49207,-5.32683 0,-0.91553 0.76608,-1.66462 1.70247,-1.66462 2.89464,0 6.45422,4.86605 6.45422,8.82312 0,2.74275 0.61348,3.88316 2.33049,4.33216 1.69295,0.44274 2.33048,1.5894 2.33048,4.19205 0,2.8745 -0.5912,3.73099 -2.99094,4.33328 -2.72518,0.68397 -2.92578,1.1357 -2.25861,5.0847 0.63612,3.76536 0.34593,4.58715 -2.21173,6.26299 -1.61921,1.06092 -3.09348,1.86811 -3.27628,1.79377 -0.18271,-0.0744 -1.38095,-0.39296 -2.66272,-0.70801 z m -69.83729,-6.9498 c -1.78916,-4.66259 4.56569,-16.6125 8.85807,-16.65695 3.49227,-0.0361 5.50544,1.27976 4.79399,3.13365 -0.39516,1.02978 0.13321,2.25584 1.23879,2.87456 2.09063,1.16997 2.69077,6.78931 0.72515,6.78931 -0.66158,0 -1.63609,1.17126 -2.16567,2.60279 -0.80607,2.17907 -1.92395,2.63756 -6.86644,2.81618 -4.35204,0.1573 -6.08237,-0.25257 -6.58389,-1.55954 z m 41.58019,-1.56526 c -1.44201,-0.57961 -2.62179,-1.85727 -2.62179,-2.83925 0,-2.29833 -3.03839,-2.32744 -3.91717,-0.0376 -1.14492,2.98357 -5.08838,2.02148 -6.7075,-1.63644 -1.30191,-2.94128 -1.97858,-3.30634 -5.16883,-2.78863 -4.16606,0.67606 -5.99046,-1.7895 -4.03201,-5.44892 1.24886,-2.33345 -0.57349,-9.35252 -2.42809,-9.35252 -0.57824,0 -1.05123,-0.85612 -1.05123,-1.90249 0,-2.71489 4.66395,-6.41029 7.1104,-5.63382 1.63935,0.52033 2.13062,-0.12551 2.425,-3.18834 0.31863,-3.31561 0.84718,-3.88771 3.86487,-4.1835 1.92265,-0.18846 4.47975,0.37741 5.68237,1.25748 1.79643,1.31454 1.95183,2.03898 0.87077,4.05897 -1.68634,3.15104 0.3285,4.62436 2.8609,2.09193 1.0022,-1.00219 3.09562,-1.82216 4.65201,-1.82216 2.24174,0 2.82995,0.60547 2.82995,2.91311 0,2.94256 1.58641,3.89443 2.91311,1.74786 0.39609,-0.64088 1.68661,-1.16524 2.8678,-1.16524 2.62179,0 4.99096,6.03398 3.96862,10.10739 -0.56314,2.24348 -1.35559,2.76494 -3.77463,2.48366 -2.59775,-0.30205 -3.11903,0.14285 -3.43886,2.93505 -0.286,2.49565 0.18737,3.43871 1.95853,3.90186 4.38681,1.14718 3.91484,7.37259 -0.55894,7.37259 -0.88288,0 -1.60514,0.52436 -1.60514,1.16524 0,1.41332 -3.13599,1.39632 -6.70014,-0.0364 z m -18.93517,-17.44231 c 0,-0.64089 -0.52436,-1.16524 -1.16524,-1.16524 -0.64089,0 -1.16525,0.52435 -1.16525,1.16524 0,0.64088 0.52436,1.16524 1.16525,1.16524 0.64088,0 1.16524,-0.52436 1.16524,-1.16524 z m 272.93019,13.44342 c -3.06402,-2.57822 -3.98559,-2.8126 -6.82085,-1.73464 -2.71296,1.03147 -3.53525,0.89478 -4.76938,-0.79295 -2.0952,-2.86538 -1.86951,-4.78114 1.04545,-8.87484 l 2.53659,-3.56236 -3.0987,0.77773 c -2.37672,0.59651 -3.44035,0.23074 -4.56476,-1.5698 -0.80635,-1.29115 -2.38865,-2.34753 -3.51623,-2.34753 -1.48182,0 -2.05018,-0.92963 -2.05018,-3.35305 0,-3.98768 2.57621,-6.48113 5.81996,-5.63287 1.28522,0.33608 2.33673,0.13578 2.33673,-0.4451 0,-1.86861 4.25733,-1.12637 7.30933,1.27433 3.20544,2.52134 6.67357,3.08668 6.67357,1.08784 0,-2.37027 6.3735,-0.58565 7.55906,2.11658 0.63324,1.4434 2.20445,2.63824 3.49572,2.6584 3.17263,0.0495 6.65745,5.11396 6.20729,9.02104 -0.31312,2.71763 -0.91551,3.18726 -4.16308,3.24557 -4.73517,0.0851 -5.84327,1.1959 -6.31579,6.3311 -0.47496,5.1614 -2.9902,5.75073 -7.68473,1.80055 z m 60.3198,-11.4413 c -0.96632,-0.78073 -1.58557,-2.59672 -1.37629,-4.03553 0.28655,-1.96951 -0.069,-2.44359 -1.43773,-1.91827 -1.08143,0.41498 -2.1089,-0.0596 -2.53537,-1.17101 -0.84513,-2.20232 -3.94616,-2.52171 -4.00228,-0.41221 -0.0587,2.19312 -4.17707,6.70014 -6.12293,6.70014 -0.9403,0 -2.22449,-0.65544 -2.85363,-1.45655 -1.7266,-2.19841 -2.71538,-8.84471 -1.43371,-9.63683 0.61991,-0.38312 1.12712,-1.71435 1.12712,-2.95829 0,-1.48488 0.80038,-2.26171 2.33048,-2.26171 1.29463,0 2.33048,-0.77683 2.33048,-1.74786 0,-2.22158 -1.15312,-2.20937 -4.37348,0.0462 -2.35313,1.64823 -2.72293,1.60569 -4.54546,-0.52292 -1.09123,-1.2744 -2.41485,-2.05082 -2.94135,-1.7254 -0.5266,0.32548 -0.95736,-0.68979 -0.95736,-2.25611 0,-5.23008 9.60354,-8.82689 13.40857,-5.02189 1.22938,1.22939 1.27654,1.92269 0.20806,3.05876 -1.0764,1.14444 -1.01385,1.35716 0.28302,0.96271 0.91551,-0.27847 2.22636,-1.52382 2.9131,-2.76745 0.68666,-1.24362 1.69156,-2.58504 2.23307,-2.98094 0.5416,-0.39591 -0.37605,-1.06135 -2.03917,-1.47876 -1.66303,-0.41742 -3.02376,-1.56642 -3.02376,-2.55336 0,-0.98693 -0.52436,-1.47036 -1.16524,-1.07427 -1.53234,0.94699 -1.51854,-4.42426 0.0149,-5.95803 0.79721,-0.79721 0.75013,-2.41496 -0.14477,-4.98229 -1.71235,-4.91193 -0.2214,-6.49947 5.15642,-5.49057 3.02562,0.56759 4.39529,1.62501 5.47198,4.22434 0.78984,1.90698 2.1281,3.46724 2.97388,3.46724 2.52363,0 2.88793,1.7625 1.68046,8.12952 -1.31681,6.94358 -0.21384,8.91088 5.35191,9.54585 2.70784,0.30893 3.45583,1.02587 3.75143,3.59561 0.36029,3.13184 -2.28891,7.29981 -3.72617,5.86249 -0.39674,-0.39673 -0.72133,0.41478 -0.72133,1.80335 0,1.38859 0.73038,2.5247 1.62314,2.5247 3.58381,0 4.3003,9.20996 0.78789,10.12846 -1.2374,0.3236 -2.53184,1.32322 -2.87647,2.2214 -0.76347,1.98947 -3.00791,2.04776 -5.36981,0.13943 z m -3.48669,-29.96792 c 0,-0.64088 -0.5553,-1.16524 -1.23403,-1.16524 -0.67873,0 -0.90992,0.52436 -0.51383,1.16524 0.39609,0.64089 0.9514,1.16525 1.23395,1.16525 0.28264,0 0.51391,-0.52436 0.51391,-1.16525 z m -354.19245,18.72047 c -0.66344,-1.23963 -1.20728,-2.9438 -1.20849,-3.78703 0,-0.88977 -1.55313,-1.64238 -3.69773,-1.79341 -4.84256,-0.34103 -6.17522,-1.77228 -4.52366,-4.85824 1.98576,-3.71041 6.62836,-6.31188 9.83007,-5.50832 2.142,0.53763 2.92923,0.16214 3.39514,-1.6194 0.73196,-2.79909 6.37266,-3.23499 7.39472,-0.57144 0.37968,0.98944 2.1157,1.74786 4.00078,1.74786 4.19236,0 6.43894,3.51296 4.52897,7.08182 -0.79917,1.4932 -1.98184,2.15753 -3.08649,1.73365 -1.48014,-0.56798 -1.65874,0.017 -1.02942,3.37148 0.68684,3.66116 0.47001,4.13184 -2.21321,4.80531 -1.71962,0.43158 -3.69997,0.14467 -4.69369,-0.68 -1.38496,-1.14943 -1.85898,-1.06152 -2.44001,0.45251 -0.99344,2.58886 -4.7926,2.36129 -6.25698,-0.37479 z m 48.89922,-5.94999 c 0,-0.6583 -1.26424,-0.84516 -2.91497,-0.43085 -4.29359,1.07761 -7.30336,-3.15608 -7.30336,-10.2731 0,-4.93978 0.32664,-5.66731 2.82566,-6.29452 1.80566,-0.45321 3.57878,-0.0275 4.91238,1.17932 1.14772,1.03869 2.42482,1.55047 2.83797,1.13731 1.27561,-1.27566 4.30328,2.05506 4.30328,4.73409 0,1.39557 0.54151,3.07893 1.20337,3.74082 0.66195,0.66189 0.89528,2.00664 0.51858,2.98832 -0.82229,2.14286 -6.38291,4.94682 -6.38291,3.21861 z m 201.58675,-9.85737 c -0.79786,-0.96133 -2.63512,-1.74786 -4.08272,-1.74786 -1.63022,0 -3.79627,-1.52618 -5.69011,-4.00917 -2.64575,-3.46882 -2.87703,-4.4062 -1.71579,-6.95492 0.7382,-1.62015 1.78328,-2.67314 2.32237,-2.33998 0.90795,0.56116 2.01615,-0.12897 6.1686,-3.84149 1.27235,-1.13759 1.7074,-0.93672 2.22048,1.02527 0.41846,1.6 1.25222,2.20442 2.42175,1.75562 2.4292,-0.93217 5.66326,2.54151 4.94025,5.30626 -0.4303,1.64572 0.48045,2.87662 3.4053,4.60235 2.19597,1.29567 3.99277,2.79088 3.99277,3.32269 0,4.1389 -11.04957,6.41569 -13.9829,2.88123 z m -33.26782,-2.6218 c -0.37708,-1.76243 -1.19871,-4.46399 -1.82589,-6.00347 -0.76524,-1.87838 -0.73876,-3.20067 0.0802,-4.02008 0.67155,-0.67156 1.22098,-2.10066 1.22098,-3.17579 0,-2.94038 3.07596,-4.92859 6.35262,-4.1062 1.98716,0.49875 2.67241,1.28417 2.1982,2.51979 -0.5457,1.42206 -0.0858,1.64375 2.21368,1.06668 3.0988,-0.77774 5.18598,1.86493 3.55604,4.50226 -0.45929,0.74325 -0.85426,2.89073 -0.87766,4.77219 -0.0354,2.8669 -0.6558,3.57987 -3.82964,4.403 -2.08279,0.54021 -3.78703,1.49156 -3.78703,2.11411 0,0.62257 -1.03865,1.13193 -2.3082,1.13193 -1.57513,0 -2.52606,-1.01779 -2.99383,-3.20442 z M 422.5338,562.4612 c -0.389,-1.01373 -0.70725,-3.06722 -0.70725,-4.56329 0,-1.90169 -1.05189,-3.18572 -3.49573,-4.26749 -2.39387,-1.0596 -3.49572,-2.37597 -3.49572,-4.17602 0,-1.44576 0.54645,-2.62865 1.21437,-2.62865 2.52102,0 4.33861,-2.7995 3.10262,-4.77869 -1.70293,-2.72677 -0.34137,-5.28382 3.29996,-6.19776 2.11841,-0.53167 3.79477,-0.20044 5.13815,1.0153 2.52392,2.28416 3.55828,2.28575 3.55828,0.006 0,-1.06689 -0.82984,-1.65962 -2.03917,-1.45656 -2.454,0.41204 -6.54074,-7.10357 -5.43273,-9.99093 1.12599,-2.93436 11.00528,-2.61373 13.62176,0.44209 2.50947,2.93058 2.67521,8.14306 0.25897,8.14306 -0.96137,0 -1.74787,0.55648 -1.74787,1.23664 0,0.80121 1.80576,0.96584 5.12846,0.46756 4.53932,-0.68071 5.21777,-0.48809 5.9048,1.67646 0.42685,1.34506 1.28707,2.44555 1.91164,2.44555 2.02473,0 5.48932,-3.99655 6.31337,-7.28276 0.58924,-2.35024 1.52796,-3.20442 3.52146,-3.20442 1.49486,0 3.04696,0.5323 3.44911,1.1829 0.40206,0.65059 2.57397,1.95293 4.82643,2.89407 3.66427,1.53103 4.0185,2.06167 3.36429,5.04026 -0.50255,2.28792 -0.16836,3.7962 1.06848,4.82267 3.21028,2.66431 2.23223,6.96505 -1.98735,8.73936 -3.96629,1.66778 -6.70013,0.70489 -6.70013,-2.35987 0,-0.93247 -1.71496,-1.67678 -4.36966,-1.89649 -4.0033,-0.33133 -4.4006,-0.68368 -4.7388,-4.20251 -0.31975,-3.3263 -0.70129,-3.73545 -2.84813,-3.05407 -5.47431,1.73747 -9.14631,9.51261 -3.86683,8.18752 1.55126,-0.38934 3.64869,-0.39008 4.66096,-9.3e-4 2.00058,0.76721 2.57453,5.1174 0.67528,5.1174 -0.64088,0 -1.16524,0.72623 -1.16524,1.61385 0,2.22157 -5.29952,5.50658 -7.51301,4.65716 -0.99493,-0.38178 -1.80892,-1.1624 -1.80892,-1.73472 0,-2.33759 -2.33952,-0.82793 -3.0396,1.96143 -0.71742,2.85836 -1.02513,2.96464 -6.43101,2.22114 -3.80885,-0.52385 -5.67753,-0.36134 -5.67753,0.49372 0,1.96283 -3.1565,1.50889 -3.95371,-0.56858 z m -24.94427,-6.54657 c -0.76906,-0.76906 -1.39829,-2.07996 -1.39829,-2.9131 0,-0.99046 -1.61344,-1.51482 -4.66097,-1.51482 -4.06781,0 -4.6563,-0.33368 -4.62395,-2.62179 0.0513,-3.63952 2.62878,-6.67973 6.55229,-7.72904 1.82337,-0.48765 3.31525,-1.57829 3.31525,-2.42366 0,-2.69437 3.77622,-4.28813 6.35075,-2.68032 1.43548,0.89648 2.54181,1.00127 2.98591,0.28281 1.24559,-2.01539 3.95641,-1.22286 5.88503,1.72048 1.13308,1.72939 1.48955,3.45852 0.90077,4.36965 -0.53591,0.8293 -0.97432,3.29355 -0.97432,5.47611 0,3.37998 -0.5183,4.13675 -3.49573,5.10433 -1.92265,0.62481 -4.3236,1.85413 -5.3354,2.73183 -2.26328,1.96336 -3.6845,2.01439 -5.50134,0.19752 z m 206.59729,-21.63307 c -1.19768,-0.87992 -3.50793,-4.27448 -4.85383,-7.13199 -1.47818,-3.13826 1.3954,-5.39517 6.45077,-5.0665 4.7306,0.30754 4.75894,0.28518 3.57729,-2.82274 -0.65505,-1.72301 -0.93489,-3.80023 -0.62186,-4.61605 0.31312,-0.81583 -0.70521,-2.69174 -2.26281,-4.16871 -1.5576,-1.47697 -2.84104,-3.31621 -2.85204,-4.08719 -0.0252,-1.75373 7.26337,-3.85196 10.46871,-3.01373 1.55108,0.4056 3.14121,-0.24298 4.53456,-1.84957 2.93613,-3.38534 5.60258,-3.10283 8.00717,0.84835 1.58734,2.60818 2.52316,3.12686 4.35259,2.41238 1.28177,-0.5006 3.7724,-0.94705 5.5349,-0.99209 2.97015,-0.0759 3.20441,0.25547 3.20441,4.53366 0,4.94997 -3.34182,9.36733 -7.08653,9.36733 -2.90434,0 -3.77547,3.48072 -1.50027,5.99472 1.83456,2.02719 1.82505,2.30726 -0.15251,4.49246 -2.6587,2.93781 -9.90455,3.27283 -9.90455,0.45794 0,-1.22877 -0.6337,-1.62937 -1.84322,-1.16524 -1.01376,0.38902 -2.25908,0.7073 -2.76741,0.7073 -0.50841,0 -1.23888,1.57307 -1.62341,3.49572 -0.6296,3.1477 -1.13709,3.49395 -5.09798,3.47788 -2.41932,-0.009 -4.9231,-0.40308 -5.56398,-0.87393 z m 23.88745,-24.09214 c 0,-0.28262 -0.52436,-0.83793 -1.16524,-1.23402 -0.64088,-0.39609 -1.16524,-0.16486 -1.16524,0.51385 0,0.67871 0.52436,1.23402 1.16524,1.23402 0.64088,0 1.16524,-0.23124 1.16524,-0.51385 z m -81.1297,14.52831 c -1.36174,-0.55757 -3.03867,-2.62803 -3.72644,-4.60102 -0.68777,-1.97299 -1.86056,-3.58724 -2.60604,-3.58724 -1.5714,0 -0.45808,-7.84889 1.43884,-10.14482 1.50018,-1.81568 0.28852,-3.7083 -3.23089,-5.04635 -3.45023,-1.31181 -3.67554,-5.0562 -0.46936,-7.80141 1.41647,-1.21283 2.33049,-3.43739 2.33049,-5.67212 0,-4.31721 1.63973,-5.97575 6.42262,-6.49625 3.14737,-0.34251 3.51605,-0.0272 3.83756,3.28085 0.30651,3.15447 0.7892,3.63912 3.49572,3.5102 1.72699,-0.0822 3.44418,-0.5671 3.81584,-1.07743 0.37167,-0.51033 1.59088,-0.57671 2.70933,-0.14751 1.69091,0.64886 1.90839,1.69118 1.29025,6.18558 -0.61972,4.50577 -0.32981,5.88211 1.74208,8.27101 l 2.48551,2.86581 -2.54144,2.05788 c -3.24515,2.62777 -7.66692,2.64153 -9.12934,0.0284 -2.03367,-3.63397 -2.94694,-0.38389 -1.02476,3.64693 1.04331,2.18772 1.42728,4.36877 0.86936,4.93764 -0.54971,0.56043 -1.16552,3.11204 -1.36855,5.67023 -0.3932,4.95338 -1.90522,5.93578 -6.34078,4.11961 z m 43.19075,-22.68526 c -1.24411,-0.92364 -3.34947,-1.41432 -4.67859,-1.09039 -1.57923,0.38485 -3.69913,-0.5364 -6.11751,-2.65849 -4.3953,-3.85677 -4.88432,-8.02201 -1.08349,-9.22833 1.43949,-0.45689 3.14363,-1.47399 3.78703,-2.26025 1.7763,-2.17091 6.4133,-2.97808 6.4133,-1.11638 0,0.85674 1.17979,1.72529 2.6218,1.93007 1.87725,0.26663 2.72648,1.2824 2.99047,3.57722 0.20285,1.76268 1.38263,3.74747 2.6218,4.41065 3.06262,1.63908 2.83088,3.9729 -0.61907,6.23337 -3.47317,2.27572 -3.1579,2.26496 -5.93574,0.20253 z m 19.24643,-14.10999 c -0.76132,-0.91734 -1.58939,-4.2945 -1.84015,-7.50479 -0.37698,-4.8261 -0.1238,-5.83691 1.46186,-5.83691 1.05487,0 2.59914,-0.91762 3.43187,-2.03917 1.2731,-1.7146 1.89375,-1.80734 3.89974,-0.58262 1.31206,0.8011 3.1483,1.45655 4.08049,1.45655 0.93219,0 1.95937,0.42794 2.28266,0.95098 0.93219,1.50829 -2.37047,9.98263 -4.11489,10.55838 -0.86843,0.28661 -2.10321,1.14932 -2.74409,1.91712 -1.94791,2.33363 -4.99442,2.84337 -6.45749,1.08046 z m -44.93712,-4.9435 c -0.69606,-0.45326 -1.59153,-3.26519 -1.98995,-6.24871 -0.5581,-4.17965 -0.33186,-5.57522 0.98608,-6.08096 0.94076,-0.36099 1.71849,-1.85261 1.72828,-3.31473 0.0103,-1.57261 0.36747,-2.1125 0.87393,-1.32189 0.47085,0.73506 2.15402,1.5216 3.74043,1.74786 2.14246,0.30557 2.99924,-0.18808 3.33082,-1.91908 0.24554,-1.28176 0.0718,-1.96873 -0.38677,-1.52659 -1.20374,1.16151 -3.89209,-1.68698 -3.22725,-3.41956 0.30874,-0.80446 -0.0196,-1.46268 -0.72861,-1.46268 -0.70949,0 -1.28987,0.51089 -1.28987,1.13532 0,0.62443 -1.66303,1.99528 -3.69549,3.04634 -3.42125,1.76915 -3.93488,1.76961 -6.92023,0.006 -1.7735,-1.04767 -3.65,-1.83206 -4.16989,-1.74309 -2.54489,0.43551 -3.8549,-0.30268 -3.82124,-2.1534 0.0513,-2.8083 2.74801,-6.11752 4.98574,-6.11752 1.01907,0 2.27222,-0.70701 2.78464,-1.57113 1.12665,-1.89944 8.68515,-3.25416 10.81438,-1.93822 1.00891,0.62356 1.28092,2.16703 0.80308,4.55665 -0.81054,4.05253 0.32487,4.52224 5.27929,2.18409 2.55104,-1.2039 2.93603,-2.00449 2.43834,-5.07116 -0.43142,-2.65843 -0.083,-3.83659 1.29155,-4.36393 2.39518,-0.91914 7.6067,1.0371 9.66442,3.62771 1.27496,1.6052 1.5205,1.6472 1.26126,0.21568 -0.40448,-2.23292 4.13604,-8.12937 6.2524,-8.1195 1.63246,0.008 5.65851,6.10302 5.65851,8.5671 0,0.76678 -0.81763,2.5614 -1.81685,3.98801 -1.49561,2.13526 -2.23223,2.37151 -4.16653,1.33631 -2.12186,-1.13556 -2.22757,-1.02923 -1.09001,1.09625 0.69281,1.29458 1.78589,2.67902 2.42911,3.07652 1.80603,1.11619 5.80952,-0.55103 5.80952,-2.41932 0,-0.91813 0.52436,-1.66934 1.16524,-1.66934 0.64088,0 1.16524,-0.72538 1.16524,-1.61195 0,-2.90354 10.91048,-4.33263 11.97132,-1.56805 0.94776,2.4699 -3.75516,13.49123 -6.07044,14.22607 -1.17559,0.37312 -3.51735,0.0496 -5.20397,-0.71882 -2.64258,-1.20402 -3.30043,-1.08817 -4.75782,0.8379 -2.29776,3.03673 -2.24976,3.19436 1.68,5.51571 3.64907,2.15557 3.69055,4.67819 0.12258,7.46085 -2.48709,1.93971 -8.32681,1.78608 -11.07343,-0.29131 -1.24401,-0.94095 -1.6373,-1.71081 -0.87393,-1.71081 0.76337,0 1.38804,-0.56084 1.38804,-1.24629 0,-0.68545 -1.17988,-1.07872 -2.6218,-0.87393 -1.66238,0.2361 -2.62403,1.18011 -2.62776,2.57959 0,1.21397 -0.89732,2.7695 -1.98678,3.45673 -1.55005,0.97775 -2.57882,0.68778 -4.73013,-1.33329 -3.36606,-3.16223 -4.34281,-3.19416 -9.24447,-0.30213 -2.12596,1.25437 -4.43491,1.90982 -5.13098,1.45656 z m 11.19378,-6.06771 c 0,-0.64089 -0.52436,-1.16525 -1.16524,-1.16525 -0.64089,0 -1.16524,0.52436 -1.16524,1.16525 0,0.64088 0.52435,1.16524 1.16524,1.16524 0.64088,0 1.16524,-0.52436 1.16524,-1.16524 z M 603.6042,464.8189 c 0,-0.24196 -0.78658,-1.0927 -1.74786,-1.89053 -1.43157,-1.18804 -1.74786,-1.10843 -1.74786,0.43995 0,1.03978 0.78649,1.89053 1.74786,1.89053 0.96128,0 1.74786,-0.19798 1.74786,-0.43995 z m -13.98289,-9.39582 c 0,-1.2299 -2.23624,-1.7466 -2.90136,-0.67041 -0.40262,0.65134 0.0858,1.18425 1.0847,1.18425 0.99912,0 1.81666,-0.23123 1.81666,-0.51384 z m -70.093,14.83934 c -2.73543,-3.1808 -3.50523,-6.28614 -2.00608,-8.09252 1.69118,-2.03775 0.81315,-3.03215 -1.79401,-2.03171 -1.08982,0.41823 -1.72111,1.43911 -1.40285,2.26863 0.63668,1.65922 -4.85617,4.01727 -9.35801,4.01727 -2.9682,0 -3.32131,-1.45924 -1.97812,-8.17485 0.61143,-3.05747 1.6595,-4.15815 5.33345,-5.60132 4.26516,-1.67538 4.52571,-2.0451 3.87737,-5.50101 -0.94534,-5.03907 1.41041,-6.88551 7.53529,-5.9061 4.18694,0.66953 4.78728,0.45755 5.73066,-2.02364 0.57954,-1.52433 1.8298,-3.06936 2.7784,-3.43337 2.168,-0.83193 6.61055,0.27366 6.61055,1.64516 0,0.56613 0.72534,1.02934 1.61195,1.02934 2.36395,0 3.12163,4.42185 1.10344,6.44004 -0.95597,0.95593 -2.22012,1.44012 -2.80935,1.07596 -0.58924,-0.36414 -1.07128,0.37469 -1.07128,1.64187 0,1.26716 -0.35134,3.21938 -0.78071,4.33825 -0.49369,1.28655 -0.32804,1.75462 0.45062,1.27338 0.67714,-0.41852 1.87921,0.0199 2.6712,0.97409 0.79199,0.95426 2.16222,1.73503 3.0451,1.73503 2.00422,0 2.11142,3.97952 0.14869,5.51523 -2.43638,1.90624 -6.61578,2.50298 -10.2435,1.46256 -3.19304,-0.91575 -3.35217,-0.81911 -2.19904,1.33557 0.81995,1.53202 0.85267,2.79329 0.0961,3.70485 -0.63081,0.76014 -1.06046,1.90643 -0.95475,2.54731 0.34463,2.08904 -4.55013,1.90533 -6.39512,-0.24002 z m 110.71415,-8.4234 c -2.4279,-1.98987 -2.57202,-2.54784 -1.22742,-4.75228 2.13761,-3.50457 -0.0317,-5.93435 -4.50026,-5.04064 -2.81652,0.56331 -3.5813,0.17711 -4.75632,-2.40185 -1.24933,-2.742 -1.06065,-3.42744 1.75121,-6.36244 2.72844,-2.8479 2.98945,-3.71526 1.94484,-6.46278 -1.7721,-4.66111 -1.59592,-5.01978 2.8787,-5.85921 4.45188,-0.83518 6.98465,0.15854 6.98465,2.74041 0,0.90791 0.64181,1.86468 1.42625,2.12617 1.08013,0.36004 1.14231,-0.33914 0.25617,-2.881 -0.87962,-2.52337 -0.72366,-4.42483 0.62858,-7.66108 1.91817,-4.59097 4.23253,-5.44867 6.67366,-2.47327 0.82639,1.00726 2.42007,2.84252 3.54168,4.07834 2.22664,2.45362 2.72723,5.74269 0.87393,5.74269 -0.64088,0 -1.16524,1.00502 -1.16524,2.23339 0,1.22835 -0.51103,2.40815 -1.1355,2.6218 -0.62457,0.21362 -0.82714,1.56232 -0.45016,2.9971 0.37689,1.43478 1.13923,2.32816 1.69398,1.98529 1.88135,-1.16271 5.71789,1.88079 5.71789,4.53589 0,3.34641 -2.06845,5.43565 -5.38137,5.43565 -3.84483,0 -6.27105,1.20192 -6.27105,3.10654 0,0.93057 0.52436,1.36789 1.16525,0.9718 2.44821,-1.51309 1.02345,1.99052 -1.91809,4.71661 -3.71991,3.44749 -5.14085,3.54561 -8.73138,0.60287 z m -59.26502,-18.13713 c -0.79786,-0.96133 -2.41708,-1.74787 -3.59826,-1.74787 -1.69734,0 -2.30979,-1.22169 -2.92056,-5.82621 -0.42508,-3.20442 -1.22975,-5.82621 -1.78804,-5.82621 -1.74721,0 -1.10586,-4.37681 0.74547,-5.08724 2.63783,-1.0122 8.83962,0.53028 9.54734,2.37455 0.35348,0.92104 1.49542,1.33922 2.65339,0.97167 3.02898,-0.96135 8.63006,6.77385 7.67121,10.59412 -0.39954,1.59204 -1.26331,2.56286 -1.91939,2.15737 -0.65617,-0.4055 -2.14423,0.35959 -3.30696,1.7002 -2.4897,2.87067 -5.066,3.12147 -7.0842,0.68962 z m 31.02078,-4.71121 c -0.53405,-1.3919 -1.20309,-1.52352 -2.96111,-0.58262 -3.77492,2.02025 -4.73778,1.44855 -7.18824,-4.26806 -2.32694,-5.42867 -2.32778,-5.50154 -0.083,-7.28276 1.24737,-0.98958 2.62123,-2.97904 3.05312,-4.42102 0.99949,-3.33724 2.37812,-3.30829 5.8084,0.122 1.50903,1.50908 3.51688,3.04045 4.46176,3.40304 1.91341,0.73425 3.68356,9.81772 2.50946,12.87735 -0.93965,2.44851 -4.68045,2.55008 -5.60071,0.15207 z m -46.75154,-24.95525 c -3.66734,-1.52691 -8.36988,-7.28555 -9.07825,-11.117 -0.70576,-3.81749 1.2318,-7.48403 3.54336,-6.70531 1.5892,0.53538 1.9316,-1.84015 0.56472,-3.91796 -0.47085,-0.71575 -2.16698,-1.24011 -3.76914,-1.16524 -2.20519,0.10302 -3.00567,-0.51666 -3.2939,-2.54983 -0.20937,-1.47727 0.24806,-3.44361 1.01665,-4.36966 1.37713,-1.65939 0.22848,-4.29133 -2.84487,-6.5184 -2.94424,-2.13354 4.06492,-7.59741 7.87209,-6.13647 1.1411,0.43789 1.51305,-0.2214 1.2869,-2.28132 -0.38286,-3.48817 1.26508,-4.28555 6.55359,-3.17091 2.53995,0.53533 3.87401,1.44921 3.69531,2.53134 -0.29495,1.78623 4.1133,5.20328 5.24834,4.06822 0.36486,-0.36485 0.0382,-0.66336 -0.72487,-0.66336 -2.76824,0 -3.88315,-5.91795 -1.90168,-10.09363 2.27334,-4.79068 4.83771,-4.93227 9.02279,-0.49819 4.05141,4.29246 4.55805,11.62026 0.87021,12.58467 -2.52895,0.66133 -3.16918,3.3596 -0.97107,4.0923 0.74771,0.24924 1.35942,2.13578 1.35942,4.19234 0,2.85014 0.43869,3.61733 1.84499,3.22666 9.5479,-2.65229 9.6029,-2.62071 11.20394,6.43355 0.57265,3.23868 0.31881,4.37007 -1.10316,4.91571 -1.01581,0.38981 -1.84695,1.49331 -1.84695,2.4522 0,2.50204 -3.6075,4.05834 -6.70014,2.89052 -1.76809,-0.66761 -2.62179,-1.95087 -2.62179,-3.94065 0,-1.62285 -0.52436,-2.95065 -1.16524,-2.95065 -0.64089,0 -1.16525,-0.78654 -1.16525,-1.74786 0,-2.53524 -1.9548,-2.14524 -2.65423,0.52956 -0.73979,2.82871 -6.25539,4.36689 -9.15824,2.554 -3.1605,-1.97376 -5.12165,-1.73973 -3.34638,0.39934 0.79199,0.95426 1.84993,1.48163 2.35108,1.17193 1.67655,-1.03618 2.27399,2.91185 0.8977,5.93249 -1.05347,2.31201 -1.03128,3.51256 0.0981,5.32108 1.12404,1.79985 1.14324,2.71537 0.0839,3.99201 -1.54688,1.86393 -1.89683,1.9004 -5.1678,0.53852 z m 18.93564,-25.39121 c 0.28451,-0.85433 -0.51867,-1.45655 -1.94259,-1.45655 -1.43129,0 -2.42753,0.75238 -2.42753,1.83331 0,2.14156 3.63602,1.8281 4.37012,-0.37676 z m -5.53536,-0.29131 c 0,-0.64088 -0.52436,-1.16524 -1.16524,-1.16524 -0.64088,0 -1.16524,0.52436 -1.16524,1.16524 0,0.64088 0.52436,1.16524 1.16524,1.16524 0.64088,0 1.16524,-0.52436 1.16524,-1.16524 z m 1.16524,-12.23503 c 0,-0.96133 -0.52436,-1.74786 -1.16524,-1.74786 -0.64088,0 -1.16524,0.78653 -1.16524,1.74786 0,0.96132 0.52436,1.74786 1.16524,1.74786 0.64088,0 1.16524,-0.78654 1.16524,-1.74786 z m -8.15669,-2.91311 c 0,-0.64088 -0.23127,-1.16524 -0.51392,-1.16524 -0.28254,0 -0.83785,0.52436 -1.23394,1.16524 -0.39609,0.64089 -0.1649,1.16525 0.51382,1.16525 0.67873,0 1.23404,-0.52436 1.23404,-1.16525 z m -34.95724,22.68564 c 0,-4.57972 0.49304,-6.63461 1.70349,-7.0991 0.93695,-0.35953 2.021,-1.65397 2.40897,-2.87653 0.70297,-2.21481 3.426,-2.83406 6.78842,-1.54378 0.9733,0.37348 1.51034,1.35454 1.19358,2.18011 -0.31685,0.82559 0.24069,1.81446 1.23879,2.19749 2.27604,0.87338 2.32629,4.55723 0.12035,8.82298 -1.25371,2.42451 -2.84478,3.46683 -6.11752,4.00765 -7.40292,1.22336 -7.33608,1.27515 -7.33608,-5.68882 z m -3.4548,-22.60903 c -0.66344,-1.23964 -1.20616,-3.42447 -1.20616,-4.85518 0,-1.43071 -0.28125,-2.32006 -0.62504,-1.97633 -1.23497,1.23502 -9.28837,-2.38629 -9.68567,-4.35531 -0.22336,-1.10695 1.00015,-3.31663 2.71893,-4.91038 2.74102,-2.54165 3.81164,-2.80665 8.71264,-2.15652 4.95582,0.65742 5.65711,0.47534 6.20254,-1.61062 0.862,-3.29629 5.03021,-2.97797 7.34922,0.56125 1.05375,1.6083 3.02795,2.91311 4.4075,2.91311 4.06036,0 5.51206,3.58133 3.30165,8.14535 -1.02924,2.12499 -2.07274,3.25903 -2.31911,2.52009 -0.89519,-2.6857 -2.58404,-1.2552 -2.58404,2.18878 0,4.09098 -1.86346,5.18731 -6.08732,3.58139 -2.20473,-0.83823 -3.56256,-0.70702 -5.15325,0.49801 -2.89027,2.18951 -3.61076,2.11166 -5.03189,-0.54364 z"
       id="path3373"
       inkscape:connector-curvature="0" />
  </g>
</svg>
