<?xml version="1.0" encoding="UTF-8" standalone="no"?>
<!-- Created with Inkscape (http://www.inkscape.org/) -->

<svg
   xmlns:dc="http://purl.org/dc/elements/1.1/"
   xmlns:cc="http://creativecommons.org/ns#"
   xmlns:rdf="http://www.w3.org/1999/02/22-rdf-syntax-ns#"
   xmlns:svg="http://www.w3.org/2000/svg"
   xmlns="http://www.w3.org/2000/svg"
   xmlns:sodipodi="http://sodipodi.sourceforge.net/DTD/sodipodi-0.dtd"
   xmlns:inkscape="http://www.inkscape.org/namespaces/inkscape"
   width="200mm"
   height="200mm"
   viewBox="0 0 708.66142 708.66141"
   id="svg2"
   version="1.1"
   inkscape:version="0.91 r13725"
   sodipodi:docname="python}.svg">
  <defs
     id="defs4" />
  <sodipodi:namedview
     id="base"
     pagecolor="#ffffff"
     bordercolor="#666666"
     borderopacity="1.0"
     inkscape:pageopacity="0.0"
     inkscape:pageshadow="2"
     inkscape:zoom="0.49497475"
     inkscape:cx="125.37671"
     inkscape:cy="694.09482"
     inkscape:document-units="px"
     inkscape:current-layer="layer1"
     showgrid="false"
     inkscape:window-width="1600"
     inkscape:window-height="876"
     inkscape:window-x="0"
     inkscape:window-y="24"
     inkscape:window-maximized="1" />
  <metadata
     id="metadata7">
    <rdf:RDF>
      <cc:Work
         rdf:about="">
        <dc:format>image/svg+xml</dc:format>
        <dc:type
           rdf:resource="http://purl.org/dc/dcmitype/StillImage" />
        <dc:title></dc:title>
      </cc:Work>
    </rdf:RDF>
  </metadata>
  <g
     inkscape:label="Capa 1"
     inkscape:groupmode="layer"
     id="layer1"
     transform="translate(0,-343.70079)">
    <path
       inkscape:connector-curvature="0"
       id="path3377"
       d="m 329.88542,998.45215 c -56.6968,-6.19571 -99.70648,-27.82534 -114.31929,-57.49132 -5.73666,-11.6462 -5.83954,-13.30365 -5.83954,-94.06901 l 0,-82.21393 6.60418,-14.08156 c 7.81215,-16.65712 21.1625,-30.36163 37.34289,-38.3335 11.36032,-5.59707 14.39055,-5.8044 102.77319,-7.03194 l 91.06774,-1.26483 14.31702,-7.03081 c 19.53107,-9.59133 33.96599,-24.34942 43.45312,-44.42594 7.73441,-16.36743 7.98546,-18.0054 8.87137,-57.88493 l 0.91169,-41.04085 8.92163,-1.67369 c 4.90688,-0.92055 21.21564,-1.091 36.2417,-0.3788 31.24696,1.48104 45.09254,6.53799 57.92902,21.15795 30.29478,34.50382 44.64397,123.75839 29.49634,183.47219 -7.68503,30.29523 -18.56097,54.2443 -30.77187,67.7603 -18.07454,20.00634 -11.2773,19.02473 -141.54376,20.44068 l -116.36434,1.26483 0,6.32415 0,6.32415 69.56564,1.26483 69.56564,1.26483 0.74842,31.62075 c 0.46617,19.69461 -0.4351,35.91416 -2.38962,43.00421 -4.0579,14.72029 -23.57746,34.43585 -43.25042,43.68472 -33.56899,15.78178 -83.79867,23.65747 -123.33075,19.33752 z M 451.11498,941.5292 c 6.48038,-5.45289 7.78308,-8.37907 7.78308,-17.48276 0,-9.10369 -1.3027,-12.02987 -7.78308,-17.48275 -10.88947,-9.16291 -23.19409,-8.8466 -32.88605,0.84538 -5.47446,5.47444 -7.3944,9.79431 -7.3944,16.63737 0,6.84306 1.91994,11.16293 7.3944,16.63737 9.69196,9.69199 21.99658,10.00829 32.88605,0.84539 z M 118.21421,840.21974 C 81.786047,827.3118 60.209163,780.2656 57.464205,707.76055 54.610167,632.37456 75.581171,580.84241 117.01973,561.41458 l 14.28741,-6.69844 110.0402,-1.3563 c 60.5221,-0.74597 110.40395,-1.59973 110.84854,-1.89725 0.44459,-0.29751 0.44459,-3.10222 0,-6.23267 l -0.80835,-5.69174 -68.09237,-0.67453 c -48.75838,-0.48302 -69.14169,-1.5454 -71.78799,-3.74165 -3.0386,-2.52181 -3.48357,-9.67357 -2.50287,-40.2274 1.08502,-33.80311 1.80291,-38.40732 7.94604,-50.96344 10.4844,-21.42935 27.82547,-30.73855 71.93148,-38.61487 26.74824,-4.77663 94.01366,-5.43353 124.20869,-1.213 11.67561,1.63196 27.27284,5.22871 34.66046,7.99277 17.29108,6.46942 36.81572,24.09892 45.0992,40.72167 l 6.52245,13.08887 0,82.53143 c 0,93.20339 -0.6801,97.63846 -17.98755,117.30077 -5.58878,6.34917 -16.41034,14.52047 -24.47421,18.48035 l -14.45559,7.09861 -92.33257,1.26483 -92.33258,1.26483 -12.76375,6.73721 c -17.26075,9.1109 -33.45335,25.77531 -41.3853,42.59115 -6.02087,12.76431 -6.61853,17.04629 -7.23812,51.85802 -0.9722,54.62388 2.81875,49.36578 -35.4205,49.12865 -21.51903,-0.13357 -35.70996,-1.44168 -42.76824,-3.94271 z m 170.8166,-348.81347 c 8.72677,-7.34309 11.82232,-17.623 8.18641,-27.18612 -5.67663,-14.93071 -27.95347,-20.2045 -39.50504,-9.35233 -23.02956,21.63514 7.16511,56.86229 31.31863,36.53845 z"
       style="fill:#fde59f" />
    <path
       inkscape:connector-curvature="0"
       id="path3375"
       d="m 325.45771,993.44452 c -39.57506,-5.14528 -76.94908,-20.27368 -94.32952,-38.18302 -16.81753,-17.32933 -18.00303,-25.22131 -17.11226,-113.91712 0.74721,-74.40035 0.94716,-77.05841 6.76414,-89.92606 3.29677,-7.29278 10.53717,-17.36391 16.08974,-22.38033 19.28461,-17.4225 18.80344,-17.34625 118.31221,-18.74779 l 89.80291,-1.26483 16.95052,-8.03015 c 20.80389,-9.85563 38.17016,-26.7558 47.12531,-45.86045 6.23432,-13.30014 6.85209,-17.62553 8.01947,-56.14959 l 1.26483,-41.73938 35.62247,0 c 35.23216,0 35.75878,0.084 48.06353,7.66269 21.52578,13.25815 32.56747,35.01656 43.31349,85.35221 3.07477,14.40274 4.38698,31.34554 4.25736,54.97019 -0.16113,29.38698 -1.1262,37.2483 -6.91823,56.36013 -14.7591,48.70025 -32.2048,72.03582 -58.09108,77.70338 -8.9487,1.95922 -47.12349,2.65164 -119.97915,2.17621 -74.46812,-0.48595 -107.68827,0.1366 -109.60555,2.05381 -1.51309,1.51309 -2.3775,6.02021 -1.9209,10.0158 l 0.83019,7.26473 70.83047,1.26483 70.83047,1.26483 0,34.15041 c 0,32.64032 -0.30541,34.66994 -6.90696,45.89966 -8.77114,14.92041 -19.48761,23.9688 -38.62692,32.61444 -35.86174,16.19954 -83.19291,22.82714 -124.58654,17.4454 z m 123.40451,-44.14431 c 14.30768,-7.39877 19.09761,-26.24818 10.32556,-40.63332 -9.75639,-15.99936 -32.31551,-17.68184 -44.40701,-3.3119 -8.33558,9.90627 -10.333,18.23341 -6.55905,27.34448 7.3603,17.76937 24.69097,24.84857 40.6405,16.60074 z M 118.21421,840.21974 C 81.786047,827.3118 60.209163,780.2656 57.464205,707.76055 54.610167,632.37456 75.581171,580.84241 117.01973,561.41458 l 14.28741,-6.69844 110.0402,-1.3563 c 60.5221,-0.74597 110.40395,-1.59973 110.84854,-1.89725 0.44459,-0.29751 0.44459,-3.10222 0,-6.23267 l -0.80835,-5.69174 -68.09237,-0.67453 c -48.75838,-0.48302 -69.14169,-1.5454 -71.78799,-3.74165 -3.0386,-2.52181 -3.48357,-9.67357 -2.50287,-40.2274 1.08502,-33.80311 1.80291,-38.40732 7.94604,-50.96344 10.4844,-21.42935 27.82547,-30.73855 71.93148,-38.61487 26.74824,-4.77663 94.01366,-5.43353 124.20869,-1.213 11.67561,1.63196 27.27284,5.22871 34.66046,7.99277 17.29108,6.46942 36.81572,24.09892 45.0992,40.72167 l 6.52245,13.08887 0,82.53143 c 0,93.20339 -0.6801,97.63846 -17.98755,117.30077 -5.58878,6.34917 -16.41034,14.52047 -24.47421,18.48035 l -14.45559,7.09861 -92.33257,1.26483 -92.33258,1.26483 -12.76375,6.73721 c -17.26075,9.1109 -33.45335,25.77531 -41.3853,42.59115 -6.02087,12.76431 -6.61853,17.04629 -7.23812,51.85802 -0.9722,54.62388 2.81875,49.36578 -35.4205,49.12865 -21.51903,-0.13357 -35.70996,-1.44168 -42.76824,-3.94271 z m 170.8166,-348.81347 c 8.72677,-7.34309 11.82232,-17.623 8.18641,-27.18612 -5.67663,-14.93071 -27.95347,-20.2045 -39.50504,-9.35233 -23.02956,21.63514 7.16511,56.86229 31.31863,36.53845 z"
       style="fill:#fdd149" />
    <path
       inkscape:connector-curvature="0"
       id="path3373"
       d="m 465.20268,948.0346 c 2.39071,-15.86896 2.37588,-24.81602 -0.0954,-57.50615 l -1.76884,-23.39935 14.42359,0 14.42359,0 -0.83345,32.67872 c -0.80676,31.63261 -1.07639,33.02107 -8.42242,43.37241 -4.17394,5.88153 -10.34021,12.50049 -13.70281,14.70878 l -6.11384,4.0151 2.0895,-13.86951 z M 118.21421,840.21974 C 81.786047,827.3118 60.209163,780.2656 57.464205,707.76055 54.610167,632.37456 75.581171,580.84241 117.01973,561.41458 l 14.28741,-6.69844 110.0402,-1.3563 c 60.5221,-0.74597 110.40395,-1.59973 110.84854,-1.89725 0.44459,-0.29751 0.44459,-3.10222 0,-6.23267 l -0.80835,-5.69174 -68.09237,-0.67453 c -48.75838,-0.48302 -69.14169,-1.5454 -71.78799,-3.74165 -3.0386,-2.52181 -3.48357,-9.67357 -2.50287,-40.2274 1.08502,-33.80311 1.80291,-38.40732 7.94604,-50.96344 10.4844,-21.42935 27.82547,-30.73855 71.93148,-38.61487 26.74824,-4.77663 94.01366,-5.43353 124.20869,-1.213 11.67561,1.63196 27.27284,5.22871 34.66046,7.99277 17.29108,6.46942 36.81572,24.09892 45.0992,40.72167 l 6.52245,13.08887 0,82.53143 c 0,93.20339 -0.6801,97.63846 -17.98755,117.30077 -5.58878,6.34917 -16.41034,14.52047 -24.47421,18.48035 l -14.45559,7.09861 -92.33257,1.26483 -92.33258,1.26483 -12.76375,6.73721 c -17.26075,9.1109 -33.45335,25.77531 -41.3853,42.59115 -6.02087,12.76431 -6.61853,17.04629 -7.23812,51.85802 -0.9722,54.62388 2.81875,49.36578 -35.4205,49.12865 -21.51903,-0.13357 -35.70996,-1.44168 -42.76824,-3.94271 z m 170.8166,-348.81347 c 8.72677,-7.34309 11.82232,-17.623 8.18641,-27.18612 -5.67663,-14.93071 -27.95347,-20.2045 -39.50504,-9.35233 -23.02956,21.63514 7.16511,56.86229 31.31863,36.53845 z m 174.92657,280.89232 0,-64.47458 9.48622,-6.0941 c 11.5306,-7.40745 28.30072,-24.91092 35.56363,-37.11891 9.27558,-15.59092 13.13232,-36.41015 13.13232,-70.88996 l 0,-32.02747 20.27583,-1.76868 c 38.90207,-3.39347 59.47632,2.97553 74.88883,23.18268 26.67045,34.96728 38.27398,124.08514 22.86347,175.5967 -9.23599,30.87245 -17.30885,47.94315 -28.57863,60.4319 -15.41233,17.07938 -18.15797,17.63701 -86.83859,17.63701 l -60.79308,0 0,-64.47459 z"
       style="fill:#91b0cb" />
    <path
       inkscape:connector-curvature="0"
       id="path3371"
       d="m 465.20268,948.0346 c 2.39071,-15.86896 2.37588,-24.81602 -0.0954,-57.50615 l -1.76884,-23.39935 14.42359,0 14.42359,0 -0.83345,32.67872 c -0.80676,31.63261 -1.07639,33.02107 -8.42242,43.37241 -4.17394,5.88153 -10.34021,12.50049 -13.70281,14.70878 l -6.11384,4.0151 2.0895,-13.86951 z M 124.2582,838.23487 C 109.39106,834.23682 95.979183,823.82358 85.164432,807.88174 62.513734,774.49269 53.648137,695.50164 66.319632,639.97725 75.692021,598.90899 90.766617,577.44736 119.80825,563.82572 l 14.02855,-6.57992 110.0402,-1.26483 110.04019,-1.26483 0.78273,-9.44595 0.7827,-9.44593 -70.34834,-0.67271 -70.34837,-0.67269 -0.74458,-35.41523 c -0.8931,-42.48027 1.6777,-54.05597 14.95343,-67.3317 23.20866,-23.20866 112.67807,-34.68439 185.19526,-23.75396 29.91735,4.50942 43.03773,9.95543 58.64637,24.34297 22.8748,21.08527 22.63541,19.93318 23.50501,113.12706 0.87134,93.37806 0.003,99.08087 -18.07194,118.68988 -20.63281,22.38395 -18.3522,21.95067 -123.08744,23.38539 l -92.33258,1.26483 -14.46474,6.77964 c -7.95563,3.72879 -19.99704,11.95438 -26.75867,18.27912 -23.99625,22.44569 -30.72431,44.17134 -30.82177,99.52697 l -0.0501,28.45867 -27.19384,-0.17075 c -14.95661,-0.0938 -32.64255,-1.636 -39.30211,-3.4269 z M 293.45832,491.72762 c 10.06719,-10.06719 11.32871,-21.04518 3.83125,-33.34013 -14.41372,-23.63684 -50.88291,-13.20002 -50.88291,14.56175 0,8.20156 1.66985,11.84739 8.60084,18.77838 7.05092,7.05092 10.51544,8.60084 19.22541,8.60084 8.70997,0 12.17449,-1.54992 19.22541,-8.60084 z m 170.49906,280.57097 0,-64.47458 9.48622,-6.0941 c 11.5306,-7.40745 28.30072,-24.91092 35.56363,-37.11891 9.27558,-15.59092 13.13232,-36.41015 13.13232,-70.88996 l 0,-32.02747 20.27583,-1.76868 c 38.90207,-3.39347 59.47632,2.97553 74.88883,23.18268 26.67045,34.96728 38.27398,124.08514 22.86347,175.5967 -9.23599,30.87245 -17.30885,47.94315 -28.57863,60.4319 -15.41233,17.07938 -18.15797,17.63701 -86.83859,17.63701 l -60.79308,0 0,-64.47459 z"
       style="fill:#fdd149;fill-opacity:1" />
    <path
       inkscape:connector-curvature="0"
       id="path3369"
       d="M 124.2582,838.23487 C 109.39106,834.23682 95.979183,823.82358 85.164432,807.88174 62.513734,774.49269 53.648137,695.50164 66.319632,639.97725 75.692021,598.90899 90.766617,577.44736 119.80825,563.82572 l 14.02855,-6.57992 110.0402,-1.26483 110.04019,-1.26483 0.78273,-9.44595 0.7827,-9.44593 -70.34834,-0.67271 -70.34837,-0.67269 -0.74458,-35.41523 c -0.8931,-42.48027 1.6777,-54.05597 14.95343,-67.3317 23.20866,-23.20866 112.67807,-34.68439 185.19526,-23.75396 29.91735,4.50942 43.03773,9.95543 58.64637,24.34297 22.8748,21.08527 22.63541,19.93318 23.50501,113.12706 0.87134,93.37806 0.003,99.08087 -18.07194,118.68988 -20.63281,22.38395 -18.3522,21.95067 -123.08744,23.38539 l -92.33258,1.26483 -14.46474,6.77964 c -7.95563,3.72879 -19.99704,11.95438 -26.75867,18.27912 -23.99625,22.44569 -30.72431,44.17134 -30.82177,99.52697 l -0.0501,28.45867 -27.19384,-0.17075 c -14.95661,-0.0938 -32.64255,-1.636 -39.30211,-3.4269 z M 293.45832,491.72762 c 10.06719,-10.06719 11.32871,-21.04518 3.83125,-33.34013 -14.41372,-23.63684 -50.88291,-13.20002 -50.88291,14.56175 0,8.20156 1.66985,11.84739 8.60084,18.77838 7.05092,7.05092 10.51544,8.60084 19.22541,8.60084 8.70997,0 12.17449,-1.54992 19.22541,-8.60084 z"
       style="fill:#608eb5" />
    <path
       inkscape:connector-curvature="0"
       id="path3367"
       d="M 125.16341,836.3953 C 111.4945,832.40704 95.978955,820.35271 87.529765,807.15694 69.724174,779.34852 58.490614,715.57201 63.86351,672.79589 c 7.852038,-62.5138 23.589784,-91.57342 58.28019,-107.61371 11.27945,-5.21545 15.45157,-5.42906 117.93881,-6.03797 58.43513,-0.3472 108.8706,-1.2386 112.07879,-1.98093 5.12236,-1.18522 5.73881,-2.64941 5.05932,-12.01705 l -0.77377,-10.66737 -70.19806,-0.67243 -70.19805,-0.67244 0.0557,-37.27246 c 0.0458,-30.77538 0.87084,-39.06745 4.73262,-47.57004 5.98487,-13.177 19.8705,-24.58442 36.49995,-29.9857 48.01992,-15.59692 156.26018,-15.30851 192.02433,0.51167 16.41153,7.25959 33.27107,23.67954 39.73023,38.69421 5.3011,12.32278 5.44815,15.3395 4.71344,96.70142 -0.72713,80.51851 -0.98396,84.39908 -6.22845,94.10045 -7.26954,13.44737 -19.80491,25.12165 -33.73967,31.42207 -10.68176,4.82963 -16.40461,5.15031 -92.84048,5.20245 -50.4573,0.0344 -86.55857,1.13799 -94.86223,2.89985 -28.81475,6.11386 -53.36745,24.7025 -66.95298,50.68962 -6.70866,12.83268 -7.12393,15.63406 -8.37616,56.50627 l -1.31757,43.00421 -27.82626,0.44399 c -15.30444,0.24411 -31.72927,-0.69483 -36.49965,-2.0867 z M 289.19537,499.17506 c 7.78277,-4.02461 15.39346,-17.52869 15.39346,-27.31349 0,-7.87949 -9.6503,-22.32245 -17.78356,-26.61544 -10.59632,-5.5931 -25.30841,-2.16346 -34.70536,8.09038 -23.04396,25.14533 6.50431,61.65785 37.09546,45.83855 z"
       style="fill:#3573a7" />
    <path
       inkscape:connector-curvature="0"
       id="path3365"
       d="m 314.94404,683.19047 -26.32485,-0.91225 1.66067,-45.84654 c 0.91338,-25.21559 1.66067,-52.49413 1.66067,-60.61896 l 0,-14.77243 27.66157,0 c 35.57501,0 40.63924,-1.82055 40.63924,-14.60942 0,-5.32142 -1.36602,-11.04133 -3.03559,-12.71091 -2.03195,-2.03194 -13.32289,-3.03559 -34.15041,-3.03559 l -31.11481,0 0,-12.81707 c 0,-9.8382 1.49794,-14.78098 6.44504,-21.26695 11.53181,-15.11902 11.43768,-32.66717 -0.24968,-46.55692 -5.56975,-6.61929 -6.35005,-9.6801 -5.69247,-22.32948 l 0.76194,-14.65875 11.38347,-1.76732 c 18.25741,-2.83451 90.51572,-2.43834 112.56985,0.61719 34.43297,4.77056 55.39127,17.26844 68.42992,40.80621 l 7.45987,13.46677 0.76818,77.93753 c 0.84652,85.88973 -0.32777,95.37173 -14.17771,114.478 -3.96982,5.47648 -13.391,13.37228 -20.93594,17.54622 l -13.71807,7.58898 -51.85802,0.18694 c -28.52191,0.10296 -63.70419,-0.22362 -78.18287,-0.72528 z"
       style="fill:#3573a7;fill-opacity:1" />
  </g>
</svg>
